<?xml version="1.0" encoding="UTF-8" standalone="no"?>
<svg
   xml:space="preserve"
   width="1068.5474"
   height="500"
   viewBox="0 0 282.72112 132.29096"
   version="1.1"
   id="svg2"
   sodipodi:docname="Home_heading.svg"
   inkscape:version="1.4.3 (0d15f75, 2025-12-25)"
   xmlns:inkscape="http://www.inkscape.org/namespaces/inkscape"
   xmlns:sodipodi="http://sodipodi.sourceforge.net/DTD/sodipodi-0.dtd"
   xmlns="http://www.w3.org/2000/svg"
   xmlns:svg="http://www.w3.org/2000/svg"><defs
     id="defs2" /><sodipodi:namedview
     id="namedview2"
     pagecolor="#ffffff"
     bordercolor="#000000"
     borderopacity="0.25"
     inkscape:showpageshadow="2"
     inkscape:pageopacity="0.0"
     inkscape:pagecheckerboard="0"
     inkscape:deskcolor="#d1d1d1"
     inkscape:zoom="0.59274826"
     inkscape:cx="711.09446"
     inkscape:cy="555.0417"
     inkscape:window-width="1903"
     inkscape:window-height="1367"
     inkscape:window-x="10"
     inkscape:window-y="35"
     inkscape:window-maximized="0"
     inkscape:current-layer="svg2" /><path
     d="m 35.09748,17.954829 c 0.142754,-0.505686 0.49148,-0.951713 0.838074,-1.33453 a 1.1421715,1.1421715 0 1 0 -1.693197,-1.533396 c -0.546881,0.6037 -1.05612,1.257113 -1.420468,1.988656 a 1.225154,1.225154 0 1 0 2.275591,0.879267 m 0.02555,1.493623 a 11.363747,11.363747 0 0 1 -0.0511,-1.045467 c 0,-0.164768 0,-0.338782 0.03905,-0.500715 a 1.225154,1.225154 0 0 0 -2.264242,-0.874294 c -0.389211,0.701714 -0.528412,1.54405 -0.647029,2.326728 a 1.4730259,1.4730259 0 1 0 2.923325,0.09375 z m -2.85513,2.74861 a 1.7315511,1.7315511 0 1 0 3.161964,-1.350157 c -0.07673,-0.134941 -0.120734,-0.291197 -0.158383,-0.440344 a 6.0369909,6.0369909 0 0 1 -0.149145,-0.958107 1.4730259,1.4730259 0 0 0 -2.922614,-0.09375 c -0.142049,0.934667 -0.20242,1.924736 0.06744,2.842358 m 0,0 c 0.242186,0.825291 0.710235,1.568196 1.321036,2.170474 a 1.8821206,1.8821206 0 1 0 2.460251,-2.839515 2.343773,2.343773 0 0 1 -0.619322,-0.68182 1.7315511,1.7315511 0 0 0 -3.162674,1.350866 z m 1.321036,2.170474 c 0.623584,0.613648 1.373591,1.086658 2.168344,1.444618 a 1.992207,1.992207 0 1 0 1.45602,-3.703162 C 36.801333,21.970497 36.39579,21.790807 36.048486,21.528022 a 1.8821206,1.8821206 0 0 0 -2.459543,2.839515 m 2.168346,1.444618 c 0.882114,0.398442 1.823171,0.656963 2.774175,0.830266 a 2.0987421,2.0987421 0 1 0 0.587364,-4.152033 c -0.644185,-0.06534 -1.291209,-0.174007 -1.906271,-0.381395 a 1.992207,1.992207 0 0 0 -1.455269,3.703162 m 2.774174,0.830266 c 1.100862,0.200284 2.223032,0.27344 3.341652,0.269178 a 2.2010159,2.2010159 0 1 0 -0.150571,-4.397066 c -0.866484,0.05611 -1.739365,0.06387 -2.603719,-0.02418 a 2.0980319,2.0980319 0 0 0 -0.587367,4.152031 z m 3.341652,0.269178 c 1.392768,-0.0056 2.777015,-0.252132 4.110835,-0.643467 a 2.2500424,2.2500424 0 1 0 -1.266344,-4.318233 c -0.975151,0.286226 -1.978713,0.498583 -2.995058,0.563926 a 2.2010159,2.2010159 0 0 0 0.150571,4.39777 m 4.110834,-0.643467 a 39.062882,39.062882 0 0 0 4.181149,-1.50641 2.2274483,2.2274483 0 0 0 -1.687518,-4.122909 c -1.233676,0.49006 -2.485818,0.937508 -3.759978,1.31109 a 2.2500395,2.2500395 0 1 0 1.266347,4.318226 m 4.181149,-1.506407 q 2.15201,-0.90626 4.259275,-1.90982 a 2.1904586,2.1904586 0 0 0 -1.856552,-3.968078 84.517876,84.517876 0 0 1 -4.09095,1.754278 2.2282379,2.2282379 0 0 0 1.647744,4.140666 q 0.01989,-0.0092 0.04051,-0.01706 m 4.259247,-1.909803 a 102.27373,102.27373 0 0 0 4.323904,-2.187521 2.1250207,2.1250207 0 0 0 -1.927576,-3.786967 251.42292,251.42292 0 0 1 -4.25288,2.006411 2.1903624,2.1903624 0 1 0 1.855841,3.968077 z m 4.323904,-2.187521 a 96.591859,96.591859 0 0 0 4.370072,-2.488661 2.025588,2.025588 0 0 0 -2.026299,-3.507846 88.779273,88.779273 0 0 1 -4.271349,2.20954 2.1250207,2.1250207 0 1 0 1.927576,3.787678 m 4.370072,-2.488661 a 129.26264,129.26264 0 0 0 4.145636,-2.6094 1.974621,1.974621 0 0 0 -2.165503,-3.30259 62.500612,62.500612 0 0 1 -4.005721,2.404143 2.025588,2.025588 0 1 0 2.025588,3.507847 m 4.145636,-2.6094 c 1.340212,-0.880691 2.654146,-1.803996 3.93896,-2.764234 A 1.9695564,1.9695564 0 0 0 68.8471,9.6458059 75.284826,75.284826 0 0 1 65.098484,12.26515 a 1.9744512,1.9744512 0 0 0 2.161242,3.304721 c 0,-7.1e-4 0,-0.0021 0.007,-0.0028 z m 3.93896,-2.764238 A 161.93341,161.93341 0 0 0 74.842889,10.002341 1.9432009,1.9432009 0 0 0 72.462192,6.9305769 541.19847,541.19847 0 0 1 68.8471,9.6458014 1.9695618,1.9695618 0 0 0 71.200106,12.804924 v -0.0021 z m 3.639942,-2.800451 A 158.38224,158.38224 0 0 1 77.842921,7.6741933 1.9247349,1.9247349 0 0 0 75.524718,4.60243 c 0,0.00213 -0.0073,0.00355 -0.0085,0.00711 a 1110.0961,1110.0961 0 0 1 -3.054021,2.3217492 1.9432009,1.9432009 0 1 0 2.3807,3.0710528 z m 3.000029,-2.3281487 a 76.705296,76.705296 0 0 0 2.400591,-1.8792844 1.9282859,1.9282859 0 0 0 -2.443202,-2.9836938 84.517876,84.517876 0 0 1 -2.284119,1.7976027 1.9247349,1.9247349 0 0 0 2.32673,3.0653713 M 80.243512,5.794909 C 80.87491,5.2785688 81.491393,4.7402113 82.053899,4.1492963 A 1.8792798,1.8792798 0 0 0 79.479303,1.4177355 Q 78.645482,2.1208675 77.80031,2.8112151 A 1.9282859,1.9282859 0 0 0 80.243512,5.794909 Z M 82.053899,4.1492963 C 82.366404,3.8218783 82.695951,3.495881 82.963,3.1301103 A 1.8132281,1.8132281 0 0 0 80.216523,0.77923496 C 79.99848,0.99727694 79.722915,1.2124778 79.480007,1.4184456 a 1.8792798,1.8792798 0 1 0 2.573884,2.7308507 M 82.963,3.1294 q 0.09016,-0.1214502 0.178266,-0.2429004 a 1.7897902,1.7897902 0 0 0 -2.71167,-2.3210451 l -0.213071,0.21307017 a 1.8110972,1.8110972 0 0 0 0.0073,2.56465573 1.8132281,1.8132281 0 0 0 2.743636,-0.2130697 z M 80.683142,3.3048283 A 1.7897902,1.7897902 0 0 0 82.887713,0.49301051 L 82.713,0.34812276 A 1.7928571,1.7928571 0 1 0 80.5894,3.2373556 Z m 1.159106,0.3110825 q 0.181113,-0.058235 0.363637,-0.1186089 A 1.7926312,1.7926312 0 0 0 81.401198,0.01715367 L 81.022636,0.07113146 A 1.8260121,1.8260121 0 1 0 81.842248,3.6159104 M 81.63131,3.8375039 c 0.110798,-0.094461 0.223007,-0.1882124 0.343749,-0.2698894 A 1.8260121,1.8260121 0 0 0 81.022641,0.07113146 C 80.355019,0.16488232 79.774049,0.55338047 79.25842,0.96602647 a 1.8629444,1.8629444 0 1 0 2.37289,2.87147743 z m -2.296897,2.4318416 c 0.5064,-0.5625055 1.014926,-1.1235906 1.536234,-1.6726016 0.245032,-0.2585251 0.489354,-0.5277037 0.75995,-0.7599505 A 1.8629444,1.8629444 0 0 0 79.25842,0.96531618 C 78.876311,1.2714274 78.526877,1.6215732 78.17886,1.9667466 77.617772,2.5249907 77.068762,3.096019 76.523307,3.6713088 a 1.9141652,1.9141652 0 1 0 2.811814,2.5980367 z M 76.20015,10.012279 c 0.987223,-1.2940459 2.046892,-2.532694 3.134263,-3.7429335 a 1.9147913,1.9147913 0 0 0 -2.811106,-2.598747 c -1.20172,1.264217 -2.365792,2.5674967 -3.437533,3.9439307 a 1.9659283,1.9659283 0 0 0 3.102303,2.4147958 c 0.0073,-0.0064 0.0085,-0.01068 0.01204,-0.01634 z m -3.041932,4.100893 a 230.82612,230.82612 0 0 1 3.041932,-4.100182 1.9654494,1.9654494 0 0 0 -3.114376,-2.3984608 161.22316,161.22316 0 0 0 -3.125028,4.1726258 1.9770056,1.9770056 0 0 0 3.197472,2.326017 m -3.760689,5.192522 q 1.87502,-2.600167 3.760689,-5.191811 a 1.9772147,1.9772147 0 0 0 -3.197472,-2.326728 302.55978,302.55978 0 0 0 -3.740805,5.268519 1.9467707,1.9467707 0 0 0 3.177588,2.25002 m -4.586692,6.465263 a 566.76691,566.76691 0 0 1 4.586692,-6.465263 1.9467521,1.9467521 0 0 0 -3.157701,-2.277721 l -0.01916,0.02839 c -1.53199,2.201759 -2.98655,4.457465 -4.405599,6.733763 a 1.7968925,1.7968925 0 0 0 2.996481,1.980842 z m -9.01216,12.640748 c 3.018493,-4.203164 6.044092,-8.402069 9.012871,-12.640748 a 1.7968925,1.7968925 0 1 0 -2.997189,-1.981553 c -2.72872,4.379302 -5.532725,8.711731 -8.327496,13.049131 a 1.3991614,1.3991614 0 0 0 2.311814,1.57317 z m -9.495123,13.212486 c 3.168355,-4.402031 6.331739,-8.806901 9.495832,-13.212486 a 1.3991614,1.3991614 0 1 0 -2.312523,-1.57317 c -2.936818,4.556864 -5.872217,9.114436 -8.832473,13.655674 a 1.0000097,1.0000097 0 0 0 1.649164,1.129982 z m -5.952474,8.343123 q 2.958126,-4.184698 5.952474,-8.343123 a 1.0000097,1.0000097 0 1 0 -1.649164,-1.12927 261.36621,261.36621 0 0 1 -5.742243,8.453917 0.88087172,0.88087172 0 1 0 1.437512,1.018476 z m -5.117947,7.516408 a 232.95682,232.95682 0 0 1 5.117947,-7.516408 0.88145129,0.88145129 0 0 0 -1.438933,-1.018476 c -1.761382,2.4844 -3.515659,4.974481 -5.255735,7.474504 a 0.95004352,0.95004352 0 1 0 1.559676,1.085238 q 0.0099,-0.01277 0.01707,-0.02482 z m -4.286975,6.539125 q 2.156982,-3.259972 4.286975,-6.539125 a 0.9502933,0.9502933 0 0 0 -1.576721,-1.06038 184.66091,184.66091 0 0 1 -4.561833,6.284863 1.1363747,1.1363747 0 1 0 1.851579,1.314642 z m -4.85232,7.929766 c 1.555415,-2.679005 3.142076,-5.345222 4.85232,-7.929766 a 1.1363747,1.1363747 0 0 0 -1.851579,-1.314642 c -1.885673,2.478715 -3.81751,4.92334 -5.760001,7.358029 a 1.6754423,1.6754423 0 1 0 2.75926,1.886379 m -3.688246,6.335285 c 1.236516,-2.107974 2.460961,-4.22234 3.688246,-6.335285 a 1.6754423,1.6754423 0 0 0 -2.758549,-1.885671 527.70403,527.70403 0 0 1 -2.916932,3.63214 c -0.541908,0.667618 -1.081686,1.335947 -1.644192,1.986522 a 2.2429197,2.2429197 0 1 0 3.631427,2.601581 m -1.431122,2.338104 a 56.818738,56.818738 0 0 0 1.431122,-2.338807 2.2429197,2.2429197 0 0 0 -3.631427,-2.601591 c -0.63992,0.740773 -1.267057,1.502854 -1.803995,2.323895 a 2.3916791,2.3916791 0 0 0 4.0043,2.616503 m -0.575285,0.879991 0.575285,-0.880705 a 2.3914869,2.3914869 0 0 0 -4.0043,-2.615789 l -0.575286,0.880685 a 2.3914874,2.3914874 0 0 0 4.004301,2.6158 m -0.287649,0.358694 c 0.125005,-0.127831 0.235801,-0.269917 0.330976,-0.42048 a 2.3878075,2.3878075 0 0 0 -3.348761,-3.256431 q -0.22443,0.149859 -0.41194,0.342327 a 2.3920254,2.3920254 0 1 0 3.430431,3.334548 z m 0.262793,-0.317449 1.001429,-1.421903 a 2.3153636,2.3153636 0 0 0 -3.666945,-2.82039 l -1.117197,1.333832 a 2.3878075,2.3878075 0 1 0 3.782708,2.908406 z m 1.001423,-1.421955 c 0.740066,-1.049723 1.436094,-2.130696 2.108686,-3.224449 a 1.9716102,1.9716102 0 0 0 -3.03128,-2.468068 c -0.964498,0.907676 -1.893484,1.856548 -2.744345,2.872179 a 2.3153636,2.3153636 0 1 0 3.66765,2.820338 m 2.066781,-3.157693 c 0.424721,-0.634238 0.899868,-1.237226 1.368622,-1.83951 0.774156,-0.995038 1.564646,-1.977293 2.359399,-2.956702 2.684685,-3.309696 5.419798,-6.5789 8.16059,-9.843134 a 1.0198964,1.0198964 0 0 0 -1.503566,-1.374305 c -4.481578,4.506432 -8.980201,8.996538 -13.430528,13.534216 a 1.9716102,1.9716102 0 1 0 3.044774,2.478731"
     style="fill:#1e1b1b;fill-opacity:1;fill-rule:nonzero;stroke:none;stroke-width:0.946975"
     id="path1" /><path
     d="m 99.61729,13.390153 c 0.143445,-0.311793 0.28981,-0.623585 0.46026,-0.921884 v 0.0021 a 1.143477,1.143477 0 0 0 0.52697,-1.527713 c 0,-0.0056 -0.008,-0.01205 -0.009,-0.01843 a 1.2784216,1.2784216 0 0 0 -1.62076,-0.594465 c -0.276305,0.112931 -0.504247,0.312503 -0.693864,0.538358 -0.362902,0.431821 -0.63136,0.94603 -0.886403,1.446034 a 1.2347108,1.2347108 0 1 0 2.222312,1.076716 z m -1.875033,3.956006 a 193.18371,193.18371 0 0 0 1.875033,-3.956006 1.2345625,1.2345625 0 0 0 -2.222339,-1.076005 58.949442,58.949442 0 0 1 -2.08312,3.708845 1.3849569,1.3849569 0 1 0 2.429732,1.323166 z m -2.718054,5.449626 a 379.97532,379.97532 0 0 0 2.718054,-5.449626 1.3849569,1.3849569 0 0 0 -2.430426,-1.323166 c -1.065344,1.760669 -2.024153,3.586681 -2.953142,5.421926 a 1.4943328,1.4943328 0 1 0 2.665514,1.350866 m -5.756446,10.877238 c 1.946032,-3.610121 3.902729,-7.218111 5.756446,-10.877238 a 1.4943328,1.4943328 0 1 0 -2.665514,-1.350866 c -1.846605,3.643501 -3.735845,7.264988 -5.621507,10.887891 a 1.4318322,1.4318322 0 0 0 2.530575,1.340213 m -6.308309,11.103092 c 0.938933,-1.487231 1.821041,-3.009974 2.688948,-4.538398 a 336.65102,336.65102 0 0 0 3.619361,-6.564694 1.4318322,1.4318322 0 1 0 -2.520634,-1.358678 c -0.0077,0.007 -0.0077,0.01277 -0.0099,0.01843 -1.947444,3.742972 -3.893487,7.488035 -5.905582,11.196168 a 1.2336769,1.2336769 0 0 0 2.127152,1.247172 z m -4.270641,7.105182 a 191.05301,191.05301 0 0 1 4.270641,-7.105182 1.2336769,1.2336769 0 1 0 -2.127148,-1.247172 364.35016,364.35016 0 0 1 -4.049047,7.261434 1.0980221,1.0980221 0 1 0 1.905554,1.09092 m -4.12788,7.239417 q 2.05755,-3.623614 4.12788,-7.239417 a 1.0981765,1.0981765 0 0 0 -1.906263,-1.09092 453.12943,453.12943 0 0 1 -4.196062,7.180469 1.1428301,1.1428301 0 1 0 1.962371,1.171887 c 0.0073,-0.0085 0.0085,-0.01489 0.01278,-0.02199 z m -3.811112,6.936149 a 274.1504,274.1504 0 0 1 3.811112,-6.936149 1.143477,1.143477 0 0 0 -1.974445,-1.150579 q -2.040503,3.416227 -4.06041,6.843106 a 1.2741602,1.2741602 0 1 0 2.223033,1.243622 z m -3.334548,6.377192 a 580.9716,580.9716 0 0 1 3.334548,-6.377192 1.2741602,1.2741602 0 0 0 -2.223743,-1.243622 849.44005,849.44005 0 0 0 -3.643501,6.2387 1.4432115,1.4432115 0 0 0 2.499314,1.443905 z m -2.531985,5.634993 c 0.731541,-1.926148 1.589502,-3.8033 2.531985,-5.634993 a 1.4431961,1.4431961 0 0 0 -2.531985,-1.382114 385.65718,385.65718 0 0 1 -3.211681,5.458856 1.791921,1.791921 0 1 0 3.211681,1.558251 m -1.933257,5.156306 a 579.55113,579.55113 0 0 1 1.933257,-5.156306 1.791921,1.791921 0 0 0 -3.211681,-1.558251 137.78542,137.78542 0 0 0 -2.796192,4.862261 2.2443402,2.2443402 0 1 0 4.074616,1.852296 m -1.695329,4.311834 a 98.01232,98.01232 0 0 0 1.695329,-4.31113 2.2436299,2.2436299 0 0 0 -4.074616,-1.853 238.6387,238.6387 0 0 1 -2.176156,3.909136 2.5461897,2.5461897 0 1 0 4.555443,2.254994 m -1.391351,3.306849 a 585.94323,585.94323 0 0 1 1.392059,-3.306849 2.5461897,2.5461897 0 0 0 -4.556151,-2.254994 569.60784,569.60784 0 0 0 -1.785531,3.149879 2.7578395,2.7578395 0 1 0 4.950333,2.411964 m -1.221602,2.631403 c 0.459517,-0.850815 0.850149,-1.738649 1.221602,-2.631403 a 2.7578395,2.7578395 0 0 0 -4.949622,-2.411964 c -0.435374,0.774157 -0.868616,1.548304 -1.290495,2.32957 a 2.8523281,2.8523281 0 1 0 5.017804,2.713797 z M 57.4798,95.247479 c 0.46804,-0.529798 0.827419,-1.152698 1.162653,-1.772039 a 2.8524716,2.8524716 0 0 0 -5.018515,-2.713085 c -0.180401,0.332385 -0.356541,0.677571 -0.575286,0.987931 a 2.8267321,2.8267321 0 0 0 4.431151,3.497193 m -2.252151,1.299746 c 0.900572,-0.115084 1.661946,-0.632097 2.25144,-1.299746 a 2.8267321,2.8267321 0 0 0 -4.20814,-3.773471 l -0.298298,0.310342 a 2.7706236,2.7706236 0 0 0 2.254993,4.763579 m -2.94392,-1.311099 c 0.691054,0.909844 1.78695,1.460246 2.94392,1.311801 a 2.7706236,2.7706236 0 0 0 -0.11719,-5.508572 v -0.0035 a 2.674742,2.674742 0 0 0 -2.827441,4.199618 z m -1.315354,-2.283395 c 0.242898,0.456707 0.487932,0.913358 0.742191,1.364361 0.177555,0.3139 0.355117,0.63135 0.573161,0.918331 a 2.674742,2.674742 0 1 0 4.044786,-3.485129 c -0.09802,-0.100822 -0.168331,-0.169725 -0.245747,-0.281233 a 10.653513,10.653513 0 0 1 -0.184657,-0.276293 24.858197,24.858197 0 0 1 -0.470884,-0.759956 2.5618148,2.5618148 0 0 0 -4.45885,2.519919 z m -1.507117,-3.186113 c 0.435372,1.091619 0.955264,2.149158 1.507117,3.186113 a 2.5618148,2.5618148 0 1 0 4.45885,-2.519215 54.688037,54.688037 0 0 1 -1.534106,-2.705267 2.4424956,2.4424956 0 0 0 -4.431861,2.038369 z m -1.079557,-2.765658 q 0.531255,1.386374 1.079557,2.765658 a 2.4432056,2.4432056 0 1 0 4.431861,-2.038369 31.96054,31.96054 0 0 1 -1.154131,-2.473752 2.3473241,2.3473241 0 0 0 -4.356576,1.746463 m -1.167625,-3.428296 a 53.267567,53.267567 0 0 0 1.168334,3.428296 2.3473241,2.3473241 0 1 0 4.355867,-1.746463 34.091244,34.091244 0 0 1 -1.091631,-3.049748 2.319625,2.319625 0 0 0 -4.43257,1.367915 z m -1.66905,-6.324635 c 0.5206,2.115789 1.029838,4.241523 1.66905,6.324635 a 2.319625,2.319625 0 1 0 4.435412,-1.35939 v -0.0085 c -0.620035,-1.995751 -1.108675,-4.036255 -1.610102,-6.063976 a 2.3129097,2.3129097 0 0 0 -4.491521,1.106542 z m -1.662659,-6.931887 c 0.532672,2.315365 1.095892,4.623627 1.663369,6.931887 a 2.3129951,2.3129951 0 1 0 4.49152,-1.107256 c -0.576709,-2.335964 -1.169046,-4.673341 -1.87786,-6.973078 a 2.2159308,2.2159308 0 0 0 -4.27632,1.148447 z m -1.390638,-4.838824 a 47.585692,47.585692 0 0 1 1.390638,4.838824 2.2159308,2.2159308 0 1 0 4.275609,-1.148447 52.557332,52.557332 0 0 0 -1.886381,-5.144227 2.025588,2.025588 0 0 0 -3.779866,1.45385 M 40.393695,60.74431 a 31.250306,31.250306 0 0 1 2.098743,4.733712 2.025588,2.025588 0 1 0 3.779866,-1.45385 35.795804,35.795804 0 0 0 -2.716646,-5.139965 1.8352452,1.8352452 0 0 0 -3.161963,1.860813 z m -2.829574,-4.06254 c 1.105836,1.230837 2.039794,2.610111 2.829574,4.06254 a 1.8352452,1.8352452 0 1 0 3.161963,-1.860103 c -1.024869,-1.613652 -2.195335,-3.139235 -3.533417,-4.507146 a 1.6846756,1.6846756 0 0 0 -2.45741,2.304709 z m -3.590234,-3.203157 a 22.230331,22.230331 0 0 1 3.590234,3.203157 1.6853857,1.6853857 0 1 0 2.457412,-2.304709 29.829838,29.829838 0 0 0 -4.176178,-3.536967 1.6179135,1.6179135 0 0 0 -1.871468,2.638519 M 29.506515,50.79464 a 33.381009,33.381009 0 0 1 4.467372,2.684685 1.6181554,1.6181554 0 0 0 1.884962,-2.630707 c -0.007,-0.0028 -0.0085,-0.0056 -0.01277,-0.0092 -1.575307,-1.105852 -3.267085,-2.04123 -5.025625,-2.821067 a 1.5362367,1.5362367 0 0 0 -1.313932,2.776305 z m -4.595217,-1.883541 c 1.585244,0.484383 3.115799,1.139215 4.595217,1.883541 a 1.5362367,1.5362367 0 1 0 1.313933,-2.776305 c -1.666919,-0.738645 -3.385687,-1.371464 -5.15559,-1.816071 a 1.4062638,1.4062638 0 0 0 -0.754273,2.708123 z m -4.204586,-0.952425 c 1.42473,0.199572 2.828864,0.53197 4.204586,0.951713 a 1.4062638,1.4062638 0 0 0 0.821745,-2.689657 l -0.06816,-0.01844 a 57.528973,57.528973 0 0 0 -4.540548,-0.958852 1.373593,1.373593 0 1 0 -0.453129,2.709544 z m -3.951033,-0.264207 c 1.321035,-0.01278 2.642782,0.08094 3.951033,0.264206 a 1.373593,1.373593 0 0 0 0.416907,-2.715224 41.193585,41.193585 0 0 0 -4.294076,-0.490772 1.4723157,1.4723157 0 1 0 -0.07387,2.94179 z m -3.430432,0.345172 c 1.126432,-0.238637 2.280562,-0.334523 3.430432,-0.34517 a 1.4723157,1.4723157 0 0 0 0.07382,-2.941792 66.051784,66.051784 0 0 0 -3.860124,-0.125706 1.7251589,1.7251589 0 1 0 0.356539,3.412674 m -2.825271,1.003557 a 11.576817,11.576817 0 0 1 2.826024,-1.003563 1.7251589,1.7251589 0 0 0 -0.356539,-3.412674 12.073982,12.073982 0 0 0 -4.060409,0.708814 2.0213266,2.0213266 0 1 0 1.590924,3.707423 M 7.9402427,50.813816 A 11.931934,11.931934 0 0 1 10.500637,49.043202 2.0213266,2.0213266 0 0 0 8.9097117,45.335779 c -1.366488,0.48651 -2.6427786,1.205978 -3.7890968,2.092351 a 2.204567,2.204567 0 1 0 2.8196303,3.385686 M 6.1348366,52.95091 c 0.4751466,-0.808246 1.110096,-1.512798 1.8054158,-2.137094 A 2.204567,2.204567 0 0 0 5.1206222,47.42813 C 4.0112364,48.286092 3.0027037,49.284681 2.2036903,50.440942 A 2.3338295,2.3338295 0 1 0 6.1348366,52.95091 M 5.2427825,55.129909 C 5.4210512,54.361435 5.7356851,53.629895 6.1348366,52.95091 A 2.3331195,2.3331195 0 0 0 2.2036903,50.440942 c -0.7258594,1.049727 -1.30612089,2.201726 -1.67828359,3.42475 A 2.4432056,2.4432056 0 1 0 5.2427825,55.129909 Z M 0.00125387,57.571694 A 2.5115827,2.5115827 0 1 0 5.0240303,57.5092 l -7.102e-4,-0.05685 c -0.026992,-0.77984 0.044037,-1.561803 0.2201727,-2.322464 A 2.4432056,2.4432056 0 0 0 0.52611691,53.8657 12.21603,12.21603 0 0 0 0.00196407,57.571701 Z m 0,0 c 0.01775587,1.406264 0.37926508,2.793352 1.07671503,4.015664 A 2.535536,2.535536 0 0 0 5.4814211,59.07597 c -0.00711,-0.0064 -0.00711,-0.01277 -0.010658,-0.01916 A 3.4091244,3.4091244 0 0 1 5.0218995,57.453084 2.5113882,2.5113882 0 0 0 5.4354097e-4,57.571693 Z m 1.07671503,4.015664 c 0.6484441,1.137085 1.4779976,2.164794 2.3863871,3.103724 a 2.5497408,2.5497408 0 1 0 3.6662292,-3.542649 q -0.00923,-0.0085 -0.016334,-0.01707 C 6.4963459,60.502831 5.9153743,59.821005 5.4707677,59.057505 a 2.534826,2.534826 0 0 0 -4.3927988,2.529853 z m 2.3863871,3.103724 c 1.1065448,1.145607 2.3934893,2.108685 3.7429343,2.948892 A 2.5576877,2.5576877 0 1 0 9.9111519,63.297603 C 8.9104315,62.674728 7.9430928,61.973726 7.1142497,61.131388 a 2.5497408,2.5497408 0 0 0 -3.650604,3.560405 z m 3.7429343,2.948892 c 1.5887946,0.990065 3.3217647,1.735102 5.1080027,2.289085 a 2.5312748,2.5312748 0 0 0 1.546892,-4.820358 C 12.48504,64.65131 11.144117,64.065365 9.9111519,63.297603 a 2.5578753,2.5578753 0 1 0 -2.7045717,4.342371 m 5.1080048,2.289085 c 1.982973,0.615062 4.027027,1.022738 6.083866,1.298309 a 2.4162168,2.4162168 0 0 0 0.776995,-4.767802 C 17.379975,66.1151 15.597288,65.68541 13.861474,65.108701 a 2.5313086,2.5313086 0 0 0 -1.595184,4.804734 z m 6.083866,1.298309 c 2.409115,0.323864 4.842376,0.452417 7.272088,0.470175 a 2.1363846,2.1363846 0 0 0 0.242192,-4.261406 c -2.256415,-0.241479 -4.507858,-0.549011 -6.737283,-0.976571 a 2.4162168,2.4162168 0 1 0 -0.776995,4.767802 m 7.272088,0.470175 c 2.697471,0.01843 5.394939,-0.09659 8.082465,-0.323866 a 1.7841085,1.7841085 0 0 0 -0.159803,-3.561115 c -2.563945,0.0135 -5.130024,-0.102984 -7.680472,-0.376425 a 2.1363846,2.1363846 0 1 0 -0.242188,4.261406 m 8.082464,-0.323866 c 2.969488,-0.251424 5.92122,-0.69106 8.846675,-1.253565 a 1.458821,1.458821 0 0 0 -0.450289,-2.88142 c -2.838805,0.343046 -5.696078,0.558952 -8.55619,0.573872 a 1.7833983,1.7833983 0 1 0 0.159804,3.561113 z m 8.846675,-1.253565 a 315.344,315.344 0 0 0 9.687595,-2.027008 1.1250111,1.1250111 0 0 0 -0.420458,-2.208829 281.25275,281.25275 0 0 1 -9.717426,1.354417 1.458821,1.458821 0 1 0 0.450289,2.88142 m 9.687595,-2.027008 q 4.735841,-1.065351 9.470263,-2.127862 a 0.9115897,0.9115897 0 0 0 -0.382106,-1.782687 207.38838,207.38838 0 0 1 -9.508615,1.701009 1.1250111,1.1250111 0 1 0 0.421168,2.208829 m 9.470265,-2.127862 a 5182.5792,5182.5792 0 0 0 8.892132,-2.004281 0.86790626,0.86790626 0 1 0 -0.383528,-1.692487 q -4.435413,1.002849 -8.89071,1.91408 a 0.91158213,0.91158213 0 0 0 0.365063,1.786241 q 0.0099,-0.0014 0.01707,-0.0036 z m 8.892132,-2.004281 q 4.481572,-1.012793 8.968123,-2.009961 a 0.87855979,0.87855979 0 1 0 -0.380688,-1.714507 h -0.0073 q -4.482997,1.019187 -8.96599,2.031271 a 0.86796737,0.86796737 0 0 0 0.382813,1.693197 z m 8.968123,-2.009961 q 4.165524,-0.921885 8.323952,-1.882833 a 0.9318274,0.9318274 0 1 0 -0.420463,-1.815358 l -0.01921,0.0049 a 328.83844,328.83844 0 0 1 -8.269285,1.979423 0.87859454,0.87859454 0 0 0 0.384945,1.714506 z m 8.323952,-1.882833 a 105.11465,105.11465 0 0 0 7.610154,-2.06536 0.9801232,0.9801232 0 1 0 -0.583115,-1.870758 v 7.12e-4 a 137.78542,137.78542 0 0 1 -7.464553,2.12431 0.93193127,0.93193127 0 0 0 0.440356,1.811096 z m 7.610154,-2.06536 a 182.5302,182.5302 0 0 0 7.274917,-2.433262 1.0043142,1.0043142 0 1 0 -0.67826,-1.890643 l -0.009,0.0036 a 154.83107,154.83107 0 0 1 -7.173375,2.450308 0.9801232,0.9801232 0 0 0 0.586655,1.870048 z m 7.274917,-2.433262 a 515.63004,515.63004 0 0 0 6.16982,-2.251443 1.0726676,1.0726676 0 1 0 -0.74998,-2.009963 l -0.0355,0.0135 a 173.29716,173.29716 0 0 1 -6.07251,2.360109 1.0047936,1.0047936 0 0 0 0.68894,1.887803 m 6.16987,-2.251457 a 1417.6275,1417.6275 0 0 1 4.59096,-1.705983 1.1470281,1.1470281 0 1 0 -0.79405,-2.15201 l -0.0255,0.01 a 341.62266,341.62266 0 0 0 -4.55615,1.85158 1.0724537,1.0724537 0 0 0 0.78483,1.995759 m 4.59097,-1.705983 c 0.99859,-0.369325 2.00429,-0.730119 3.03057,-1.016345 a 1.193426,1.193426 0 1 0 -0.68329,-2.286958 c -1.07102,0.340911 -2.12218,0.747165 -3.16764,1.161233 a 1.1470281,1.1470281 0 0 0 0.82034,2.142065 z m 3.03057,-1.016345 q 0.43116,-0.122156 0.86433,-0.234377 c 0.125,-0.03193 0.25357,-0.07318 0.38205,-0.08951 a 1.2173416,1.2173416 0 0 0 -0.31609,-2.413376 c -0.21808,0.02838 -0.43253,0.09233 -0.6435,0.152698 -0.3253,0.09376 -0.64778,0.195311 -0.97017,0.298296 a 1.1931934,1.1931934 0 0 0 0.68328,2.286244 m 1.2287,-0.321739 0.28625,-0.0334 a 1.2194721,1.2194721 0 0 0 -0.28125,-2.4219 q -0.0101,0 -0.0174,0.0021 l -0.28553,0.03768 a 1.2166312,1.2166312 0 0 0 0.2983,2.414797 m 0.71949,-0.125715 q 0.10512,-0.07101 0.2024,-0.152699 c 0.39704,-0.338784 0.56822,-0.889214 0.37924,-1.392059 a 1.225154,1.225154 0 0 0 -1.314,-0.782011 v -7.11e-4 a 1.2073982,1.2073982 0 0 0 -0.61503,0.266341 1.2315462,1.2315462 0 1 0 1.34733,2.061098 z m -0.88566,0.615061 0.88566,-0.615061 a 1.2315462,1.2315462 0 0 0 -1.28876,-2.095184 l -0.94815,0.514212 a 1.2912058,1.2912058 0 1 0 1.35086,2.196044 m -1.66691,1.223021 a 46.875459,46.875459 0 0 1 1.66691,-1.223023 1.2912058,1.2912058 0 0 0 -1.35086,-2.196044 41.193585,41.193585 0 0 0 -1.89845,1.106544 1.4027126,1.4027126 0 1 0 1.5824,2.312523 m -2.19535,1.799733 a 44.744757,44.744757 0 0 1 2.19463,-1.799733 1.4027126,1.4027126 0 0 0 -1.58168,-2.312523 122.87052,122.87052 0 0 0 -2.50998,1.584533 1.5838224,1.5838224 0 1 0 1.89703,2.528433 m -2.82957,2.429712 a 458.10109,458.10109 0 0 0 2.82957,-2.429001 1.5838224,1.5838224 0 0 0 -1.89632,-2.528434 63.210846,63.210846 0 0 0 -3.13639,2.176158 1.7755856,1.7755856 0 1 0 2.20314,2.781277 m -3.05401,2.709543 q 1.50072,-1.384956 3.05401,-2.709543 a 1.7755856,1.7755856 0 0 0 -2.20244,-2.781277 100.14303,100.14303 0 0 0 -3.35657,2.58028 1.9211835,1.9211835 0 1 0 2.505,2.91054 m -3.13497,2.943921 q 1.55469,-1.4851 3.13497,-2.943921 a 1.9211835,1.9211835 0 0 0 -2.505,-2.91054 77.415527,77.415527 0 0 0 -3.38497,2.883552 2.0262982,2.0262982 0 1 0 2.75571,2.970909 m -2.99293,3.21239 a 39.062882,39.062882 0 0 1 2.99293,-3.21239 2.0262982,2.0262982 0 0 0 -2.755,-2.970909 50.42663,50.42663 0 0 0 -3.416938,3.403442 2.1122366,2.1122366 0 1 0 3.179008,2.779857 m -2.634961,3.495062 a 41.903819,41.903819 0 0 1 2.634961,-3.495062 2.1122366,2.1122366 0 0 0 -3.179719,-2.779857 49.00616,49.00616 0 0 0 -3.079561,3.703871 2.2230331,2.2230331 0 1 0 3.623609,2.571048 z m -2.092358,3.403442 a 46.875459,46.875459 0 0 1 2.091648,-3.403442 2.2230331,2.2230331 0 0 0 -3.623609,-2.571048 40.483351,40.483351 0 0 0 -2.470192,3.686826 2.3054203,2.3054203 0 1 0 4.002153,2.286955 z m -1.379983,2.985828 c 0.372126,-1.032687 0.848725,-2.0263 1.379983,-2.985828 a 2.3054203,2.3054203 0 0 0 -4.002153,-2.286954 31.96054,31.96054 0 0 0 -1.81039,3.518497 2.3849664,2.3849664 0 1 0 4.431847,1.754285 z m -0.504239,2.159107 c 0.04289,-0.738643 0.254944,-1.466629 0.504239,-2.159107 A 2.3849664,2.3849664 0 0 0 91.27,73.210276 c -0.494309,1.141349 -0.86507,2.354433 -0.951715,3.600178 a 2.4446262,2.4446262 0 1 0 4.877189,0.34092 v -0.02701 z m -4.39424,3.028442 a 2.4519224,2.4519224 0 1 0 4.549766,-1.829563 C 95.201142,77.944698 95.173456,77.52708 95.196889,77.124384 a 2.4447003,2.4447003 0 0 0 -4.879307,-0.31393 c -0.07951,1.132828 0.0604,2.284119 0.485797,3.341656 m 0,0 a 7.3864361,7.3864361 0 0 0 1.677581,2.535535 2.4509474,2.4509474 0 0 0 3.426876,-3.505005 C 95.66068,78.94117 95.481739,78.641452 95.353907,78.32327 a 2.4521205,2.4521205 0 0 0 -4.550479,1.828854 z m 1.677581,2.535535 c 0.698884,0.68182 1.529834,1.223733 2.44249,1.572462 a 2.4432056,2.4432056 0 0 0 1.779128,-4.549765 2.4147962,2.4147962 0 0 1 -0.795417,-0.527699 2.4509262,2.4509262 0 1 0 -3.429723,3.502164 c 0,7.15e-4 0,0.0025 0.0082,0.0032 z m 2.44249,1.572462 c 0.78265,0.299721 1.602277,0.502134 2.433966,0.604407 a 2.4275806,2.4275806 0 0 0 0.637782,-4.812546 5.6818738,5.6818738 0 0 1 -1.29262,-0.341626 2.4432056,2.4432056 0 0 0 -1.812508,4.536982 q 0.01643,0.0073 0.03377,0.01273 z m 2.433966,0.604407 c 0.831022,0.102984 1.673319,0.113636 2.508547,0.05183 a 2.4010383,2.4010383 0 0 0 -0.277035,-4.794075 c -0.532634,0.02272 -1.066771,0.0044 -1.593775,-0.07026 a 2.4275806,2.4275806 0 0 0 -0.68036,4.806868 z m 2.508547,0.05183 c 1.073157,-0.07957 2.114367,-0.407672 3.065367,-0.906253 a 2.3672107,2.3672107 0 0 0 -2.14064,-4.221639 c -0.37504,0.183952 -0.78201,0.316765 -1.201723,0.333811 a 2.4010397,2.4010397 0 1 0 0.277035,4.794081 z m 3.065367,-0.906253 c 0.90913,-0.477283 1.76139,-1.056125 2.5675,-1.690366 a 2.3235645,2.3235645 0 0 0 -2.80756,-3.703156 c -0.60088,0.438922 -1.23154,0.843752 -1.90058,1.171883 a 2.3672107,2.3672107 0 1 0 2.14064,4.221639 z m 2.5675,-1.690366 c 0.92474,-0.728702 1.77417,-1.549726 2.56608,-2.419763 a 2.2613858,2.2613858 0 0 0 -3.27914,-3.112248 c -0.65272,0.658387 -1.34449,1.281975 -2.0945,1.828855 a 2.3238864,2.3238864 0 1 0 2.80756,3.703156 z m 2.56608,-2.419765 a 33.381009,33.381009 0 0 0 2.33951,-2.879289 2.2018053,2.2018053 0 0 0 -3.52986,-2.632838 25.213316,25.213316 0 0 1 -2.08879,2.399881 2.2606755,2.2606755 0 1 0 3.27914,3.112246 z m 2.33951,-2.879289 a 35.511711,35.511711 0 0 0 2.0753,-3.217357 2.1676349,2.1676349 0 0 0 -3.74789,-2.178292 27.699134,27.699134 0 0 1 -1.85727,2.762811 2.2018487,2.2018487 0 1 0 3.49505,2.679005 z m 2.0753,-3.217357 a 26.704807,26.704807 0 0 0 1.78269,-3.806859 2.1300058,2.1300058 0 0 0 -3.96311,-1.562514 24.858197,24.858197 0 0 1 -1.56747,3.191081 2.1676349,2.1676349 0 0 0 3.7344,2.201016 c 0.008,-0.0079 0.009,-0.0156 0.0127,-0.02272 z m 1.78269,-3.806859 a 20.880886,20.880886 0 0 0 1.13284,-4.355866 2.083995,2.083995 0 0 0 -4.11724,-0.648441 16.122316,16.122316 0 0 1 -0.97871,3.441796 2.1307027,2.1307027 0 0 0 3.94252,1.614362 z m 1.13284,-4.355866 c 0.20805,-1.409103 0.3231,-2.833125 0.33169,-4.257853 a 2.0262982,2.0262982 0 0 0 -4.05042,-0.104375 c -0.0565,1.24504 -0.19318,2.485819 -0.3984,3.714524 a 2.0839081,2.0839081 0 0 0 4.11084,0.686794 c 0,-0.01277 0.008,-0.02555 0.008,-0.03905 z m -4.01,-7.491552 c 0.25568,1.021318 0.33945,2.079568 0.29119,3.129293 a 2.0262982,2.0262982 0 1 0 4.04832,0.184663 v -0.0803 c 0.009,-1.441734 -0.17753,-2.885641 -0.59517,-4.267046 a 1.943911,1.943911 0 0 0 -3.74647,1.03339 z m -1.01498,-2.423998 c 0.48717,0.73438 0.80253,1.57246 1.01563,2.42403 a 1.943911,1.943911 0 1 0 3.74648,-1.033391 c -0.37503,-1.23867 -0.90346,-2.438964 -1.64277,-3.505026 a 1.8842515,1.8842515 0 0 0 -3.11863,2.114368 z m -1.53696,-1.782686 c 0.59451,0.51776 1.10229,1.12714 1.53696,1.782686 a 1.8842515,1.8842515 0 1 0 3.11934,-2.114387 c -0.63708,-0.919753 -1.38069,-1.767064 -2.23652,-2.489371 a 1.858683,1.858683 0 0 0 -2.41906,2.821761 z m -1.75001,-1.2145 a 9.0909979,9.0909979 0 0 1 1.75001,1.2145 1.858683,1.858683 0 1 0 2.44037,-2.803295 l -0.021,-0.01781 a 14.630826,14.630826 0 0 0 -2.41796,-1.674692 1.8608136,1.8608136 0 1 0 -1.75214,3.281283 z m -1.42475,-0.517764 c 0.50005,0.07884 0.97873,0.286225 1.42475,0.518475 a 1.8601033,1.8601033 0 0 0 1.75144,-3.281993 c -0.74004,-0.404833 -1.51279,-0.759238 -2.32247,-1.00001 a 1.9339679,1.9339679 0 1 0 -0.85377,3.763559 m -1.84307,-0.05402 c 0.61219,-0.03193 1.23581,-0.04189 1.84307,0.05402 a 1.9339679,1.9339679 0 0 0 0.85374,-3.764241 c -0.83386,-0.248583 -1.69818,-0.389209 -2.56112,-0.490059 a 2.1086854,2.1086854 0 1 0 -0.13495,4.200326 m -0.55891,0.0469 q 0.27841,-0.03412 0.55964,-0.0469 a 2.1086854,2.1086854 0 0 0 0.13495,-4.200326 c -1.04406,-0.120742 -2.21168,-0.23225 -3.11723,0.416192 a 2.2727495,2.2727495 0 0 0 2.42402,3.834554 v -0.0036 z m -1.64915,0.805409 a 2.3241091,2.3241091 0 0 0 2.61364,-3.843789 l -0.0885,-0.0604 0.008,-0.0021 a 2.2727495,2.2727495 0 0 0 -3.30187,-0.730829 2.4290011,2.4290011 0 0 0 -0.965218,2.392068 c 0.0803,0.447444 0.284058,0.863646 0.566748,1.218052 0.32531,0.40838 0.74287,0.73438 1.17189,1.026288 z m 0,0 c 0.66265,0.44958 1.34375,0.873592 2.04902,1.253564 a 2.3324093,2.3324093 0 0 0 2.21236,-4.106574 l -0.0365,-0.01918 a 15.625153,15.625153 0 0 1 -1.61221,-0.971602 2.3239123,2.3239123 0 1 0 -2.61296,3.843789 m 2.04903,1.253563 c 0.70956,0.382109 1.4432,0.71947 2.18822,1.026998 a 2.3544265,2.3544265 0 0 0 1.79547,-4.353024 l -0.0493,-0.01989 a 17.755856,17.755856 0 0 1 -1.75798,-0.779884 2.3324093,2.3324093 0 0 0 -2.17616,4.125749 z m 2.18822,1.026998 c 0.91338,0.376425 1.86012,0.671884 2.81608,0.919044 a 2.3729116,2.3729116 0 1 0 1.1861,-4.595215 c -0.008,0 -0.0101,-0.0021 -0.0155,-0.0028 a 19.176325,19.176325 0 0 1 -2.24079,-0.693191 2.3544265,2.3544265 0 0 0 -1.74576,4.372912 z m 2.81608,0.919044 c 1.19036,0.307532 2.40984,0.492193 3.63143,0.614351 a 2.3782191,2.3782191 0 1 0 0.47158,-4.733003 c -0.9858,-0.09801 -1.9709,-0.239349 -2.93256,-0.480121 a 2.3726919,2.3726919 0 0 0 -1.17046,4.598768 m 3.63143,0.61435 c 1.37998,0.137075 2.76778,0.198861 4.15416,0.205257 a 2.368018,2.368018 0 0 0 0.0428,-4.735841 44.034523,44.034523 0 0 1 -3.72518,-0.20242 2.3782191,2.3782191 0 0 0 -0.47158,4.733001 m 4.15419,0.205257 c 1.62643,0.0064 3.25073,-0.148435 4.85514,-0.404128 a 2.3267273,2.3267273 0 0 0 -0.67257,-4.603694 c -1.37145,0.181816 -2.7557,0.291197 -4.14065,0.272017 a 2.3679208,2.3679208 0 1 0 -0.0639,4.735131 z m 4.85514,-0.404128 a 46.165224,46.165224 0 0 0 5.29551,-1.187513 2.2145103,2.2145103 0 0 0 -1.08312,-4.292655 58.239207,58.239207 0 0 1 -4.88499,0.87643 2.3267273,2.3267273 0 1 0 0.61294,4.612261 z m 5.29551,-1.187549 a 68.89272,68.89272 0 0 0 5.0803,-1.647744 2.0731738,2.0731738 0 0 0 -1.34234,-3.921202 57.528973,57.528973 0 0 1 -4.82108,1.276289 2.2145103,2.2145103 0 1 0 1.08312,4.292657 m 5.0803,-1.647744 q 2.26991,-0.840916 4.53485,-1.693199 a 2.015657,2.015657 0 0 0 -1.42047,-3.772763 l -0.008,0.0021 a 80.9667,80.9667 0 0 1 -4.45105,1.54263 2.0731738,2.0731738 0 1 0 1.34235,3.921201 z m 4.53485,-1.693199 a 323.86682,323.86682 0 0 1 4.29833,-1.584531 2.0383722,2.0383722 0 1 0 -1.38213,-3.835267 l -0.0337,0.01205 -4.309,1.637091 a 2.0156645,2.0156645 0 0 0 1.42616,3.770634 z m 4.29833,-1.584531 c 1.16763,-0.421166 2.34377,-0.822455 3.53697,-1.167627 a 2.1122366,2.1122366 0 1 0 -1.30753,-4.014242 257.1048,257.1048 0 0 0 -3.64494,1.358678 2.0384082,2.0384082 0 0 0 1.4155,3.823191 m 3.53697,-1.167627 q 1.40412,-0.408379 2.8175,-0.78694 a 2.1692468,2.1692468 0 1 0 -1.11861,-4.191801 l -0.0102,0.0028 c -1.01281,0.274863 -2.00998,0.603701 -2.99719,0.961658 a 2.1122366,2.1122366 0 0 0 1.30825,4.014242 z m 2.8175,-0.78694 a 71.733656,71.733656 0 0 1 2.34165,-0.585941 2.1733168,2.1733168 0 0 0 -0.978,-4.233706 q -1.25213,0.291197 -2.49222,0.629981 a 2.1695976,2.1695976 0 0 0 1.12927,4.189671 m 2.34165,-0.585946 c 0.55471,-0.127842 1.11791,-0.234377 1.68681,-0.280539 a 2.171186,2.171186 0 0 0 -0.33945,-4.328879 c -0.78338,0.0604 -1.5604,0.19887 -2.32532,0.375714 a 2.1733168,2.1733168 0 0 0 0.978,4.232995 m 0.54612,-0.500715 a 2.168345,2.168345 0 0 0 3.67689,-0.681821 c 0.15695,-0.434661 0.21379,-0.904124 0.13705,-1.360808 a 2.4432056,2.4432056 0 0 0 -0.89562,-1.510669 c -0.60298,-0.473724 -1.36933,-0.612935 -2.1172,-0.555403 a 2.171186,2.171186 0 0 0 -0.79972,4.109417 z m 2.5611,1.280552 c 0.44749,-0.603703 0.85867,-1.252144 1.11579,-1.962379 a 2.1678347,2.1678347 0 1 0 -4.07674,-1.475867 c 0,0.0028 0,0.0064 -0.008,0.0092 -0.0995,0.276989 -0.31672,0.530546 -0.49713,0.754975 a 2.1875215,2.1875215 0 1 0 3.46168,2.674742 z m -2.43821,3.700319 c 0.5192,-0.813933 1.04049,-1.625728 1.57174,-2.431133 0.28197,-0.426849 0.56182,-0.857247 0.86652,-1.269186 a 2.1875215,2.1875215 0 0 0 -3.46172,-2.674034 c -0.36646,0.453841 -0.71164,0.924725 -1.05824,1.39348 a 242.18987,242.18987 0 0 0 -1.73652,2.393489 2.3068407,2.3068407 0 1 0 3.81822,2.587384 m -3.28058,4.949622 c 1.13851,-1.619334 2.21593,-3.281284 3.28129,-4.950333 a 2.307551,2.307551 0 0 0 -3.81893,-2.586673 558.95434,558.95434 0 0 0 -3.39847,4.770645 2.4055632,2.4055632 0 0 0 3.93611,2.766361 m -2.93894,4.00217 a 127.13193,127.13193 0 0 0 2.93894,-4.00217 2.4055632,2.4055632 0 1 0 -3.93611,-2.766361 192.47349,192.47349 0 0 1 -2.81963,3.899895 2.3875256,2.3875256 0 0 0 3.8168,2.869347 m -3.11297,4.071772 q 1.55827,-2.033401 3.11297,-4.071772 a 2.3870972,2.3870972 0 0 0 -3.79621,-2.894916 l -0.02,0.02628 a 442.47593,442.47593 0 0 0 -3.0398,4.153449 2.3338295,2.3338295 0 0 0 3.74292,2.78696 z m -3.10159,4.007852 a 579.55113,579.55113 0 0 0 3.10159,-4.007852 2.3338295,2.3338295 0 1 0 -3.74292,-2.78696 193.89395,193.89395 0 0 1 -2.97447,4.00359 2.2841889,2.2841889 0 0 0 3.6165,2.791222 z m -3.0398,3.929726 a 548.30082,548.30082 0 0 1 3.0398,-3.929726 2.2841152,2.2841152 0 0 0 -3.60088,-2.811108 q -0.009,0.0099 -0.0155,0.0199 a 104.40444,104.40444 0 0 1 -3.04905,3.811829 2.3245966,2.3245966 0 1 0 3.62575,2.909113 z m -2.54619,3.359408 a 335.23055,335.23055 0 0 1 2.54619,-3.359408 2.3245966,2.3245966 0 0 0 -3.62574,-2.90912 100.85325,100.85325 0 0 1 -2.72021,3.128579 2.4680639,2.4680639 0 1 0 3.79976,3.139241 m -1.88638,2.585253 a 130.68309,130.68309 0 0 1 1.88638,-2.585253 2.4673537,2.4673537 0 0 0 -3.79976,-3.139241 45.45499,45.45499 0 0 0 -2.24079,2.63284 2.5902242,2.5902242 0 1 0 4.15488,3.092361 m -1.82672,2.744346 a 63.92108,63.92108 0 0 1 1.82672,-2.743638 2.5902242,2.5902242 0 0 0 -4.15417,-3.092354 c -0.75572,0.968046 -1.44532,1.987236 -2.1037,3.024172 a 2.6243155,2.6243155 0 0 0 4.43186,2.81182 m -1.27628,2.029846 c 0.41409,-0.683247 0.8487,-1.355124 1.27628,-2.029846 a 2.6243155,2.6243155 0 1 0 -4.43115,-2.812528 c -0.46027,0.725858 -0.93538,1.446035 -1.3594,2.193909 a 2.6172131,2.6172131 0 0 0 4.51427,2.648465 m -0.26992,0.44603 0.26992,-0.44603 a 2.6172131,2.6172131 0 1 0 -4.51427,-2.64917 l -0.25776,0.454554 a 2.6101109,2.6101109 0 0 0 4.50217,2.640654 m 0.0146,-0.02417 q 0.0784,-0.134944 0.14699,-0.276987 a 2.6051392,2.6051392 0 0 0 -4.43515,-2.685378 q -0.0937,0.124992 -0.17757,0.258518 a 2.6101109,2.6101109 0 1 0 4.43612,2.751451 z m 0.0758,-0.137783 0.92167,-1.670452 a 2.535536,2.535536 0 0 0 -4.34591,-2.609402 l -1.04121,1.599447 a 2.6051392,2.6051392 0 1 0 4.46453,2.680423 m 0.92259,-1.670468 a 401.28234,401.28234 0 0 1 1.68754,-3.027022 2.3665005,2.3665005 0 0 0 -3.96669,-2.566789 61.790378,61.790378 0 0 0 -2.06676,2.984409 2.535536,2.535536 0 1 0 4.34591,2.609402 m 1.68754,-3.027022 a 30.540073,30.540073 0 0 1 1.83523,-2.84662 2.2454728,2.2454728 0 0 0 -3.6222,-2.654856 622.16519,622.16519 0 0 0 -2.17972,2.934687 2.3665005,2.3665005 0 1 0 3.96669,2.566789 m 1.83523,-2.84662 a 58.949442,58.949442 0 0 1 2.35228,-3.048327 2.1910726,2.1910726 0 0 0 -3.33099,-2.845908 49.716395,49.716395 0 0 0 -2.64277,3.238672 2.2457606,2.2457606 0 0 0 3.59732,2.688231 z m 2.35228,-3.048327 a 62.500612,62.500612 0 0 1 2.80899,-3.168354 2.1271515,2.1271515 0 0 0 -3.05897,-2.955994 83.097401,83.097401 0 0 0 -3.0803,3.27844 2.1910726,2.1910726 0 1 0 3.33028,2.845908 z m 2.80899,-3.168354 a 110.79655,110.79655 0 0 1 3.68968,-3.705291 2.0383722,2.0383722 0 0 0 -2.76637,-2.992927 c -1.36294,1.208107 -2.70103,2.446755 -3.98228,3.742224 a 2.1271515,2.1271515 0 1 0 3.05897,2.955994 z m 3.68968,-3.705291 a 58.239207,58.239207 0 0 1 4.5043,-3.900608 1.8984561,1.8984561 0 0 0 -2.26566,-3.046194 57.528973,57.528973 0 0 0 -5.00501,3.953875 2.0383812,2.0383812 0 1 0 2.70457,3.050454 q 0.0328,-0.02838 0.062,-0.05685 m 4.50429,-3.900607 c 1.6094,-1.259245 3.26709,-2.45741 4.97165,-3.584552 a 1.7166361,1.7166361 0 0 0 -1.79477,-2.923325 66.051784,66.051784 0 0 0 -5.44182,3.461682 1.8984561,1.8984561 0 1 0 2.26494,3.046905 m 4.97165,-3.584553 c 1.54262,-1.019895 3.12431,-1.985103 4.75997,-2.848749 a 1.6378,1.6378 0 1 0 -1.55752,-2.881419 485.08997,485.08997 0 0 0 -4.99722,2.806846 1.7166361,1.7166361 0 1 0 1.79548,2.923322 z m 4.75969,-2.848715 c 1.17402,-0.620034 2.38567,-1.2145 3.657,-1.610101 a 1.7883697,1.7883697 0 1 0 -1.30755,-3.318924 c -1.32528,0.637793 -2.62076,1.335951 -3.90699,2.047605 a 1.6378,1.6378 0 0 0 1.55754,2.88142 m 3.657,-1.610101 c 0.7884,-0.245738 1.59732,-0.470887 2.41977,-0.569609 a 1.9345658,1.9345658 0 1 0 -0.46026,-3.841658 q -0.0337,0.0036 -0.0685,0.01 c -1.11648,0.174005 -2.18611,0.594466 -3.1989,1.082396 a 1.7883697,1.7883697 0 0 0 1.30683,3.318926 z m 2.41977,-0.569609 c 0.21517,-0.02628 0.43326,-0.04189 0.64988,-0.02555 0.0784,0.0056 0.1648,0.01205 0.23862,0.04051 a 1.9993093,1.9993093 0 1 0 1.21309,-3.802642 c -0.85794,-0.218044 -1.76211,-0.17969 -2.63001,-0.04408 a 1.9346781,1.9346781 0 0 0 0.52843,3.831714 z m 0.53482,-0.165484 a 2.0561282,2.0561282 0 0 0 3.97233,-1.053278 c -0.1335,-0.589493 -0.39703,-1.149157 -0.80044,-1.601577 a 3.2102586,3.2102586 0 0 0 -1.60512,-0.967337 1.9993093,1.9993093 0 0 0 -1.56537,3.624323 v -0.0021 z m 4.04832,1.823172 c 0.1136,-0.952425 0.13779,-1.936099 -0.0758,-2.87645 a 2.0561282,2.0561282 0 0 0 -4.02231,0.855123 c 0.0959,0.485086 0.0365,1.008533 -0.0302,1.492913 a 2.0809863,2.0809863 0 1 0 4.12291,0.566061 c 0,-0.01205 0.008,-0.02482 0.008,-0.03769 z m -0.902,3.410544 c 0.42823,-1.096601 0.76276,-2.238659 0.902,-3.410544 a 2.0809863,2.0809863 0 0 0 -4.12787,-0.528412 c -0.10942,0.797591 -0.38208,1.569619 -0.706,2.30329 a 2.1292821,2.1292821 0 1 0 3.93185,1.63567 z m -1.56111,3.506426 a 44.744757,44.744757 0 0 0 1.5604,-3.506426 2.1292821,2.1292821 0 0 0 -3.93116,-1.635669 41.193585,41.193585 0 0 1 -1.54404,3.105143 2.2066978,2.2066978 0 1 0 3.9148,2.036952 z m -1.96237,3.725178 a 84.517876,84.517876 0 0 0 1.96237,-3.725178 2.2066978,2.2066978 0 0 0 -3.9148,-2.036241 q -0.98013,1.78979 -1.97445,3.571767 a 2.2480567,2.2480567 0 0 0 3.92688,2.189652 z m -2.12715,3.794073 q 1.06749,-1.895614 2.12717,-3.794071 a 2.2478914,2.2478914 0 0 0 -3.92618,-2.189652 q -1.03695,1.857973 -2.14277,3.677592 a 2.283421,2.283421 0 1 0 3.94178,2.306131 z m -1.97798,3.513524 q 0.98794,-1.757114 1.97798,-3.513524 a 2.283421,2.283421 0 0 0 -3.94178,-2.306131 122.87052,122.87052 0 0 1 -2.10373,3.352306 2.3792847,2.3792847 0 1 0 4.06753,2.467349 m -1.58454,2.943922 a 84.517876,84.517876 0 0 1 1.58454,-2.943922 2.3792847,2.3792847 0 0 0 -4.06753,-2.467349 114.3477,114.3477 0 0 0 -1.87786,2.97162 2.5000245,2.5000245 0 1 0 4.36085,2.439651 m -1.30896,2.637103 a 115.05795,115.05795 0 0 1 1.30896,-2.637103 2.5000245,2.5000245 0 0 0 -4.36085,-2.439651 40.483351,40.483351 0 0 0 -1.5682,2.800454 2.5753093,2.5753093 0 1 0 4.62009,2.2763 z m -0.7749,1.796894 c 0.21453,-0.615769 0.49357,-1.210243 0.77417,-1.796894 a 2.5753093,2.5753093 0 0 0 -4.61936,-2.2763 c -0.38206,0.754976 -0.75144,1.522028 -1.04475,2.316779 a 2.5978698,2.5978698 0 1 0 4.87433,1.799033 q 0.009,-0.02134 0.0155,-0.04259 z m -0.17045,0.504975 c 0,0.02417 -0.008,0.06538 -0.01,0.0824 l 0.0209,-0.08878 c 0.0447,-0.169044 0.10082,-0.334527 0.15841,-0.499304 A 2.5977987,2.5977987 0 0 0 147.791,79.664888 c -0.21944,0.594466 -0.42404,1.212368 -0.47441,1.848031 a 2.6051863,2.6051863 0 1 0 5.19395,0.413358 z m -3.59166,2.585253 a 2.592355,2.592355 0 0 0 3.51779,-3.438246 2.6051392,2.6051392 0 0 0 -5.12078,0.439633 c -0.041,0.518463 0.032,1.044046 0.23579,1.524159 a 2.968779,2.968779 0 0 0 1.36576,1.474448 z m 0,0 c 0.61293,0.31605 1.31962,0.389923 1.99292,0.25924 a 4.7585692,4.7585692 0 0 0 1.08169,-0.365057 2.5334055,2.5334055 0 0 0 -1.59661,-4.775618 v 0.0029 a 2.592355,2.592355 0 0 0 -1.47942,4.879319 z m 3.07532,-0.105825 c 0.74934,-0.348008 1.41692,-0.859381 2.04547,-1.389928 a 2.4432056,2.4432056 0 0 0 -3.00213,-3.851604 c -0.19318,0.139212 -0.39064,0.274152 -0.59806,0.392759 -0.0904,0.05118 -0.1825,0.104408 -0.28122,0.136364 a 2.5341157,2.5341157 0 1 0 1.83524,4.712409 z m 2.04547,-1.389928 c 0.53975,-0.454555 1.04973,-0.945317 1.55966,-1.433249 a 207.38838,207.38838 0 0 0 2.5533,-2.493642 2.3439381,2.3439381 0 0 0 -3.25571,-3.3729 121.45004,121.45004 0 0 1 -2.54618,2.345191 c -0.42542,0.377849 -0.85082,0.769896 -1.31394,1.102995 a 2.4432056,2.4432056 0 1 0 3.00287,3.851605 z m 4.11296,-3.927598 c 1.76137,-1.743628 3.50855,-3.50217 5.21098,-5.304743 a 2.1307027,2.1307027 0 0 0 -2.93679,-3.07886 c -1.88708,1.620756 -3.71876,3.306139 -5.52986,5.011412 a 2.3441827,2.3441827 0 1 0 3.25641,3.3729 z m 5.21101,-5.304742 a 568.89761,568.89761 0 0 0 4.45814,-4.778451 1.7684832,1.7684832 0 0 0 -2.45172,-2.542638 l -4.94324,4.242228 a 2.1307027,2.1307027 0 1 0 2.93682,3.078861 m 4.45744,-4.778451 a 132.81379,132.81379 0 0 1 4.59522,-4.745074 1.4297015,1.4297015 0 0 0 -1.91408,-2.1236 378.55484,378.55484 0 0 0 -5.13216,4.326036 1.7684832,1.7684832 0 1 0 2.45102,2.542638 z m 4.59522,-4.745074 c 1.36222,-1.337372 2.79831,-2.60514 4.33952,-3.732991 A 1.2663476,1.2663476 0 0 0 175.282,58.467972 c -1.6449,1.15342 -3.23157,2.388516 -4.77846,3.669069 a 1.4304117,1.4304117 0 1 0 1.91266,2.122181 z m 4.33952,-3.732991 c 1.19888,-0.877142 2.44605,-1.707403 3.77988,-2.366501 a 1.3466041,1.3466041 0 1 0 -1.32175,-2.342353 108.66583,108.66583 0 0 0 -3.93257,2.649885 1.2663619,1.2663619 0 1 0 1.45385,2.073884 z m 3.77988,-2.366501 c 0.87006,-0.43111 1.76137,-0.855123 2.69179,-1.139216 a 1.4872304,1.4872304 0 1 0 -0.94454,-2.818229 c -1.08523,0.397021 -2.09732,0.994329 -3.06893,1.615073 a 1.3466041,1.3466041 0 0 0 1.32105,2.342353 m 2.69178,-1.139217 c 0.49293,-0.149148 1.00499,-0.296873 1.52133,-0.330964 a 1.5461799,1.5461799 0 1 0 -0.31673,-3.073878 c -0.73584,0.102984 -1.45242,0.331676 -2.14845,0.586655 a 1.4872304,1.4872304 0 0 0 0.94461,2.818209 m 1.52132,-0.330964 c 0.0959,-0.0064 0.19319,-0.0099 0.28835,7.1e-4 v 0.0021 a 1.6079703,1.6079703 0 1 0 1.28338,-2.945354 c -0.60015,-0.228701 -1.25995,-0.220168 -1.88708,-0.132103 a 1.5461799,1.5461799 0 0 0 0.31609,3.073895 z m -0.23579,-0.411939 a 1.6804141,1.6804141 0 0 0 3.32178,-0.507104 v -0.0079 C 187.69637,54.881213 187.18,54.07581 186.3213,53.749104 a 1.6079703,1.6079703 0 0 0 -1.80824,2.531273 z m 3.09165,1.754278 c 0.21518,-0.73012 0.34877,-1.509958 0.22868,-2.269909 a 1.6804141,1.6804141 0 0 0 -3.33882,0.313217 c 0,0.08377 -0.0165,0.170455 -0.0337,0.251421 a 3.9773117,3.9773117 0 0 1 -0.18185,0.57387 1.7578296,1.7578296 0 1 0 3.32602,1.131405 z m -0.96235,2.352296 c 0.3835,-0.755687 0.72306,-1.538369 0.96235,-2.352296 a 1.75854,1.75854 0 0 0 -3.32605,-1.131412 c -0.21379,0.551854 -0.52623,1.063932 -0.86505,1.546892 a 1.8870923,1.8870923 0 1 0 3.22875,1.936808 m -1.4773,2.659116 a 46.165224,46.165224 0 0 0 1.4773,-2.659116 1.8870923,1.8870923 0 0 0 -3.22875,-1.936808 525.57332,525.57332 0 0 1 -1.67187,2.372891 2.0426337,2.0426337 0 1 0 3.42332,2.223033 z m -1.77061,3.095913 a 121.45004,121.45004 0 0 1 1.77061,-3.095913 2.0426337,2.0426337 0 0 0 -3.42332,-2.223033 120.0296,120.0296 0 0 0 -2.08455,3.049036 2.1875215,2.1875215 0 1 0 3.73726,2.26991 m -1.72161,3.230854 q 0.83165,-1.630697 1.72161,-3.231566 a 2.1875215,2.1875215 0 0 0 -3.73726,-2.269198 112.21701,112.21701 0 0 0 -2.05825,3.21523 2.3373809,2.3373809 0 1 0 4.0739,2.285534 m -1.38709,2.929715 a 53.977801,53.977801 0 0 1 1.38709,-2.929715 2.3373809,2.3373809 0 0 0 -4.0739,-2.285534 55.398271,55.398271 0 0 0 -1.76139,3.072473 2.470905,2.470905 0 1 0 4.4482,2.142776 m -1.04191,2.67261 a 34.801476,34.801476 0 0 1 1.04191,-2.67261 2.470905,2.470905 0 0 0 -4.44891,-2.142776 28.40937,28.40937 0 0 0 -1.40839,3.066079 2.5618148,2.5618148 0 1 0 4.81539,1.749307 z m -0.41126,1.841636 c 0.0402,-0.628557 0.20878,-1.247882 0.41126,-1.841636 a 2.5625251,2.5625251 0 0 0 -4.81541,-1.749307 c -0.38563,0.997882 -0.68894,2.035531 -0.82034,3.099465 a 2.6250257,2.6250257 0 1 0 5.2252,0.491481 z m -5.17762,2.404147 a 2.664804,2.664804 0 1 0 5.25574,-0.88424 c 0,-0.0114 -0.008,-0.02272 -0.008,-0.0334 a 6.1080143,6.1080143 0 0 1 -0.072,-1.486521 2.6250257,2.6250257 0 0 0 -5.22449,-0.491483 10.014303,10.014303 0 0 0 0.0466,2.895626 z m 0,0 c 0.18751,1.115068 0.66339,2.163369 1.32033,3.079575 a 2.6742237,2.6742237 0 1 0 4.34664,-3.116506 c 0,-0.0029 -0.008,-0.0058 -0.008,-0.0085 -0.18888,-0.260654 -0.35232,-0.553275 -0.4098,-0.872168 a 2.6652364,2.6652364 0 0 0 -5.25077,0.918334 z m 1.32033,3.079575 a 10.227373,10.227373 0 0 0 2.28982,2.291925 2.6768729,2.6768729 0 0 0 3.14916,-4.328879 4.9716395,4.9716395 0 0 1 -1.09944,-1.088787 2.6740318,2.6740318 0 0 0 -4.33952,3.125028 m 2.2898,2.291931 c 0.91833,0.667617 1.9368,1.188217 2.99221,1.602289 a 2.6639925,2.6639925 0 0 0 1.9844,-4.944649 c -0.63992,-0.262789 -1.26634,-0.578134 -1.82745,-0.986519 a 2.6765905,2.6765905 0 1 0 -3.14916,4.328879 m 2.99221,1.602289 c 1.19675,0.468745 2.45103,0.781252 3.71666,0.995741 a 2.6406508,2.6406508 0 0 0 0.91479,-5.201039 c -0.90128,-0.163357 -1.79833,-0.39063 -2.64705,-0.738647 a 2.6635215,2.6635215 0 1 0 -2.02559,4.926901 z m 3.71666,0.995741 c 1.42047,0.241483 2.86224,0.343761 4.30189,0.34589 a 2.6008778,2.6008778 0 0 0 0.0803,-5.201047 23.153636,23.153636 0 0 1 -3.46736,-0.345882 2.6406856,2.6406856 0 1 0 -0.94533,5.196077 z m 4.30189,0.34589 c 1.6868,0.0027 3.36793,-0.225848 5.01142,-0.596601 a 2.5156494,2.5156494 0 0 0 -0.99221,-4.930447 c -1.29829,0.230119 -2.62005,0.365056 -3.93896,0.326716 a 2.6008778,2.6008778 0 1 0 -0.0803,5.199619 z m 5.01142,-0.596601 c 1.80896,-0.407667 3.58667,-0.951 5.3303,-1.57813 a 2.343773,2.343773 0 0 0 -1.40342,-4.467383 57.528973,57.528973 0 0 1 -4.91909,1.115073 2.5156494,2.5156494 0 1 0 0.99221,4.93044 m 5.3303,-1.57813 a 68.182485,68.182485 0 0 0 5.40204,-2.205991 2.1328334,2.1328334 0 0 0 -1.64775,-3.932573 54.688037,54.688037 0 0 1 -5.15771,1.670473 2.343773,2.343773 0 1 0 1.40342,4.468091 m 5.40204,-2.205998 a 59.659673,59.659673 0 0 0 5.42122,-2.850876 1.9765819,1.9765819 0 0 0 -1.94036,-3.442506 43.324288,43.324288 0 0 1 -5.12789,2.360814 2.1328334,2.1328334 0 1 0 1.64703,3.932568 m 5.42122,-2.850876 c 1.91195,-1.127858 3.78485,-2.322468 5.62505,-3.564671 a 1.7968925,1.7968925 0 0 0 -1.90625,-3.044772 203.83722,203.83722 0 0 1 -5.65916,3.166937 1.9765819,1.9765819 0 1 0 1.94036,3.442506 m 5.62505,-3.564671 a 97.302095,97.302095 0 0 0 5.39992,-3.904862 1.6122316,1.6122316 0 0 0 -1.92686,-2.585254 68.182485,68.182485 0 0 1 -5.37931,3.445344 1.7968925,1.7968925 0 1 0 1.90625,3.044772 m 5.39992,-3.904862 a 70.313188,70.313188 0 0 0 4.91838,-4.218792 1.5461799,1.5461799 0 0 0 -2.11652,-2.253572 45.45499,45.45499 0 0 1 -4.72872,3.88711 1.6127881,1.6127881 0 1 0 1.87146,2.627156 z m 4.91838,-4.218792 a 86.648573,86.648573 0 0 0 4.64209,-4.711694 1.5291344,1.5291344 0 0 0 -2.2472,-2.073883 96.591859,96.591859 0 0 1 -4.51141,4.532005 1.5461799,1.5461799 0 0 0 2.11652,2.252861 z m 4.64209,-4.711694 a 150.56965,150.56965 0 0 1 3.84237,-4.078875 1.6214648,1.6214648 0 1 0 -2.41197,-2.164084 c -1.17331,1.434672 -2.41479,2.813947 -3.6783,4.169076 a 1.529174,1.529174 0 1 0 2.23722,2.085247 c 0.008,-0.0036 0.008,-0.007 0.011,-0.01141 z m 3.84237,-4.078875 a 63.210846,63.210846 0 0 0 3.02345,-3.27347 1.8281429,1.8281429 0 1 0 -2.89206,-2.230847 53.977801,53.977801 0 0 1 -2.54264,3.340233 1.6221749,1.6221749 0 0 0 2.41196,2.164084 m 3.02345,-3.27347 c 0.80254,-0.93893 1.56252,-1.919763 2.21947,-2.967358 a 1.9723205,1.9723205 0 1 0 -3.40415,-1.987947 c -0.51136,0.942482 -1.09589,1.844478 -1.70739,2.724458 a 1.8288531,1.8288531 0 0 0 2.89207,2.230847 m 2.21947,-2.967358 c 0.5099,-0.813933 0.99933,-1.681835 1.23654,-2.619343 a 2.0291392,2.0291392 0 1 0 -3.934,-0.99646 c -0.008,0.01633 -0.009,0.03339 -0.0117,0.04973 a 3.5511711,3.5511711 0 0 1 -0.19957,0.571736 c -0.14627,0.343757 -0.31673,0.677569 -0.49502,1.006402 a 1.9716102,1.9716102 0 0 0 3.40411,1.987942 z m 1.23654,-2.619343 c 0.18112,-0.714499 0.2699,-1.473027 0.0995,-2.198176 a 2.0454745,2.0454745 0 0 0 -4.01849,0.733667 c 0.0164,0.12358 0.0336,0.167618 0.0182,0.278413 a 2.840937,2.840937 0 0 1 -0.0447,0.23935 2.0291392,2.0291392 0 0 0 3.94606,0.946743 z m -3.57532,-0.568899 a 2.0454745,2.0454745 0 0 0 3.67403,-1.629277 c -0.24501,-1.042624 -1.06464,-1.808257 -2.07103,-2.117209 a 2.0504462,2.0504462 0 0 0 -1.60443,3.748617 v -0.0028 z m -0.35087,0.111507 c 0.24502,-0.0064 0.51283,-0.01066 0.75,0.06178 a 2.0505811,2.0505811 0 1 0 1.20384,-3.920494 c -0.60506,-0.184662 -1.23651,-0.274863 -1.86649,-0.319602 a 2.0923501,2.0923501 0 1 0 -0.29402,4.174046 q 0.10303,0.0079 0.20669,0.0049 z m -1.20312,0.339498 c 0.37358,-0.159097 0.7905,-0.326712 1.20312,-0.339498 a 2.0923501,2.0923501 0 0 0 0.0876,-4.177596 c -0.99288,-0.07036 -1.98439,0.166192 -2.90626,0.518473 a 2.1569814,2.1569814 0 1 0 1.61577,3.998619 m -2.25286,1.301859 c 0.71238,-0.489356 1.45456,-0.962368 2.25286,-1.301859 a 2.1569814,2.1569814 0 0 0 -1.61603,-3.998624 c -1.07954,0.413355 -2.09516,0.985096 -3.07175,1.599448 a 2.2159308,2.2159308 0 1 0 2.43468,3.70103 m -2.81964,2.234398 a 28.40937,28.40937 0 0 1 2.81964,-2.234398 2.2159308,2.2159308 0 0 0 -2.43468,-3.70032 c -1.18609,0.745751 -2.30755,1.591636 -3.37576,2.497184 a 2.2784738,2.2784738 0 1 0 2.99151,3.437534 m -3.054,2.963808 a 55.398271,55.398271 0 0 1 3.054,-2.963808 2.2784315,2.2784315 0 0 0 -2.9908,-3.437534 45.45499,45.45499 0 0 0 -3.39207,3.208839 2.3061576,2.3061576 0 0 0 3.32887,3.192503 m -3.14634,3.49009 a 78.125767,78.125767 0 0 1 3.14634,-3.49009 2.3061576,2.3061576 0 0 0 -3.32887,-3.192503 100.85325,100.85325 0 0 0 -3.33598,3.658415 2.319625,2.319625 0 0 0 3.50146,3.042645 q 0.0102,-0.0093 0.0175,-0.01843 m -2.67262,3.625034 a 31.96054,31.96054 0 0 1 2.67262,-3.625034 2.319783,2.319783 0 0 0 -3.51851,-3.024178 44.744757,44.744757 0 0 0 -3.12928,4.03342 2.3793084,2.3793084 0 1 0 3.97517,2.615792 z m -1.86365,3.890663 a 19.389395,19.389395 0 0 1 1.86365,-3.890663 2.3793084,2.3793084 0 0 0 -3.97517,-2.615792 c -1.03695,1.510668 -1.85583,3.164094 -2.46522,4.890672 a 2.4268704,2.4268704 0 1 0 4.57674,1.615783 m -0.9304,4.329589 c 0.12785,-1.475158 0.43755,-2.933268 0.9304,-4.329589 a 2.4268704,2.4268704 0 0 0 -4.57674,-1.615783 26.065595,26.065595 0 0 0 -1.27842,5.421929 2.476762,2.476762 0 1 0 4.91483,0.6179 c 0.008,-0.03121 0.008,-0.06322 0.009,-0.09447 m -4.57178,5.316815 a 2.5605519,2.5605519 0 0 0 4.95601,-1.289787 l -0.0192,-0.06952 c -0.37309,-1.282753 -0.48105,-2.628646 -0.36526,-3.957492 a 2.4765867,2.4765867 0 0 0 -4.92477,-0.523446 c -0.245,1.948882 -0.14207,3.93754 0.35368,5.840256 z m 0,0 a 17.471761,17.471761 0 0 0 2.28412,5.154879 2.5948759,2.5948759 0 0 0 4.34449,-2.838807 13.707521,13.707521 0 0 1 -1.69178,-3.675465 2.5603944,2.5603944 0 0 0 -4.93612,1.359393 z m 2.28412,5.154879 a 18.892229,18.892229 0 0 0 3.77134,4.208144 2.6022981,2.6022981 0 1 0 3.3168,-4.010704 c -0.008,-0.0032 -0.009,-0.0073 -0.0118,-0.0094 a 13.352402,13.352402 0 0 1 -2.73193,-3.027013 2.5948769,2.5948769 0 1 0 -4.3445,2.838813 z m 3.77134,4.208144 c 1.53605,1.26914 3.29744,2.245723 5.17173,2.916898 a 2.6088828,2.6088828 0 1 0 1.75998,-4.91198 c -1.31111,-0.470179 -2.54763,-1.143482 -3.62718,-2.024884 a 2.6017463,2.6017463 0 0 0 -3.30401,4.019932 m 5.17193,2.916932 c 1.9638,0.703841 4.0185,1.137797 6.08742,1.387786 a 2.5540024,2.5540024 0 0 0 0.70317,-5.058995 c -1.70675,-0.26846 -3.40208,-0.657679 -5.03064,-1.240771 a 2.6088795,2.6088795 0 1 0 -1.75995,4.91198 m 6.08742,1.387786 c 2.24007,0.270574 4.50004,0.36865 6.75503,0.330972 a 2.3082612,2.3082612 0 0 0 0.18542,-4.605161 106.53513,106.53513 0 0 1 -6.23658,-0.784814 2.5540024,2.5540024 0 1 0 -0.70316,5.058993 m 6.75503,0.330973 c 2.30188,-0.03824 4.60233,-0.15841 6.89568,-0.357983 a 1.9943378,1.9943378 0 0 0 -0.2024,-3.981571 58.239207,58.239207 0 0 1 -6.50789,-0.265624 2.3082612,2.3082612 0 1 0 -0.18469,4.60516 m 6.89568,-0.357983 a 92.330456,92.330456 0 0 0 6.8921,-0.861515 1.7855287,1.7855287 0 0 0 -0.48509,-3.536955 c -2.19463,0.24502 -4.40131,0.384224 -6.60945,0.416899 a 1.9943378,1.9943378 0 1 0 0.20241,3.981571 z m 6.8921,-0.861515 a 168.32552,168.32552 0 0 0 6.72167,-1.236516 1.6093907,1.6093907 0 0 0 -0.56185,-3.167652 q -3.31395,0.495746 -6.64494,0.867213 a 1.7855287,1.7855287 0 1 0 0.48509,3.536955 m 6.72167,-1.236516 c 2.07386,-0.426137 4.14351,-0.877842 6.20317,-1.367907 a 1.5281455,1.5281455 0 1 0 -0.71731,-2.97092 67.472252,67.472252 0 0 1 -6.04766,1.171175 1.6093907,1.6093907 0 0 0 0.47662,3.181861 q 0.0428,-0.0069 0.0849,-0.01417 z m 6.20317,-1.367907 a 59.659673,59.659673 0 0 0 5.69183,-1.651301 1.5369467,1.5369467 0 0 0 -1.00498,-2.904855 60.369909,60.369909 0 0 1 -5.40346,1.585236 1.5280594,1.5280594 0 0 0 0.71657,2.97092 m 5.6919,-1.651242 c 1.80824,-0.62572 3.56254,-1.410521 5.21454,-2.377157 a 1.4680541,1.4680541 0 0 0 -1.41337,-2.571043 36.221946,36.221946 0 0 1 -4.80614,2.043343 1.5369467,1.5369467 0 0 0 1.00497,2.904857 m 5.20459,-2.370756 c 1.38071,-0.792627 2.58597,-1.866506 3.65203,-3.041943 1.27772,-1.408389 2.37218,-2.978005 3.35516,-4.602315 a 0.86861647,0.86861647 0 0 0 -1.39775,-1.019896 c -1.16691,1.338082 -2.39918,2.627867 -3.74578,3.787679 -1.01139,0.872167 -2.09377,1.681123 -3.27844,2.304708 a 1.4677608,1.4677608 0 1 0 1.36791,2.597324 z"
     style="fill:#1e1b1b;fill-opacity:1;fill-rule:nonzero;stroke:none;stroke-width:0.946975"
     id="path2" /></svg>
