<?xml version="1.0" encoding="UTF-8" standalone="no"?>
<svg
   width="278.07455"
   height="350.00003"
   viewBox="0 0 278.07457 350.00003"
   version="1.1"
   id="svg3"
   sodipodi:docname="logo.svg"
   inkscape:version="1.4.3 (0d15f75, 2025-12-25)"
   xmlns:inkscape="http://www.inkscape.org/namespaces/inkscape"
   xmlns:sodipodi="http://sodipodi.sourceforge.net/DTD/sodipodi-0.dtd"
   xmlns="http://www.w3.org/2000/svg"
   xmlns:svg="http://www.w3.org/2000/svg">
  <defs
     id="defs3" />
  <sodipodi:namedview
     id="namedview3"
     pagecolor="#ffffff"
     bordercolor="#000000"
     borderopacity="0.25"
     inkscape:showpageshadow="2"
     inkscape:pageopacity="0.0"
     inkscape:pagecheckerboard="0"
     inkscape:deskcolor="#d1d1d1"
     inkscape:zoom="2.018"
     inkscape:cx="100.34688"
     inkscape:cy="257.18533"
     inkscape:window-width="1903"
     inkscape:window-height="1367"
     inkscape:window-x="10"
     inkscape:window-y="35"
     inkscape:window-maximized="0"
     inkscape:current-layer="svg3" />
  <path
     fill="#1e1b1b"
     d="m 91.719749,41.393895 c 0.271004,0.074 0.552,0.166998 0.793998,0.315999 a 1.136996,1.136996 0 0 0 1.421993,-1.749995 h 0.0018 a 1.7729935,1.7729935 0 1 0 -3.501965,-0.553999 1.7699937,1.7699937 0 0 0 1.282999,1.987995 m -2.509991,-2.355993 a 2.5749909,2.5749909 0 1 0 5.14998,0 2.5749909,2.5749909 0 0 0 -5.14998,0 m 5.519982,0.458998 a 16.99994,16.99994 0 0 0 -0.323046,-1.013994 c -0.240003,-0.664999 -0.596003,-1.261997 -1.209997,-1.657994 a 2.6499905,2.6499905 0 0 0 -1.440998,-0.427 l -0.736993,0.103005 a 2.6999903,2.6999903 0 0 0 -0.422999,0.158998 2.9999893,2.9999893 0 0 0 -0.289003,0.160001 c -0.585995,0.373999 -0.979997,0.939996 -1.249994,1.567994 a 9.999964,9.999964 0 0 0 -0.384002,1.102996 3.1559887,3.1559887 0 1 0 6.055971,0.005 m 1.920008,6.571978 -1.920008,-6.571978 a 3.1559887,3.1559887 0 0 0 -6.055971,-0.005 l -1.930992,6.568977 a 5.1619816,5.1619816 0 1 0 9.906971,0.009 m 2.048985,6.949974 c -0.7,-2.31099 -1.372,-4.631982 -2.049989,-6.949974 a 5.1619816,5.1619816 0 0 0 -9.905967,-0.01003 130.99953,130.99953 0 0 0 -1.273996,4.589985 c -0.288047,1.136975 -0.563047,2.282971 -0.727045,3.445967 a 7.1679743,7.1679743 0 1 0 13.956947,-1.075951 m 1.072996,3.437989 a 197.99928,197.99928 0 0 1 -1.072996,-3.437989 7.1679743,7.1679743 0 0 0 -13.955948,1.075996 44.999839,44.999839 0 0 0 -0.403998,4.479984 7.9099715,7.9099715 0 0 0 15.806949,0.609999 7.9999714,7.9999714 0 0 0 -0.374007,-2.72799 M 84.4465,63.329818 a 8.5129696,8.5129696 0 0 0 16.96395,-1.421996 8.4999695,8.4999695 0 0 0 -0.54699,-2.36999 55.999799,55.999799 0 0 1 -1.094017,-3.07999 7.9099715,7.9099715 0 0 0 -15.432942,2.116992 38.999859,38.999859 0 0 0 0.109994,4.754984 m 0,0 c 0.125998,1.496989 0.319999,2.991983 0.602997,4.468978 a 9.0349678,9.0349678 0 0 0 10.579964,7.166977 9.0349678,9.0349678 0 0 0 7.168974,-10.579965 8.9999679,8.9999679 0 0 0 -0.88499,-2.515984 21.999922,21.999922 0 0 1 -1.04999,-2.330994 8.5129696,8.5129696 0 0 0 -11.014971,-4.854982 8.5099694,8.5099694 0 0 0 -5.401984,8.64597 m 0.602997,4.468978 a 40.999853,40.999853 0 0 0 1.055996,4.243996 9.4999662,9.4999662 0 0 0 11.866963,6.302973 c 5.015989,-1.534999 7.839969,-6.846992 6.302979,-11.86496 a 9.3999659,9.3999659 0 0 0 -0.967,-2.154995 47.999828,47.999828 0 0 1 -1.39499,-2.455986 9.0369672,9.0369672 0 0 0 -12.212966,-3.765987 9.0399677,9.0399677 0 0 0 -4.650982,9.694959 m 1.055996,4.243996 c 0.439998,1.439993 0.960998,2.854985 1.549994,4.239982 2.133997,5.029983 7.942966,7.378973 12.971968,5.242974 5.02997,-2.134984 7.37696,-7.942968 5.24197,-12.971953 a 9.999964,9.999964 0 0 0 -0.93599,-1.71299 55.999799,55.999799 0 0 1 -1.62499,-2.514995 c -2.726,-4.482955 -8.569975,-5.90795 -13.053956,-3.182958 a 9.4999662,9.4999662 0 0 0 -4.14899,10.899946 m 1.549994,4.239982 c 0.749996,1.769995 1.613994,3.489987 2.493996,5.196983 2.599984,5.050981 8.803967,7.039971 13.856956,4.439989 5.05398,-2.600999 7.04096,-8.805979 4.43998,-13.859952 q -0.31901,-0.620005 -0.71999,-1.189997 a 454.99836,454.99836 0 0 1 -2.794,-4.028984 C 101.85244,62.328834 95.696454,61.167837 91.184475,64.247826 A 9.8899647,9.8899647 0 0 0 87.65454,76.283755 m 2.494992,5.195987 c 0.806992,1.568993 1.619986,3.137993 2.48199,4.679983 2.853986,5.09998 9.302968,6.919974 14.402958,4.067982 5.09998,-2.853984 6.92196,-9.302958 4.06798,-14.402939 q -0.225,-0.402008 -0.483,-0.781005 a 358.99871,358.99871 0 0 0 -2.89198,-4.173981 c -3.25901,-4.656987 -9.673973,-5.78898 -14.32996,-2.529992 a 10.289963,10.289963 0 0 0 -3.248994,13.139952 m 2.482996,4.679983 a 44.999839,44.999839 0 0 0 2.125986,3.451985 c 3.330999,4.851979 9.964972,6.084985 14.817952,2.753991 4.85298,-3.330992 6.08497,-9.965961 2.75399,-14.817949 a 784.99718,784.99718 0 0 1 -1.70999,-2.503989 c -3.28599,-4.833982 -9.86696,-6.089979 -14.700954,-2.80399 a 10.579962,10.579962 0 0 0 -3.286984,13.919952 m 2.125986,3.451985 a 58.999788,58.999788 0 0 0 1.876,2.584984 c 3.581972,4.654991 10.257972,5.526984 14.913942,1.945995 a 10.634962,10.634962 0 0 0 2.16999,-14.61194 132.99952,132.99952 0 0 1 -1.38799,-1.982997 c -3.33199,-4.851973 -9.96596,-6.084975 -14.816949,-2.753984 -4.852979,3.33099 -6.085981,9.964964 -2.754993,14.817942 m 1.876,2.584984 q 0.946997,1.231996 1.967986,2.405001 c 3.847996,4.407987 10.541966,4.863981 14.949946,1.016988 a 10.595962,10.595962 0 0 0 1.207,-14.72994 24.99991,24.99991 0 0 1 -1.04,-1.357994 c -3.41598,-4.779988 -10.05896,-5.885984 -14.836946,-2.470993 -4.777983,3.414992 -5.885973,10.056971 -2.470993,14.835939 q 0.109002,0.153012 0.223007,0.300999 m 1.967986,2.405001 c 1.082,1.239994 2.306996,2.35799 3.672996,3.277979 a 10.469963,10.469963 0 0 0 13.47495,-15.855928 23.999913,23.999913 0 0 1 -0.991,-1.135003 c -3.72499,-4.513988 -10.40295,-5.150984 -14.916944,-1.426989 -4.513989,3.725982 -5.151982,10.404954 -1.427991,14.916947 q 0.093,0.112992 0.187989,0.222994 m 3.672996,3.277979 c 1.12,0.756 2.31298,1.401004 3.51499,2.012993 5.04398,2.566003 11.21296,0.559003 13.77994,-4.483984 a 10.243962,10.243962 0 0 0 -3.38399,-13.12894 9.999964,9.999964 0 0 1 -0.63,-0.454 c -0.0149,-0.01304 -0.0639,-0.05504 -0.021,-0.01602 q 0.112,0.102002 0.21501,0.213002 c -3.96399,-4.20998 -10.58797,-4.407982 -14.79994,-0.444001 -4.207992,3.96399 -4.405999,10.589964 -0.44301,14.798945 a 10.599963,10.599963 0 0 0 1.768,1.501992 m 3.51499,2.013003 c 1.91599,0.974996 3.96998,1.738996 6.11897,1.960006 5.43298,0.563 10.29197,-3.385008 10.85497,-8.81798 a 9.8899647,9.8899647 0 0 0 -4.29601,-9.209972 l -2.28198,-1.544991 c -4.68397,-3.174989 -11.05395,-1.950999 -14.22994,2.732991 -3.175989,4.683979 -1.95099,11.054972 2.734,14.229944 q 0.52999,0.36 1.09999,0.649999 m 6.11897,1.960009 c 1.59199,0.16599 3.20998,0.14 4.76998,-0.25301 5.05999,-1.27999 8.12797,-6.417983 6.84997,-11.479962 a 9.4499659,9.4499659 0 0 0 -4.23898,-5.750979 c -0.28,-0.171 -0.54999,-0.359999 -0.82201,-0.543006 -4.52497,-3.059977 -10.67294,-1.873988 -13.73294,2.650001 -3.05998,4.524983 -1.87398,10.672955 2.65001,13.732966 a 9.8999643,9.8999643 0 0 0 4.52397,1.64498 m 4.76998,-0.254 a 9.5999659,9.5999659 0 0 0 3.32,-1.56399 q 0.50599,-0.372014 0.95899,-0.808001 a 9.6099655,9.6099655 0 0 0 2.75,-8.718975 10.399963,10.399963 0 0 0 -0.69001,-2.179995 18.999932,18.999932 0 0 0 -0.98499,-1.883988 8.2699703,8.2699703 0 0 0 -12.37296,-2.215991 l 0.005,0.0044 a 9.4539664,9.4539664 0 0 0 7.01295,17.36693 m 5.35599,-15.154938 a 11.999956,11.999956 0 0 0 -1.662,-2.227987 c -1.10799,-1.153999 -2.51099,-2.031997 -4.09398,-2.346997 a 6.699976,6.699976 0 0 0 -2.21599,-0.07 c -1.62199,0.217 -3.09699,1.024001 -4.28298,2.129997 a 11.799958,11.799958 0 0 0 -1.805,2.180992 8.2699703,8.2699703 0 0 0 2.412,11.44096 8.2669703,8.2669703 0 0 0 11.64795,-11.106965 m -2.99399,-2.49599 a 4.2089848,4.2089848 0 0 0 -7.40198,-0.687004 v -0.0018 a 5.1079816,5.1079816 0 1 0 7.40697,0.685998 z m 0.29001,1.08 a 22.999917,22.999917 0 0 1 -0.16702,-2.226998 3.6569869,3.6569869 0 0 0 -7.11996,-1.049997 85.999692,85.999692 0 0 1 -0.832,2.352998 4.209985,4.209985 0 1 0 8.11996,0.923997 m -0.167,-2.226998 a 47.999828,47.999828 0 0 0 -0.232,-3.299982 2.8859897,2.8859897 0 0 0 -5.39497,-1.100003 20.299928,20.299928 0 0 0 -1.49399,3.349988 3.6589868,3.6589868 0 1 0 7.11996,1.048998 m -0.231,-3.297994 c -0.11002,-1.05599 -0.0519,-2.127986 0.065,-3.179984 a 2.0959925,2.0959925 0 0 0 -4.02998,-1.007997 c -0.42,1.052997 -0.88,2.094995 -1.43001,3.086989 a 2.8859897,2.8859897 0 1 0 5.39499,1.100003 m 0.065,-3.178995 c 0.16501,-1.476995 0.48501,-2.934985 0.873,-4.368975 a 1.7841856,1.7841856 0 0 0 -3.43399,-0.970003 48.999824,48.999824 0 0 1 -1.46999,4.329984 2.0959925,2.0959925 0 1 0 4.02999,1.009999 m 0.87399,-4.36998 a 111.9996,111.9996 0 0 1 1.51399,-5.103988 1.7530727,1.7530727 0 0 0 -3.33598,-1.078993 192.99931,192.99931 0 0 0 -1.612,5.212978 1.7840212,1.7840212 0 1 0 3.42299,1.00699 z m 1.51399,-5.103988 q 0.833,-2.589991 1.793,-5.134981 a 1.7500598,1.7500598 0 1 0 -3.275,-1.234995 119.99956,119.99956 0 0 0 -1.85398,5.290983 1.7539936,1.7539936 0 1 0 3.33499,1.081994 z m 1.793,-5.134981 q 0.96001,-2.547991 1.967,-5.075983 a 1.7499937,1.7499937 0 0 0 -3.25001,-1.295994 299.99893,299.99893 0 0 0 -1.99199,5.136982 1.7502363,1.7502363 0 0 0 3.275,1.235995 z m 1.967,-5.075983 a 254.99909,254.99909 0 0 1 1.94398,-4.747982 1.7499937,1.7499937 0 1 0 -3.22299,-1.360995 257.99907,257.99907 0 0 0 -1.971,4.813983 1.7499937,1.7499937 0 1 0 3.25001,1.294994 m 1.94398,-4.747982 c 0.99699,-2.356992 2.067,-4.682985 3.13399,-7.008977 a 1.7499937,1.7499937 0 1 0 -3.17998,-1.457992 c -1.08201,2.356991 -2.16801,4.716982 -3.177,7.105974 a 1.7499937,1.7499937 0 0 0 3.22299,1.360995 m 3.13399,-7.008977 a 454.99836,454.99836 0 0 1 3.37799,-7.249972 1.7499937,1.7499937 0 0 0 -3.15498,-1.512995 460.99836,460.99836 0 0 0 -3.40299,7.304975 1.7499937,1.7499937 0 0 0 3.17998,1.459994 m 3.37799,-7.250973 a 29.999893,29.999893 0 0 1 2.782,-4.625986 1.939993,1.939993 0 1 0 -3.27,-2.069992 108.99961,108.99961 0 0 0 -2.66698,5.181982 1.7499937,1.7499937 0 0 0 0.81999,2.333993 1.7499937,1.7499937 0 0 0 2.33499,-0.819997 m 2.782,-4.625986 a 48.999824,48.999824 0 0 1 3.76496,-4.561982 2.4729911,2.4729911 0 1 0 -3.94296,-2.939989 186.99934,186.99934 0 0 0 -3.093,5.431979 1.939993,1.939993 0 0 0 3.271,2.069992 m 3.76496,-4.561982 a 109.99961,109.99961 0 0 1 4.259,-4.349985 3.1169887,3.1169887 0 1 0 -4.72399,-4.019986 87.999681,87.999681 0 0 0 -3.47797,5.429982 2.4729911,2.4729911 0 0 0 3.94198,2.939989 m 4.25998,-4.349985 a 335.9988,335.9988 0 0 1 4.37998,-4.149984 3.619987,3.619987 0 1 0 -5.25997,-4.948983 77.999721,77.999721 0 0 0 -3.844,5.077982 3.1149888,3.1149888 0 0 0 0.78201,4.337985 3.1099889,3.1099889 0 0 0 3.94198,-0.318 m 4.37998,-4.147984 a 107.99961,107.99961 0 0 1 4.428,-3.902986 3.8219864,3.8219864 0 0 0 -4.89599,-5.867979 36.39987,36.39987 0 0 0 -4.79299,4.820982 3.619987,3.619987 0 0 0 5.25998,4.949983 m 4.42999,-3.902986 a 102.99963,102.99963 0 0 1 4.37398,-3.464988 3.7269866,3.7269866 0 0 0 -4.24699,-6.1209778 50.999816,50.999816 0 0 0 -5.02397,3.7179868 3.8219864,3.8219864 0 0 0 4.89599,5.867979 m 4.37497,-3.464988 a 294.99893,294.99893 0 0 1 4.14299,-3.0379885 3.3679879,3.3679879 0 0 0 -3.30598,-5.8219792 34.999875,34.999875 0 0 0 -5.084,2.7389899 3.7269866,3.7269866 0 1 0 4.24699,6.1199768 m 4.14299,-3.0369875 a 27.999898,27.999898 0 0 1 3.83998,-2.313992 2.8939897,2.8939897 0 0 0 -2.14499,-5.3579803 48.999824,48.999824 0 0 0 -5.00097,1.8499931 3.366988,3.366988 0 1 0 3.30598,5.8219792 m 3.83998,-2.313992 a 47.999828,47.999828 0 0 1 4.06,-1.8079941 2.4859911,2.4859911 0 0 0 -1.34601,-4.76398232 41.999849,41.999849 0 0 0 -4.85799,1.21399612 2.8949896,2.8949896 0 1 0 2.145,5.3579803 m 4.05999,-1.8079941 a 25.599908,25.599908 0 0 1 3.61198,-1.1199952 2.1299924,2.1299924 0 0 0 -0.61399,-4.20098485 38.999859,38.999859 0 0 0 -4.34499,0.55699773 2.4859911,2.4859911 0 1 0 1.347,4.76398232 m 3.61198,-1.1199952 a 24.99991,24.99991 0 0 1 3.57699,-0.5349978 1.8769934,1.8769934 0 0 0 -0.0881,-3.74498702 41.999849,41.999849 0 0 0 -4.103,0.07900347 2.1299924,2.1299924 0 1 0 0.614,4.20198495 m 3.577,-0.5359979 a 8.7999681,8.7999681 0 0 1 3.09597,0.2909988 1.7619937,1.7619937 0 0 0 0.993,-3.37998831 16.099941,16.099941 0 0 0 -4.17697,-0.65599751 1.8749934,1.8749934 0 1 0 0.0881,3.74498702 m 3.09601,0.2909988 a 9.3999659,9.3999659 0 0 1 2.70397,1.2639952 1.7508047,1.7508047 0 0 0 1.98301,-2.8859903 13.199952,13.199952 0 0 0 -3.694,-1.75899245 1.7622031,1.7622031 0 1 0 -1.012,3.37598685 z m 2.70397,1.2639952 a 14.999946,14.999946 0 0 1 2.443,2.1129926 1.7499937,1.7499937 0 1 0 2.55398,-2.3919915 18.499932,18.499932 0 0 0 -3.01499,-2.6069914 1.7505166,1.7505166 0 1 0 -1.98199,2.8859903 m 2.443,2.1129926 c 0.772,0.8249971 1.39899,1.7829927 1.89798,2.7949905 a 2.1099924,2.1099924 0 1 0 3.35699,-2.4529917 74.999731,74.999731 0 0 1 -2.70099,-2.7339903 1.7499937,1.7499937 0 0 0 -2.55499,2.3919915 z m 1.89798,2.7949905 c 0.57302,1.162995 0.99901,2.393991 1.32,3.647986 a 3.0119892,3.0119892 0 1 0 5.21299,-2.697991 46.999831,46.999831 0 0 0 -3.176,-3.4029867 2.1099924,2.1099924 0 0 0 -3.35699,2.4539907 m 1.32,3.646987 c 0.32801,1.279996 0.48201,2.601991 0.49399,3.922986 a 4.3639845,4.3639845 0 1 0 7.87399,-2.62699 73.999735,73.999735 0 0 0 -3.15499,-3.993987 3.0099893,3.0099893 0 0 0 -5.21299,2.697991 m 11.47996,6.948974 a 24.99991,24.99991 0 0 0 -3.11198,-5.652978 4.3629843,4.3629843 0 0 0 -7.87498,2.62699 76.999724,76.999724 0 0 1 -0.11596,4.827982 5.7569795,5.7569795 0 1 0 11.10095,-1.801994 m 1.96898,6.025979 a 54.999802,54.999802 0 0 0 -1.96898,-6.025979 5.7569795,5.7569795 0 0 0 -11.10095,1.801994 36.999867,36.999867 0 0 1 -0.588,4.752983 7.005975,7.005975 0 1 0 13.65793,-0.529997 m 1.26501,7.403973 a 42.599846,42.599846 0 0 0 -1.26501,-7.402974 7.005975,7.005975 0 0 0 -13.65793,0.528998 169.9994,169.9994 0 0 0 -1.05301,6.382979 8.0449712,8.0449712 0 1 0 15.97595,0.489997 m -0.11503,8.112971 c 0.298,-2.69199 0.34198,-5.412982 0.11503,-8.111971 a 8.0449712,8.0449712 0 0 0 -15.97495,-0.489999 30.399892,30.399892 0 0 1 -1.15999,4.946983 8.7490889,8.7490889 0 1 0 16.64993,5.38198 8.9999679,8.9999679 0 0 0 0.37001,-1.727994 m -1.296,7.655973 a 69.999749,69.999749 0 0 0 1.29499,-7.654972 8.7499685,8.7499685 0 0 0 -7.73097,-9.659966 8.7459686,8.7459686 0 0 0 -9.28796,6.003979 31.399888,31.399888 0 0 1 -2.02599,4.809983 9.5299659,9.5299659 0 0 0 4.05998,12.849954 c 4.66998,2.42799 10.42296,0.609997 12.84995,-4.058986 a 9.4999662,9.4999662 0 0 0 0.84,-2.289992 m -3.06599,8.821969 c 1.32498,-2.822989 2.37599,-5.77998 3.06599,-8.821969 a 9.5299659,9.5299659 0 0 0 -17.74993,-6.499976 81.999706,81.999706 0 0 1 -3.20198,5.581979 c -2.98501,4.777984 -1.53202,11.071961 3.24696,14.056944 4.77999,2.983994 11.07297,1.529994 14.05697,-3.247983 q 0.32299,-0.516997 0.58199,-1.069995 m -3.921,7.423972 a 87.999681,87.999681 0 0 0 3.921,-7.422972 c 2.395,-5.099982 0.20099,-11.175961 -4.89999,-13.569952 a 10.199964,10.199964 0 0 0 -12.98495,3.829986 70.999745,70.999745 0 0 1 -3.66,5.311981 c -3.55098,4.677983 -2.63797,11.349951 2.04,14.902938 4.67799,3.552995 11.34997,2.638991 14.90196,-2.038988 q 0.36999,-0.486997 0.68198,-1.013998 m -5.01897,7.419975 a 78.999717,78.999717 0 0 0 5.01897,-7.41897 c 2.993,-5.05398 1.322,-11.576957 -3.73298,-14.569948 a 10.636963,10.636963 0 0 0 -13.88994,2.719992 70.999745,70.999745 0 0 1 -4.31,5.112981 c -4.13297,4.482983 -3.84997,11.468951 0.63301,15.601937 4.48298,4.132987 11.46995,3.849988 15.60295,-0.632998 q 0.358,-0.389996 0.67799,-0.811997 m -6.04199,7.036971 a 73.999735,73.999735 0 0 0 6.04199,-7.036971 c 3.68599,-4.85898 2.73399,-11.78495 -2.12399,-15.469938 a 11.039961,11.039961 0 0 0 -14.78996,1.312996 57.999791,57.999791 0 0 1 -4.72496,4.596978 c -4.76499,4.11399 -5.293,11.309958 -1.18,16.075943 4.11398,4.76498 11.31195,5.291973 16.07692,1.178989 q 0.364,-0.313993 0.7,-0.657997 m -5.92997,5.67998 a 123.99956,123.99956 0 0 0 5.92997,-5.67998 c 4.40199,-4.499969 4.32,-11.717951 -0.17999,-16.118933 a 11.399959,11.399959 0 0 0 -15.41693,-0.478002 122.99956,122.99956 0 0 1 -5.27,4.304985 c -5.11298,3.94299 -6.06197,11.283953 -2.11898,16.39894 3.94298,5.112973 11.28496,6.061978 16.39793,2.118997 q 0.33801,-0.261002 0.657,-0.546987 m -6.92196,5.452964 a 70.999745,70.999745 0 0 0 6.92196,-5.451984 c 4.81199,-4.305981 5.22198,-11.696959 0.917,-16.508935 -4.08499,-4.564982 -11.00197,-5.202977 -15.85094,-1.462995 a 115.99957,115.99957 0 0 1 -5.39397,3.913992 c -5.39801,3.688979 -6.78499,11.052963 -3.097,16.449935 3.68698,5.396981 11.04996,6.784973 16.44894,3.097987 z m -6.20598,3.986985 c 2.12598,-1.237998 4.18298,-2.588994 6.20697,-3.986985 5.37599,-3.716979 6.72098,-11.088959 3.00398,-16.465938 -3.70199,-5.35597 -11.03496,-6.71498 -16.41092,-3.042985 -1.54501,1.054992 -3.111,2.083988 -4.72799,3.025985 -5.65198,3.292989 -7.56497,10.545971 -4.26999,16.199946 3.293,5.649971 10.54595,7.56396 16.19795,4.269977 m -6.10299,3.063986 a 52.99981,52.99981 0 0 0 6.10299,-3.063986 c 5.65298,-3.293989 7.56497,-10.546959 4.27098,-16.198932 -3.293,-5.652988 -10.54596,-7.56497 -16.19993,-4.270991 q -2.24401,1.309993 -4.503,2.596999 c -5.60998,3.199994 -7.56396,10.339952 -4.36498,15.949933 a 11.693958,11.693958 0 0 0 14.69394,4.986977 m -5.54197,2.066998 a 69.999749,69.999749 0 0 0 5.54197,-2.066998 c 5.95298,-2.505982 8.74798,-9.362959 6.24199,-15.313942 -2.506,-5.950978 -9.36197,-8.747967 -15.31296,-6.242975 q -0.648,0.272999 -1.25799,0.619998 a 42.999845,42.999845 0 0 1 -3.46298,1.778992 c -5.73001,2.612987 -8.25897,9.376965 -5.64601,15.107943 a 11.40596,11.40596 0 0 0 13.89598,6.116982 m -3.198,1.11798 a 56.999795,56.999795 0 0 1 3.198,-1.11798 c 5.99097,-1.943997 9.27296,-8.375973 7.32996,-14.366953 -1.94499,-5.990973 -8.37596,-9.272965 -14.36695,-7.328966 q -0.61998,0.200996 -1.21298,0.469995 c -0.91501,0.419002 -1.83901,0.828003 -2.79001,1.159993 -5.88696,2.061004 -8.98896,8.505966 -6.92698,14.393951 2.06101,5.88797 8.50599,8.98996 14.39397,6.92797 q 0.189,-0.0659 0.37499,-0.13801 m -3.20998,1.19 a 93.999659,93.999659 0 0 0 3.20998,-1.19 c 5.80999,-2.268981 8.68397,-8.818953 6.41499,-14.629938 -2.212,-5.666981 -8.51498,-8.563962 -14.25595,-6.553973 q -1.406,0.493009 -2.81199,0.982001 c -5.90699,2.054992 -9.02997,8.509966 -6.97398,14.417945 2.05399,5.906965 8.50996,9.027955 14.41695,6.973965 m -12.28027,-1.53403 c 1.86999,1.35199 4.12699,2.12199 6.42298,2.304 a 14.499947,14.499947 0 0 0 5.857,-0.77001 c 5.90697,-2.05598 9.02994,-8.510971 6.97396,-14.417944 -2.05599,-5.90698 -8.50996,-9.029959 -14.41694,-6.973969 -3.36,1.170002 -6.38298,3.506978 -8.01397,6.708977 a 10.399963,10.399963 0 0 0 3.17599,13.148946 m -0.0411,0.012 q 0.11398,0.0499 0.22001,0.11001 a 2.9999893,2.9999893 0 0 1 -0.17902,-0.12199 c 4.65499,3.36298 11.15497,2.31698 14.51996,-2.337996 3.36399,-4.654992 2.317,-11.155963 -2.339,-14.51995 -4.65498,-3.363986 -11.15596,-2.316991 -14.51994,2.337993 l -0.138,0.197005 -0.0105,-0.01003 a 8.7999681,8.7999681 0 0 0 -0.23599,12.444956 8.7999681,8.7999681 0 0 0 2.68099,1.899982 m -5.16597,-5.959973 c 0.46098,1.877997 1.58797,3.52699 3.09997,4.712983 a 10.299963,10.299963 0 0 0 2.066,1.24699 8.8029687,8.8029687 0 0 0 7.31996,-16.009917 8.8099686,8.8099686 0 0 0 -9.06295,1.056996 10.299963,10.299963 0 0 0 -1.839,1.832978 c -1.07998,1.403993 -1.743,3.113982 -1.81399,4.892982 a 8.1999706,8.1999706 0 0 0 0.23001,2.267999 m 0.24899,-1.889991 a 6.9649749,6.9649749 0 0 0 6.96497,6.963963 6.9649749,6.9649749 0 1 0 -6.96497,-6.964978 m 0.88501,0.0052 a 5.7399795,5.7399795 0 1 0 11.47894,0 5.739985,5.739985 0 0 0 -11.47997,0 m 10.35497,3.262005 a 5.6799797,5.6799797 0 0 0 0.796,-4.989985 5.9999784,5.9999784 0 0 0 -0.29699,-0.744001 5.6699796,5.6699796 0 0 0 -4.00499,-3.079988 5.6339797,5.6339797 0 0 0 -6.60296,4.459972 5.6339797,5.6339797 0 0 0 10.10995,4.354002"
     style="stroke-width:0.881621"
     id="path1" />
  <path
     fill="#1e1b1b"
     d="m 37.782943,117.21262 c 0.04101,-0.0449 0.110005,-0.091 0.162998,-0.13 q 0.207001,-0.14901 0.424999,-0.282 a 23.999913,23.999913 0 0 1 1.563995,-0.868 1.2199957,1.2199957 0 0 0 -1.041997,-2.20399 c -0.601997,0.25999 -1.203995,0.52599 -1.786992,0.825 -0.403999,0.20599 -0.816997,0.42499 -1.163996,0.722 a 1.3379952,1.3379952 0 1 0 1.839992,1.93699 m 0.017,0.002 c 0,-0.006 0,-0.0201 0.0061,-0.0251 a 1.3379952,1.3379952 0 0 0 -1.839994,-1.93401 11.999956,11.999956 0 0 0 -0.791998,0.70699 1.5499944,1.5499944 0 1 0 2.625991,1.25202 m 0.045,0.16 c -0.01801,-0.044 -0.05,-0.11398 -0.045,-0.16 a 1.5499944,1.5499944 0 0 0 -2.625991,-1.25202 7.9999714,7.9999714 0 0 0 -0.854995,0.98602 2.0449927,2.0449927 0 1 0 3.525987,0.42699 m 0.519998,1.45501 a 15.999942,15.999942 0 0 0 -0.519998,-1.45501 2.0469926,2.0469926 0 0 0 -3.525987,-0.42699 c -0.409998,0.54999 -0.703997,1.18201 -0.919998,1.83198 a 2.6069906,2.6069906 0 1 0 4.965983,0.0499 m 0.471997,1.396 a 28.999897,28.999897 0 0 1 -0.471997,-1.396 2.6069906,2.6069906 0 0 0 -4.965983,-0.0499 14.999946,14.999946 0 0 0 -0.489997,1.93101 3.0829888,3.0829888 0 0 0 2.459989,3.60098 3.0829888,3.0829888 0 0 0 3.467988,-4.08598 m -6.059978,3.05798 a 3.5179874,3.5179874 0 1 0 6.484979,-2.17598 4.6999831,4.6999831 0 0 1 -0.425001,-0.882 3.083989,3.083989 0 0 0 -5.927977,0.485 9.3999659,9.3999659 0 0 0 -0.132001,2.57298 m 0,0 q 0.08,0.90599 0.215001,1.806 a 3.9599859,3.9599859 0 1 0 6.765976,-3.34099 3.9999856,3.9999856 0 0 1 -0.495998,-0.64099 3.5179874,3.5179874 0 0 0 -6.484979,2.17598 m 0.215001,1.806 q 0.138999,0.92099 0.353998,1.82798 a 4.5049838,4.5049838 0 1 0 6.799975,-4.84697 1.9999928,1.9999928 0 0 1 -0.387997,-0.322 3.9599859,3.9599859 0 0 0 -6.765976,3.34099 m 0.353998,1.82798 a 11.999956,11.999956 0 0 0 0.764998,2.23001 5.0959817,5.0959817 0 1 0 6.263977,-6.95899 0.9999964,0.9999964 0 0 1 -0.229999,-0.11799 4.5059837,4.5059837 0 0 0 -6.799976,4.84697 m 0.765998,2.23001 q 0.433997,0.938 0.979996,1.816 a 5.7609794,5.7609794 0 1 0 5.255946,-8.78763 c -0.106003,-0.006 -0.198999,-0.059 -0.304999,-0.0881 a 5.0959817,5.0959817 0 0 0 -5.930978,7.06098 m 0.979996,1.81399 c 0.705999,1.14 1.666994,2.107 2.736989,2.90598 a 6.419977,6.419977 0 1 0 4.437985,-11.53795 63.999769,63.999769 0 0 0 -1.919994,-0.15499 5.7619793,5.7619793 0 0 0 -5.253981,8.78696 m 2.73599,2.90598 a 15.699944,15.699944 0 0 0 3.241989,1.847 6.9099752,6.9099752 0 1 0 3.041989,-13.25795 40.999853,40.999853 0 0 1 -1.845993,-0.127 6.419977,6.419977 0 0 0 -4.437985,11.53795 m 3.241989,1.847 a 18.999932,18.999932 0 0 0 3.803987,1.149 7.2429739,7.2429739 0 0 0 8.50397,-5.70998 7.241974,7.241974 0 0 0 -7.048975,-8.63997 57.999791,57.999791 0 0 1 -2.216993,-0.0571 6.9099752,6.9099752 0 0 0 -3.041989,13.25795 m 3.803987,1.149 c 1.107994,0.218 2.223992,0.39399 3.342987,0.54301 a 7.5089731,7.5089731 0 1 0 0.656998,-14.94397 c -0.846998,0.0369 -1.696994,0.0589 -2.54499,0.0519 a 7.241974,7.241974 0 0 0 -1.453995,14.34993 m 3.341987,0.542 c 1.342996,0.18 2.693991,0.28202 4.046986,0.32301 a 7.7669722,7.7669722 0 1 0 -0.607998,-15.48595 42.999845,42.999845 0 0 1 -2.78199,0.21901 7.5089731,7.5089731 0 0 0 -0.656998,14.94294 m 4.046986,0.324 c 1.509994,0.047 3.019989,0.009 4.529984,-0.072 A 8.1299707,8.1299707 0 1 0 54.108924,121.7256 c -0.801997,0.23001 -1.621994,0.43 -2.45399,0.52 a 7.768972,7.768972 0 0 0 0.607997,15.48595 m 4.529983,-0.0729 a 55.999799,55.999799 0 0 0 5.502982,-0.591 8.5789693,8.5789693 0 1 0 -2.600992,-16.95794 8.4999695,8.4999695 0 0 0 -1.329996,0.31401 137.9995,137.9995 0 0 1 -4.255984,1.30199 8.1299707,8.1299707 0 0 0 2.682991,15.93294 m 5.503981,-0.591 a 65.999762,65.999762 0 0 0 6.119976,-1.252 8.9699679,8.9699679 0 0 0 -4.387982,-17.39293 q -0.565999,0.143 -1.109997,0.358 a 73.999735,73.999735 0 0 1 -4.550983,1.643 8.5779693,8.5779693 0 0 0 3.929984,16.64393 m 6.118978,-1.252 a 314.99887,314.99887 0 0 1 6.118978,-1.46998 c 5.117982,-1.181 8.307971,-6.28798 7.125976,-11.40797 -1.180997,-5.11698 -6.288978,-8.30698 -11.40596,-7.12498 a 9.4999662,9.4999662 0 0 0 -1.760994,0.59201 133.99952,133.99952 0 0 1 -5.575979,2.37599 8.9699679,8.9699679 0 0 0 -5.033982,11.64196 8.9659674,8.9659674 0 0 0 10.531961,5.39399 m 6.118978,-1.47001 q 3.537987,-0.81799 7.069976,-1.65499 c 5.47498,-1.297 8.861966,-6.78798 7.564976,-12.26396 -1.297,-5.47598 -6.788979,-8.86298 -12.26396,-7.56498 q -0.894997,0.21101 -1.735993,0.58001 a 726.99739,726.99739 0 0 0 -6.675977,2.96199 9.5099658,9.5099658 0 0 0 -4.773983,12.57496 9.5099658,9.5099658 0 0 0 10.814961,5.36598 m 7.070011,-1.65434 q 3.629987,-0.858 7.268972,-1.67099 c 5.81798,-1.302 9.478962,-7.07298 8.176971,-12.88995 -1.299995,-5.81798 -7.071972,-9.47997 -12.888952,-8.17798 q -0.739997,0.165 -1.453997,0.434 a 156.99944,156.99944 0 0 0 -7.536971,3.05599 c -5.15698,2.257 -7.506973,8.26497 -5.249981,13.41995 a 10.189963,10.189963 0 0 0 11.683958,5.82997 m 7.268972,-1.67198 q 4.147985,-0.926 8.302971,-1.823 c 6.075986,-1.30999 9.937966,-7.29997 8.625976,-13.37495 -1.31,-6.07598 -7.298983,-9.93798 -13.373955,-8.62697 q -0.428006,0.0919 -0.845999,0.218 a 131.99952,131.99952 0 0 0 -8.874971,2.97299 c -5.576978,2.10399 -8.392969,8.32998 -6.289976,13.90896 a 10.789962,10.789962 0 0 0 12.455954,6.72497 m 8.302971,-1.823 a 277.999,277.999 0 0 1 8.392976,-1.67999 c 6.25997,-1.14998 10.39796,-7.15697 9.24796,-13.41595 -1.14999,-6.25799 -7.15697,-10.39796 -13.41594,-9.24796 q -0.23501,0.044 -0.467,0.096 c -3.145997,0.714 -6.263987,1.53999 -9.352973,2.46399 -5.955981,1.77799 -9.34297,8.04798 -7.563975,14.00394 a 11.255959,11.255959 0 0 0 13.158952,7.77997 m 8.392976,-1.67998 a 182.99934,182.99934 0 0 1 8.50597,-1.349 c 6.45497,-0.87598 10.97696,-6.81997 10.09997,-13.27695 -0.878,-6.45397 -6.82197,-10.97596 -13.27795,-10.09896 q -0.44601,0.0601 -0.88801,0.15501 a 800.99713,800.99713 0 0 0 -9.07595,2.00098 c -6.206005,1.411 -10.09398,7.58198 -8.683985,13.78896 1.367989,6.02398 7.24398,9.89696 13.319955,8.77996 m 8.50597,-1.349 c 3.264,-0.44299 6.53297,-0.853 9.80496,-1.23998 6.63298,-0.78101 11.37695,-6.79297 10.59396,-13.42696 -0.782,-6.63499 -6.79297,-11.37696 -13.42695,-10.59496 q -0.25998,0.0309 -0.51898,0.0729 a 209.99926,209.99926 0 0 0 -10.51798,1.96799 c -6.36997,1.367 -10.424972,7.63996 -9.05696,14.00995 a 11.799958,11.799958 0 0 0 13.12195,9.21197 m 9.80496,-1.23999 q 4.95999,-0.587 9.92897,-1.098 c 6.72797,-0.691 11.62295,-6.70598 10.93195,-13.43396 -0.69098,-6.72898 -6.70498,-11.62295 -13.43394,-10.932957 l -0.192,0.021 a 248.99911,248.99911 0 0 0 -10.58695,1.493987 c -6.594,1.06901 -11.07198,7.27997 -10.00297,13.87395 1.03699,6.39098 6.92396,10.83397 13.35494,10.07598 m 9.92897,-1.098 c 5.20298,-0.53401 10.41496,-0.99 15.62494,-1.453 6.81497,-0.604 11.84995,-6.61798 11.24596,-13.43295 -0.604,-6.81498 -6.61998,-11.849958 -13.43394,-11.243957 q -0.11504,0.0085 -0.22901,0.02195 c -5.302,0.57 -10.60596,1.133991 -15.90194,1.762006 -6.71597,0.796971 -11.51596,6.886951 -10.71995,13.603941 0.78799,6.64297 6.75996,11.42495 13.41394,10.74195 m 15.62494,-1.453 c 5.36499,-0.47599 10.73196,-0.95299 16.10293,-1.35999 6.89,-0.52199 12.05198,-6.53196 11.52996,-13.42196 -0.52199,-6.88997 -6.53197,-12.052936 -13.42194,-11.531937 l -0.10605,0.0099 c -5.51499,0.465 -11.01998,1.057 -16.52195,1.647991 -6.80198,0.730004 -11.72396,6.837976 -10.99395,13.639946 0.72198,6.713 6.68595,11.61297 13.40995,11.01597 m 16.10392,-1.36 q 5.231,-0.397 10.47296,-0.651 c 6.92299,-0.33898 12.25996,-6.22498 11.92198,-13.14795 -0.338,-6.92398 -6.22399,-12.261958 -13.14796,-11.923953 l -0.0741,0.0047 q -5.58997,0.306004 -11.16995,0.775004 c -6.88597,0.581001 -11.99796,6.633979 -11.41696,13.519949 0.57699,6.84397 6.56397,11.94296 13.41295,11.42396 m 10.47397,-0.65 q 5.23398,-0.256 10.47396,-0.36001 c 6.94896,-0.13399 12.47294,-5.87597 12.33793,-12.82495 -0.13399,-6.94998 -5.87696,-12.472946 -12.82494,-12.337941 l -0.081,0.0019 q -5.60697,0.144995 -11.20495,0.452995 c -6.92099,0.378994 -12.22596,6.296976 -11.84697,13.218956 0.38,6.89098 6.25098,12.18495 13.14497,11.84895 m 10.47495,-0.36 c 3.22299,-0.062 6.44497,-0.096 9.66897,-0.084 6.96497,0.0251 12.63295,-5.59997 12.65796,-12.56595 0.025,-6.96598 -5.60101,-12.631956 -12.56596,-12.657951 h -0.0569 c -3.42399,0.0028 -6.84997,0.05694 -10.27094,0.145997 -6.949,0.179996 -12.43596,5.957984 -12.25697,12.905944 0.179,6.91498 5.90698,12.38997 12.82395,12.25697 m 9.66896,-0.0849 q 4.196,0.014 8.38599,0.25601 c 6.95897,0.40499 12.92993,-4.90899 13.33394,-11.86895 0.406,-6.95898 -4.909,-12.927967 -11.86796,-13.332955 a 166.9994,166.9994 0 0 0 -9.81697,-0.278003 c -6.96497,0.0057 -12.60695,5.656978 -12.60094,12.621948 0.006,6.94397 5.62197,12.57695 12.56594,12.60195 m 8.38599,0.25601 c 2.56298,0.149 5.12297,0.36999 7.67096,0.687 6.91397,0.864 13.21995,-4.03998 14.08396,-10.95396 0.86198,-6.89998 -4.01999,-13.19796 -10.91897,-14.079961 -3.11199,-0.397998 -6.23898,-0.672983 -9.36997,-0.854984 -6.95997,-0.406001 -12.92996,4.908978 -13.33395,11.867945 -0.40599,6.95899 4.90897,12.92996 11.86797,13.33396 m 7.67096,0.687 c 2.13998,0.26801 4.27699,0.574 6.39698,0.97198 6.82397,1.27799 13.39296,-3.21497 14.67194,-10.03895 1.258,-6.70498 -3.06198,-13.188962 -9.73296,-14.610946 -2.69999,-0.577009 -5.43198,-1.005002 -8.16997,-1.355003 -6.91297,-0.883986 -13.23196,4.001987 -14.11496,10.912959 -0.88599,6.90998 4.00199,13.23196 10.91198,14.11396 z m 6.39698,0.97198 c 1.80399,0.33802 3.60598,0.69401 5.40098,1.08001 6.71197,1.44299 13.32296,-2.82799 14.76695,-9.53997 1.36698,-6.35198 -2.391,-12.68595 -8.62198,-14.531949 a 86.999688,86.999688 0 0 0 -6.60697,-1.657987 c -6.78798,-1.449 -13.46795,2.880986 -14.91695,9.670956 -1.44899,6.78998 2.883,13.46896 9.67198,14.91695 q 0.15199,0.033 0.30599,0.0621 m 5.40098,1.07999 c 1.50299,0.32301 3,0.66702 4.48997,1.041 6.53999,1.64199 13.17197,-2.32798 14.81297,-8.86896 a 12.206957,12.206957 0 0 0 -7.67498,-14.44696 96.999656,96.999656 0 0 0 -5.48398,-1.796986 c -6.58199,-1.94899 -13.49695,1.805986 -15.44795,8.387966 -1.95,6.58298 1.805,13.49995 8.38698,15.44995 q 0.45398,0.13399 0.91699,0.23301 m 4.49099,1.04198 c 0.93499,0.23501 1.87199,0.48001 2.78299,0.8 6.21896,2.18399 13.02996,-1.088 15.21492,-7.30697 a 11.939957,11.939957 0 0 0 -5.30496,-14.29695 c -1.76298,-1.016 -3.64599,-1.81799 -5.55598,-2.51299 -6.33798,-2.299996 -13.33995,0.97399 -15.63996,7.31197 -2.29998,6.33799 0.973,13.33995 7.31098,15.63995 q 0.58701,0.214 1.19201,0.36499 m 2.78299,0.8 c 0.23598,0.084 0.472,0.17001 0.703,0.26801 q 0.0799,0.0321 0.15598,0.07 c 0.0251,0.0117 0.0131,0.006 -0.005,-0.005 5.65099,3.03399 12.69195,0.913 15.72695,-4.73999 a 11.609958,11.609958 0 0 0 -1.95299,-13.63596 c -1.388,-1.41199 -3.00799,-2.57699 -4.71998,-3.56298 -5.71199,-3.288984 -13.00996,-1.325 -16.29895,4.38698 -3.28998,5.71198 -1.32498,13.00996 4.38698,16.29894 q 0.95699,0.55201 2.002,0.918 m -0.38299,-0.434 c 1.53998,1.096 1.34598,0.868 0.925,0.56 -0.12101,-0.0881 -0.476,-0.36199 0.004,0.031 4.83198,3.97298 11.96996,3.27598 15.94295,-1.55599 A 11.329959,11.329959 0 0 0 248.92823,110.68 c -0.80799,-1.45799 -1.84999,-2.776 -3.01699,-3.96198 -4.49599,-4.57298 -11.84995,-4.635 -16.42393,-0.13701 -4.57399,4.49799 -4.634,11.85097 -0.13601,16.42394 q 0.71601,0.72701 1.547,1.32001 m 0.25999,-0.002 c 0.22601,0.21699 0.45002,0.43198 0.671,0.65399 4.23898,4.28399 11.14797,4.31899 15.43195,0.08 a 10.999961,10.999961 0 0 0 2.156,-3.025 c 0.99998,-2.07498 1.34998,-4.42798 1.05498,-6.70997 a 13.099953,13.099953 0 0 0 -1.54299,-4.64099 c -3.03099,-5.47298 -9.92396,-7.45397 -15.39693,-4.42298 -5.47299,3.03099 -7.45197,9.92297 -4.422,15.39496 a 11.399959,11.399959 0 0 0 2.04901,2.66997 m 0.48498,0.562 c 3.64399,4.38599 10.15295,4.98799 14.53995,1.34301 q 0.25,-0.207 0.48601,-0.43 a 12.899955,12.899955 0 0 0 2.74699,-3.766 c 2.61298,-5.42997 0.32998,-11.95195 -5.09999,-14.56494 -5.43197,-2.613 -11.95295,-0.33001 -14.56494,5.10098 a 10.909961,10.909961 0 0 0 1.17498,11.37697 z m -1.98799,-3.51597 a 9.6039654,9.6039654 0 0 0 10.87496,7.39297 c 2.286,-0.363 4.44799,-1.37 6.13998,-2.96399 4.14699,-3.913 4.33899,-10.44797 0.42601,-14.59695 -3.913,-4.14999 -10.44697,-4.34 -14.59695,-0.427 a 10.319963,10.319963 0 0 0 -3.004,9.71298 z m 8.72897,7.61297 a 19.999928,19.999928 0 0 0 2.145,-0.22 c 5.23998,-0.82901 8.81397,-5.74797 7.98496,-10.98697 -0.82899,-5.23898 -5.74797,-8.81397 -10.98597,-7.98598 a 9.5999659,9.5999659 0 0 0 -7.91096,7.57298 l -0.16998,0.606 a 8.7639682,8.7639682 0 0 0 6.20895,10.72995 8.7999681,8.7999681 0 0 0 2.728,0.28402 m -8.38096,-1.88299 c 1.27598,0.49998 2.56599,0.97199 3.88599,1.33997 1.96398,0.54702 4.01197,0.79502 6.02197,0.32502 a 8.7649684,8.7649684 0 0 0 6.54197,-10.52897 8.7669685,8.7669685 0 0 0 -15.80394,-2.90799 c -1.019,1.512 -1.99101,3.05699 -2.97599,4.59098 a 4.8819825,4.8819825 0 0 0 2.33,7.18198 m -126.83223,15.55198 a 1.1879957,1.1879957 0 0 0 2.31999,-0.29799 c 0.006,-0.155 0.098,-0.314 0.16198,-0.44999 q 0.182,-0.378 0.39001,-0.741 a 1.403995,1.403995 0 1 0 -2.56299,-1.102 10.999961,10.999961 0 0 0 -0.33899,1.357 c -0.066,0.40798 -0.096,0.83599 0.03,1.23398 m 2.68999,-1.23599 a 1.685994,1.685994 0 1 0 -2.36199,-1.482 3.9999856,3.9999856 0 0 1 -0.045,0.22001 1.403995,1.403995 0 0 0 2.408,1.26 z m 2.58299,3.18198 c -0.095,-1.24597 -0.205,-2.50398 -0.454,-3.72897 a 7.1999741,7.1999741 0 0 0 -0.38701,-1.35199 c -0.413,-0.99001 -1.30398,-1.79002 -2.46598,-1.638 a 2.0999926,2.0999926 0 0 0 -0.88099,0.33098 c -0.776,0.51803 -1.051,1.50302 -1.33301,2.33901 a 93.999659,93.999659 0 0 0 -1.04299,3.34699 3.355988,3.355988 0 1 0 6.56398,0.70198 m -0.334,14.29395 c 0.20499,-2.72999 0.37,-5.46398 0.435,-8.19995 0.05,-2.03 0.053,-4.06799 -0.10099,-6.094 a 3.355988,3.355988 0 0 0 -6.56399,-0.70198 c -1.28699,4.33297 -2.715981,8.62297 -4.143983,12.90994 a 5.3319807,5.3319807 0 1 0 10.373973,2.08599 m -2.26101,17.50395 c 1.11301,-5.78098 1.82001,-11.63595 2.26101,-17.50395 a 5.3319807,5.3319807 0 0 0 -10.374975,-2.08499 1497.9947,1497.9947 0 0 1 -5.411978,15.96895 7.0189748,7.0189748 0 1 0 13.525943,3.61999 m -2.23199,11.29295 c 0.78501,-3.75598 1.50701,-7.52497 2.23199,-11.29295 a 7.0189748,7.0189748 0 0 0 -13.525943,-3.61999 189.99932,189.99932 0 0 1 -2.21699,6.12297 c -0.482001,1.251 -0.975998,2.506 -1.551999,3.72001 a 8.0049712,8.0049712 0 0 0 3.794994,10.66195 8.0019713,8.0019713 0 0 0 11.267948,-5.59199 m -0.65699,3.253 c -0.0131,0.13799 -0.035,0.26 0,0.0549 q 0.0569,-0.33299 0.12199,-0.66598 c 0.16901,-0.882 0.352,-1.763 0.535,-2.642 a 7.9999714,7.9999714 0 0 0 -6.196975,-9.47097 8.0049712,8.0049712 0 0 0 -8.866965,4.39998 q -0.388001,0.81801 -0.790997,1.63 -0.14,0.279 -0.284999,0.557 c -0.06799,0.12999 -0.132,0.264 -0.213998,0.385 a 8.6299691,8.6299691 0 0 0 2.218988,12.00095 8.6299691,8.6299691 0 0 0 12.000966,-2.21899 8.639969,8.639969 0 0 0 1.47699,-4.03 m -17.690097,-0.63892 c 0.007,0.93499 0.149999,1.86998 0.436998,2.76098 a 8.8999681,8.8999681 0 0 0 1.93999,3.33199 8.8999681,8.8999681 0 0 0 6.013978,2.83399 8.7999681,8.7999681 0 0 0 2.362987,-0.19 8.7999681,8.7999681 0 0 0 2.252998,-0.828 8.8899678,8.8899678 0 0 0 4.596976,-6.56299 q 0.0531,-0.35298 0.086,-0.707 a 8.6299691,8.6299691 0 0 0 -6.98898,-9.34195 v 0.005 q -0.228994,-0.049 -0.463003,-0.0881 l -8.7e-4,0.0105 -0.01306,-0.002 0.0019,-0.0105 a 8.8329679,8.8329679 0 0 0 -10.115966,7.32998 8.9999679,8.9999679 0 0 0 -0.109994,1.46 m 17.664943,-0.13401 0.002,-0.19801 0.01,-0.56798 q 0.0239,-1.029 0.0519,-2.057 a 8.619969,8.619969 0 0 0 -8.388985,-8.84397 8.619969,8.619969 0 0 0 -8.695967,7.00998 79.999714,79.999714 0 0 0 -0.413998,2.327 c -0.129,0.81398 -0.235997,1.63599 -0.229998,2.46298 a 8.8332243,8.8332243 0 0 0 17.665948,-0.133 m 0.063,-2.82299 c 0.003,-0.13199 0.0261,-0.264 0.0461,-0.392 a 11.999956,11.999956 0 0 1 0.2,-0.94499 c 0.276,-1.112 0.652,-2.19999 1.054,-3.27198 a 8.4049699,8.4049699 0 0 0 -4.915986,-10.82397 8.4059697,8.4059697 0 0 0 -10.82496,4.91499 82.999702,82.999702 0 0 0 -1.603994,4.63696 c -0.412,1.33 -0.779999,2.67801 -1.039998,4.04599 a 8.619969,8.619969 0 1 0 16.936938,3.211 8.9999679,8.9999679 0 0 0 0.14801,-1.376 m 1.29999,-4.60998 a 99.99964,99.99964 0 0 1 2.06399,-5.016 229.99917,229.99917 0 0 1 3.08598,-6.70297 7.539973,7.539973 0 0 0 -12.817949,-7.79796 c -1.704992,2.252 -3.329984,4.56998 -4.78598,6.98997 -1.269997,2.112 -2.419988,4.30999 -3.286987,6.61998 a 8.4069698,8.4069698 0 0 0 15.739946,5.90799 m 5.15097,-11.71998 a 53.499809,53.499809 0 0 1 8.26599,-12.47395 6.6759761,6.6759761 0 0 0 -9.98398,-8.86196 223.9992,223.9992 0 0 0 -11.099959,13.53795 7.540973,7.540973 0 1 0 12.818959,7.79897 m 8.26498,-12.47496 c 1.49699,-1.68699 3.06797,-3.31797 4.77197,-4.79997 1.206,-1.04801 2.487,-2.036 3.883,-2.819 a 6.1119781,6.1119781 0 0 0 -4.83299,-11.15696 c -2.59999,0.82001 -5.00999,2.168 -7.20298,3.778 -2.42699,1.78098 -4.60598,3.88697 -6.60298,6.13597 a 6.6759761,6.6759761 0 0 0 9.98398,8.86196 m 8.65497,-7.61897 c 0.94599,-0.531 1.94798,-1.01199 3.00497,-1.273 a 4.3999842,4.3999842 0 0 1 0.91201,-0.14298 c 0.11095,-0.005 0.228,-0.007 0.33699,0.0149 a 5.8449789,5.8449789 0 1 0 1.28499,-11.57596 c -1.65998,-0.038 -3.32198,0.14 -4.95397,0.438 -1.83498,0.33501 -3.63999,0.82 -5.41798,1.382 a 6.1119781,6.1119781 0 1 0 4.83299,11.15695 m 3.30597,-1.687 a 6.4869767,6.4869767 0 1 0 12.52196,-3.29698 c -0.73399,-2.22598 -2.006,-4.28598 -3.85999,-5.74798 -1.832,-1.44598 -4.10698,-2.19099 -6.42898,-2.24499 a 5.8459789,5.8459789 0 0 0 -2.23598,11.29996 z m 12.73997,10.44298 c 0.44199,-2.39 0.73799,-4.81797 0.73299,-7.25098 -0.006,-2.19199 -0.262,-4.40197 -0.951,-6.48997 a 6.4859768,6.4859768 0 0 0 -12.58095,2.94999 c 0.0261,0.18999 0.012,0.38801 -0.007,0.57701 a 6.9999749,6.9999749 0 0 1 -0.225,1.155 c -0.374,1.38598 -0.98698,2.70698 -1.65397,3.97396 a 7.8599719,7.8599719 0 0 0 3.29996,10.61398 7.8599719,7.8599719 0 0 0 11.38497,-5.52998 m -2.96699,12.80495 c 1.22199,-4.21 2.17099,-8.49597 2.96699,-12.80396 a 7.8599719,7.8599719 0 0 0 -14.68493,-5.08499 q -2.85201,5.427 -5.71,10.84997 c -2.43298,4.61498 -0.664,10.32896 3.95099,12.76195 4.615,2.433 10.32897,0.663 12.76195,-3.95198 a 9.3999659,9.3999659 0 0 0 0.715,-1.772 m -1.59999,6.05298 c 0.11002,-0.63999 0.28399,-1.273 0.447,-1.89998 a 146.99948,146.99948 0 0 1 1.15299,-4.153 9.4449661,9.4449661 0 0 0 -6.43998,-11.70494 9.4459662,9.4459662 0 0 0 -10.98895,4.66796 c -0.83501,1.58301 -1.64,3.187 -2.344,4.83398 -0.67399,1.57 -1.263,3.196 -1.55198,4.88599 -0.93001,5.44697 2.73197,10.61695 8.17795,11.54795 5.44599,0.931 10.61797,-2.73098 11.54796,-8.17796 m -15.88494,7.61796 q 0.59001,0.44502 1.238,0.79401 v 0.002 c 0.582,0.315 1.194,0.56999 1.82799,0.75999 l 4.405,0.28199 q 0.28198,-0.047 0.56,-0.11002 c 2.94997,-0.67699 5.34996,-2.69399 6.64996,-5.35198 0.265,-0.54 0.482,-1.1 0.66201,-1.67498 0.238,-0.75801 0.40799,-1.537 0.54198,-2.32 0.93001,-5.44598 -2.73198,-10.61695 -8.17797,-11.54695 -5.44598,-0.93001 -10.61695,2.72998 -11.54794,8.17797 -0.199,1.16798 -0.27701,2.35999 -0.17301,3.54097 0.0901,1.03 0.31701,2.04799 0.68899,3.01399 a 10.139963,10.139963 0 0 0 3.32499,4.43299 m 15.05695,-6.15997 q 0.178,-0.39699 0.373,-0.78601 a 8.5649693,8.5649693 0 0 0 -15.34694,-7.60697 v 0.004 l -0.006,-0.004 a 9.1225179,9.1225179 0 0 0 12.00395,13.73995 9.1299672,9.1299672 0 0 0 2.99097,-5.34297 z m 0.373,-0.78601 c 0.69299,-1.39898 1.349,-2.81697 1.99699,-4.23697 a 487.99824,487.99824 0 0 0 2.74199,-6.12799 7.1739742,7.1739742 0 0 0 -11.70195,-7.89997 c -1.70499,1.752 -3.36799,3.54998 -4.90498,5.44999 -1.31,1.623 -2.55,3.33499 -3.48001,5.20997 a 8.5643968,8.5643968 0 0 0 15.34796,7.60497 m 4.73999,-10.36496 c 0.96599,-2.19499 2.26699,-4.23898 3.68197,-6.16998 1.90201,-2.59499 4.052,-5.00497 6.31499,-7.28897 a 5.7849792,5.7849792 0 0 0 -8.21897,-8.14197 2296.9917,2296.9917 0 0 0 -13.48095,13.69996 7.1739742,7.1739742 0 1 0 11.70195,7.89997 m 9.99797,-13.45796 a 182.99934,182.99934 0 0 1 7.32396,-7.03497 c 2.002,-1.80999 4.056,-3.56599 6.19999,-5.20298 a 4.8489825,4.8489825 0 0 0 -4.859,-8.30898 c -2.97898,1.284 -5.75698,3.006 -8.36195,4.93099 -3.041,2.24799 -5.85998,4.78898 -8.52197,7.47397 a 5.7845308,5.7845308 0 0 0 8.21897,8.14197 m 13.52495,-12.23795 a 30.999888,30.999888 0 0 1 2.37999,-1.65899 14.999946,14.999946 0 0 1 1.85899,-1.00201 c 0.364,-0.15898 0.74499,-0.30899 1.13799,-0.37999 0.34001,-0.061 -0.0219,-0.0369 0.432,0.0471 a 4.0899852,4.0899852 0 0 0 1.493,-8.04197 c -1.85099,-0.344 -3.76798,-0.064 -5.57598,0.38801 -2.26099,0.56599 -4.44898,1.41798 -6.58599,2.33999 a 4.8499825,4.8499825 0 1 0 4.86,8.30797 m 4.86098,-3.29199 c 0.91701,0.41699 0.45,0.21 0.335,0.098 a 0.9999964,0.9999964 0 0 1 0.077,0.12401 c 0.10395,0.19299 0.17299,0.40498 0.22999,0.616 0.093,0.35 0.15201,0.71099 0.19301,1.07198 a 5.0729818,5.0729818 0 1 0 9.56297,-2.86299 c -0.83501,-1.645 -1.888,-3.20499 -3.26999,-4.44098 -1.323,-1.187 -2.93401,-2.02399 -4.68699,-2.35 a 4.0899852,4.0899852 0 0 0 -2.43999,7.74398 m 14.21495,13.69995 c -0.38599,-2.80601 -0.86799,-5.60597 -1.56899,-8.34996 -0.553,-2.15999 -1.23799,-4.31199 -2.248,-6.30398 a 5.0719819,5.0719819 0 0 0 -9.56496,2.86398 c 0.0641,0.56399 0.0571,1.13599 0.025,1.70198 a 21.999922,21.999922 0 0 1 -0.26,2.287 c -0.36,2.248 -0.94199,4.46099 -1.589,6.64199 a 7.800972,7.800972 0 1 0 15.20595,1.15799 m -2.45697,25.68191 c 1.18199,-4.48599 2.09798,-9.05498 2.55399,-13.67496 0.39399,-3.98699 0.44999,-8.03196 -0.0969,-12.00795 a 7.7999721,7.7999721 0 0 0 -15.20594,-1.15699 c -0.89799,3.02298 -1.92699,6.00497 -3.01498,8.96396 a 286.99897,286.99897 0 0 1 -4.36399,11.08196 c -2.25601,5.42998 0.31698,11.66195 5.74598,13.91794 5.43097,2.256 11.66095,-0.31699 13.91795,-5.74599 a 10.999961,10.999961 0 0 0 0.46399,-1.37698 m -10.59996,28.1479 c 4.43399,-9.00996 8.04497,-18.43494 10.59996,-28.1479 1.496,-5.68699 -1.89998,-11.50996 -7.58796,-13.00495 a 10.645962,10.645962 0 0 0 -12.53996,6.20998 c -3.474,8.36096 -7.23798,16.59995 -11.23597,24.72092 -2.82299,5.73397 -0.46298,12.66996 5.27198,15.49294 5.73299,2.82298 12.66897,0.46299 15.49195,-5.27199 m -27.3369,17.79594 a 7.6129726,7.6129726 0 0 0 13.20995,4.33698 c 2.68199,-2.95299 5.01397,-6.21898 7.15299,-9.58095 2.56898,-4.04001 4.85997,-8.25698 6.97396,-12.55097 2.82199,-5.73399 0.462,-12.66996 -5.27299,-15.49294 -5.73296,-2.823 -12.66795,-0.46299 -15.49094,5.27099 -2.29999,4.66996 -4.21398,9.55695 -5.42997,14.62394 -1.046,4.35997 -1.604,8.91297 -1.143,13.39195 m 9.67397,20.14092 a 2.3769914,2.3769914 0 0 0 2.73098,-3.83498 c -0.76398,-0.72099 -1.37998,-1.60499 -1.70398,-2.61199 -0.26902,-0.83799 -0.32301,-1.72599 -0.22801,-2.59699 0.13399,-1.217 0.535,-2.39099 1.03399,-3.50199 0.64101,-1.42798 1.458,-2.77499 2.34301,-4.06397 a 7.6149727,7.6149727 0 1 0 -13.88496,-4.561 c -0.086,2.56998 0.03,5.15699 0.486,7.69197 0.36099,2.00801 0.939,3.98499 1.82099,5.82998 0.83899,1.75001 1.95599,3.36499 3.341,4.72699 a 16.99994,16.99994 0 0 0 4.06098,2.92198 m -14.15296,23.84792 a 1.1879957,1.1879957 0 0 0 2.32801,-0.0105 c 0.0271,-0.126 0.0901,-0.237 0.15299,-0.35 0.10302,-0.18299 0.217,-0.361 0.33199,-0.535 a 1.3959949,1.3959949 0 0 0 -0.38999,-1.93599 1.3959949,1.3959949 0 0 0 -2.101,0.73001 c -0.11503,0.35499 -0.21998,0.71498 -0.291,1.08199 -0.0639,0.33499 -0.1,0.68299 -0.0299,1.01999 m 0.28,-1.942 a 1.3959949,1.3959949 0 0 0 2.39797,1.217 1.7439939,1.7439939 0 1 0 -2.40199,-1.217 z m 3.79997,-2.19499 a 2.6499905,2.6499905 0 0 0 -1.42898,-0.80698 2.5799907,2.5799907 0 0 0 -2.30901,0.70198 2.5999907,2.5999907 0 1 0 3.736,0.105 m 0.56,0.612 -0.56,-0.612 a 2.5999907,2.5999907 0 0 0 -3.736,-0.10593 l -0.59299,0.581 a 3.4029878,3.4029878 0 1 0 4.88998,0.13699 m 1.912,6.26697 c -0.137,-1.11599 -0.30002,-2.23498 -0.56301,-3.32998 -0.25299,-1.049 -0.60798,-2.127 -1.34899,-2.93798 a 3.4029878,3.4029878 0 0 0 -4.88998,-0.136 c -0.63501,0.62199 -1.06399,1.434 -1.45299,2.22398 a 43.999842,43.999842 0 0 0 -1.28001,2.92698 4.9669822,4.9669822 0 1 0 9.53397,1.253 m 0.23401,10.74396 c 0.0779,-1.98599 0.11596,-3.97198 0.074,-5.95797 -0.0321,-1.59798 -0.112,-3.19901 -0.30699,-4.78599 a 4.9649822,4.9649822 0 0 0 -9.53499,-1.25198 67.999755,67.999755 0 0 0 -1.55997,4.33898 147.99947,147.99947 0 0 0 -1.69301,5.58297 6.6399761,6.6399761 0 0 0 4.56999,8.20298 6.6399761,6.6399761 0 0 0 8.45096,-6.12997 m -1.11398,14.33294 c 0.52599,-4.76298 0.92899,-9.54297 1.11398,-14.33196 a 6.6389763,6.6389763 0 0 0 -13.01995,-2.07399 436.99843,436.99843 0 0 1 -3.95397,13.03997 8.1459709,8.1459709 0 0 0 5.28997,10.23495 8.1459709,8.1459709 0 0 0 10.56997,-6.86897 m -2.06,13.74594 c 0.92801,-4.53996 1.55199,-9.14196 2.06,-13.74594 a 8.1459709,8.1459709 0 0 0 -7.20298,-8.98998 8.1459709,8.1459709 0 0 0 -8.65696,5.624 c -1.28401,4.03398 -2.61499,8.05496 -4.07799,12.02694 a 9.3199667,9.3199667 0 0 0 5.52797,11.96695 c 4.82799,1.77901 10.18597,-0.69699 11.96496,-5.52596 q 0.243,-0.66301 0.385,-1.35601 m -2.41399,9.66697 c 1.016,-3.16198 1.74999,-6.41397 2.41399,-9.66697 1.03,-5.04197 -2.22299,-9.96595 -7.26598,-10.99596 a 9.3199667,9.3199667 0 0 0 -10.61195,5.91098 c -0.98301,2.66998 -1.98,5.33598 -3.06499,7.96597 -2.08101,5.03998 0.319,10.81497 5.35997,12.89495 5.03999,2.08 10.81497,-0.31899 12.89495,-5.35998 q 0.15301,-0.36899 0.27401,-0.74999 m -3.61799,7.67897 c 1.64999,-2.31499 2.754,-4.98398 3.61799,-7.67797 a 9.8749648,9.8749648 0 0 0 -18.52992,-6.78598 l -2.085,5.04698 c -2.066,4.99 0.30399,10.70998 5.29399,12.77497 a 9.7799652,9.7799652 0 0 0 11.70294,-3.36 m -2.93098,3.55899 c 1.12499,-1.04999 2.04198,-2.30999 2.93098,-3.55699 3.13499,-4.39798 2.11199,-10.50395 -2.28598,-13.63994 -4.39698,-3.13401 -10.50398,-2.11001 -13.63796,2.28698 a 9.7999645,9.7999645 0 0 0 -1.07299,1.93599 11.999956,11.999956 0 0 1 -0.17002,0.395 c -0.0799,0.18001 -0.17398,0.23601 -0.315,0.458 -2.83997,4.43999 -1.54198,10.34297 2.90001,13.18196 a 9.5399655,9.5399655 0 0 0 11.64995,-1.061 m -15.97593,-5.08298 a 9.4499659,9.4499659 0 0 0 3.18498,5.45999 9.5699652,9.5699652 0 0 0 8.53997,1.94799 9.7999645,9.7999645 0 0 0 4.25199,-2.324 c 3.85498,-3.59599 4.06597,-9.63596 0.47,-13.48996 -3.59499,-3.85597 -9.63498,-4.06596 -13.48996,-0.46998 a 9.8999643,9.8999643 0 0 0 -1.91499,2.44998 9.6399652,9.6399652 0 0 0 -1.04199,6.42598 m 11.13996,-8.46996 c -0.52701,-0.52101 -0.98501,-1.11601 -1.42199,-1.713 a 3.3329882,3.3329882 0 0 0 -6.019,1.89 c -0.0159,0.68999 -0.0499,1.38798 -0.17499,2.06899 a 6.129978,6.129978 0 1 0 10.26696,6.69997 6.129978,6.129978 0 0 0 -2.64699,-8.95296"
     style="stroke-width:0.881621"
     id="path2" />
  <path
     fill="#1e1b1b"
     d="m 6.8110548,322.45489 c 0.6149978,-0.731 1.4549949,-1.45199 2.4549909,-1.5 a 1.2030891,1.2030891 0 0 0 -0.030003,-2.40598 c -1.5959942,-0.04 -3.1509886,0.44998 -4.5759834,1.13399 a 1.7949936,1.7949936 0 1 0 2.1509922,2.77199 m 0.01,0.07 a 0.69999749,0.69999749 0 0 1 0.1100027,-0.23001 1.7949936,1.7949936 0 0 0 -2.0869925,-2.68898 c -1.3469952,0.47198 -2.5389909,1.27599 -3.3899877,2.43299 a 3.1499887,3.1499887 0 1 0 5.3679806,0.48399 z m -6.79097568,5.24997 a 4.8999824,4.8999824 0 0 0 5.24298448,4.52999 4.8999824,4.8999824 0 0 0 2.538991,-8.84196 5.5999799,5.5999799 0 0 1 -0.7599974,-0.643 1.2999953,1.2999953 0 0 1 -0.2349992,-0.30601 3.1499887,3.1499887 0 0 0 -5.3619808,-0.47499 c -1.20599564,1.64299 -1.56999432,3.73799 -1.42499483,5.73497 m 0,0 c 0.21399923,2.94699 1.76399363,5.61798 3.83098633,7.66498 a 6.4729768,6.4729768 0 1 0 6.6059726,-10.73897 c -0.9169954,-0.30599 -1.8689914,-0.661 -2.6539885,-1.23599 a 4.8999824,4.8999824 0 0 0 -7.78297213,4.30998 m 3.83098633,7.66498 a 77.999721,77.999721 0 0 0 4.465984,4.09298 7.7009724,7.7009724 0 1 0 7.1359743,-13.26695 137.9995,137.9995 0 0 1 -4.995984,-1.565 6.4719769,6.4719769 0 0 0 -6.6069743,10.73897 m 4.4659839,4.09399 a 31.199888,31.199888 0 0 0 6.1799774,4.08198 8.5159694,8.5159694 0 0 0 11.432958,-3.79099 8.5149695,8.5149695 0 0 0 -3.790985,-11.43196 8.4999695,8.4999695 0 0 0 -1.352997,-0.54 528.99811,528.99811 0 0 0 -5.332979,-1.58599 7.6999724,7.6999724 0 0 0 -7.1359744,13.26696 m 6.1799774,4.08198 c 2.970989,1.49199 6.276977,2.23599 9.551966,2.69698 a 9.0599675,9.0599675 0 0 0 2.524991,-17.94192 8.9999679,8.9999679 0 0 0 -1.242995,-0.0881 26.999903,26.999903 0 0 1 -2.994991,-0.148 c -0.519997,-0.0589 -1.048996,-0.132 -1.549995,-0.283 a 8.5169694,8.5169694 0 0 0 -10.619961,5.68398 8.5159694,8.5159694 0 0 0 4.329984,10.07996 m 9.552967,2.697 c 2.016993,0.28199 4.051985,0.418 6.08698,0.47599 2.355989,0.0659 4.714981,0.0251 7.069973,-0.075 5.314981,-0.224 9.442965,-4.71598 9.217967,-10.03194 -0.225,-5.31698 -4.716984,-9.44298 -10.032964,-9.21898 q -0.366999,0.016 -0.731999,0.0601 a 128.99955,128.99955 0 0 1 -5.934976,0.58298 c -1.460997,0.105 -2.926991,0.18002 -4.392985,0.17601 a 9.0599675,9.0599675 0 0 0 -9.078969,9.03996 9.0599675,9.0599675 0 0 0 7.796973,8.99097 m 13.156953,0.40101 c 5.803979,-0.24601 11.597958,-0.703 17.381937,-1.23401 5.63198,-0.518 9.776965,-5.50197 9.259967,-11.13495 -0.517999,-5.62999 -5.501981,-9.77497 -11.13396,-9.25796 a 10.999961,10.999961 0 0 0 -0.689998,0.0881 c -5.439981,0.875 -10.891961,1.696 -16.364942,2.34701 a 9.6339651,9.6339651 0 0 0 1.546996,19.19192 m 17.381937,-1.234 q 11.439959,-1.04998 22.882917,-2.09 c 6.009978,-0.54599 10.438963,-5.85897 9.892965,-11.86794 -0.545997,-6.00899 -5.859979,-10.43997 -11.869958,-9.89297 q -0.289998,0.026 -0.579997,0.068 A 1495.9948,1495.9948 0 0 0 52.03289,325.174 c -5.58298,0.89799 -9.379966,6.15197 -8.480969,11.73597 a 10.239962,10.239962 0 0 0 11.04496,8.56896 m 22.882917,-2.09001 q 13.989954,-1.26902 27.980902,-2.52399 c 6.27797,-0.56502 10.90996,-6.10999 10.34696,-12.38697 -0.563,-6.27699 -6.10897,-10.90995 -12.38695,-10.34695 l -0.20402,0.0199 c -9.449949,1.02 -18.886916,2.18 -28.293882,3.54399 -5.971979,0.86701 -10.109963,6.40999 -9.243966,12.38295 a 10.925961,10.925961 0 0 0 11.800956,9.31199 m 27.980902,-2.52501 a 2207.992,2207.992 0 0 1 30.98388,-2.551 c 6.43998,-0.48598 11.26897,-6.10197 10.78198,-12.54294 -0.487,-6.44097 -6.09999,-11.26897 -12.54297,-10.78196 l -0.21099,0.018 a 2250.9918,2250.9918 0 0 0 -31.25591,3.14399 c -6.266963,0.677 -10.798939,6.30598 -10.120949,12.57096 0.667002,6.18798 6.166987,10.69897 12.364959,10.14296 m 30.98388,-2.55099 a 1184.9958,1184.9958 0 0 1 31.3879,-1.95999 c 6.47498,-0.315 11.46695,-5.81997 11.15296,-12.29496 -0.31401,-6.41097 -5.71998,-11.38296 -12.13496,-11.15896 a 554.99802,554.99802 0 0 0 -32.3799,2.10699 c -6.42997,0.60401 -11.15496,6.30599 -10.55095,12.73696 0.59601,6.34797 6.16699,11.04996 12.52495,10.56996 m 31.3879,-1.95999 c 9.29197,-0.452 18.59394,-0.75199 27.89789,-0.78199 6.42398,-0.0201 11.61498,-5.24399 11.59398,-11.66697 -0.0201,-6.42397 -5.244,-11.61495 -11.66698,-11.59395 -9.60495,0.0299 -19.20893,0.254 -28.80689,0.59 -6.47897,0.226 -11.54696,5.66197 -11.31996,12.13996 0.227,6.47797 5.66198,11.54695 12.13997,11.31995 z m 27.89789,-0.78199 c 7.81499,-0.0251 15.62997,-0.1 23.44192,-0.27601 6.09999,-0.13799 10.93296,-5.19298 10.79396,-11.29296 a 11.046961,11.046961 0 0 0 -10.03696,-10.74996 c -8.06597,-0.73699 -16.17495,-0.96799 -24.27091,-0.94299 -6.42498,0.022 -11.61496,5.24497 -11.59497,11.66896 0.0201,6.42296 5.24499,11.61295 11.66696,11.59296 m 23.44192,-0.27601 a 169.9994,169.9994 0 0 1 8.94396,0.0131 c 2.403,0.074 4.80499,0.208 7.196,0.45899 5.74597,0.60599 10.89395,-3.55998 11.50095,-9.30497 0.60699,-5.74496 -3.55999,-10.89395 -9.30598,-11.49996 A 1262.9955,1262.9955 0 0 0 219.92929,313.253 c -6.07398,-0.55498 -11.44996,3.91999 -12.00595,9.99397 -0.55501,6.07498 3.91898,11.44996 9.99395,12.00597 q 0.62599,0.0569 1.255,0.0429 m 16.13996,0.473 c 3.80897,0.40199 7.61696,0.82 11.41195,1.33299 5.54498,0.75101 10.64995,-3.13697 11.39996,-8.68195 a 10.129963,10.129963 0 0 0 -7.25798,-11.09996 c -2.02299,-0.58001 -4.08598,-1.01599 -6.15998,-1.376 a 107.99961,107.99961 0 0 0 -7.19997,-0.97999 c -5.74499,-0.60701 -10.89397,3.55998 -11.49996,9.30496 -0.60499,5.74598 3.55998,10.89296 9.30598,11.49995 m 11.41195,1.33299 c 1.10498,0.15001 2.20797,0.32401 3.29798,0.55701 0.644,0.138 1.288,0.28999 1.90998,0.50599 a 9.802965,9.802965 0 0 0 12.48696,-6.02697 c 1.784,-5.11098 -0.91398,-10.70296 -6.02697,-12.48596 -2.47999,-0.86599 -5.00097,-1.61199 -7.52597,-2.33299 -5.37997,-1.53699 -10.98896,1.577 -12.52595,6.95896 -1.53801,5.38 1.57798,10.98798 6.95797,12.52597 q 0.702,0.19999 1.426,0.29799 m 5.20796,1.063 a 82.999702,82.999702 0 0 1 4.16999,1.56701 c 4.896,2.00998 10.49497,-0.33001 12.50597,-5.227 a 9.5799658,9.5799658 0 0 0 -3.552,-11.61494 c -2.06298,-1.373 -4.32797,-2.42399 -6.66397,-3.238 -5.11197,-1.78399 -10.70297,0.913 -12.48695,6.02599 -1.78399,5.11297 0.914,10.70294 6.02696,12.48694 m 4.16999,1.56701 c 0.21601,0.088 0.432,0.18398 0.635,0.30298 l 0.061,0.04 a 1.9999928,1.9999928 0 0 1 -0.10395,-0.087 9.3639659,9.3639659 0 0 0 12.48096,-13.96193 c -1.287,-1.15101 -2.683,-2.17801 -4.11998,-3.136 -4.40499,-2.93599 -10.35497,-1.743 -13.28997,2.66301 -2.93498,4.40596 -1.74198,10.35395 2.663,13.28993 q 0.792,0.527 1.67499,0.889 m 0.591,0.25599 a 30.999888,30.999888 0 0 0 3.64198,2.808 c 4.184,2.75799 9.81297,1.59999 12.56996,-2.584 a 9.0799673,9.0799673 0 0 0 -0.23699,-10.32796 24.499912,24.499912 0 0 0 -3.49399,-3.85698 c -3.85599,-3.44698 -9.77497,-3.11599 -13.22095,0.73998 a 9.3639659,9.3639659 0 0 0 0.73999,13.22096 m 3.64198,2.808 c 0.192,0.127 0.40002,0.26501 0.556,0.437 a 8.7859683,8.7859683 0 0 0 13.02296,-11.79496 18.999932,18.999932 0 0 1 -1.24599,-1.554 9.0749676,9.0749676 0 1 0 -12.33297,12.91196 m 0.556,0.437 c 0.416,0.45801 0.83101,0.92001 1.232,1.38999 a 8.5259693,8.5259693 0 0 0 12.01796,0.973 8.5299694,8.5299694 0 0 0 2.98499,-7.05797 c -0.17699,-2.67299 -1.434,-5.13599 -3.21199,-7.09998 a 8.7851945,8.7851945 0 1 0 -13.02296,11.79496 m -0.38999,-1.53 a 8.5599901,8.5599901 0 0 0 16.85294,-3.01199 8.5999692,8.5999692 0 0 0 -0.437,-1.56199 l -0.004,0.004 a 8.5259693,8.5259693 0 1 0 -16.59095,3.93798 q 0.075,0.32 0.177,0.634 z m -0.608,-1.12999 a 8.9579681,8.9579681 0 1 0 17.91495,0 8.9579681,8.9579681 0 0 0 -17.91495,0 m -0.428,0.0449 a 9.2729672,9.2729672 0 1 0 18.54493,0 9.2699667,9.2699667 0 0 0 -9.27296,-9.27096 9.2699667,9.2699667 0 0 0 -9.27197,9.27198 m 0.4,3.25198 a 9.429966,9.429966 0 0 0 3.97998,4.79199 9.3999659,9.3999659 0 0 0 3.71299,1.26999 9.3999659,9.3999659 0 0 0 4.29499,-0.484 9.429966,9.429966 0 0 0 5.01598,-4.23398 9.3699666,9.3699666 0 0 0 -0.0105,-9.20998 9.4499659,9.4499659 0 0 0 -6.15598,-4.54699 9.3999659,9.3999659 0 0 0 -4.13498,0.0201 9.3999659,9.3999659 0 0 0 -3.57898,1.677 9.3699666,9.3699666 0 0 0 -3.123,10.71596 m 5.96299,5.54998 a 9.2099673,9.2099673 0 0 0 5.41497,-17.60594 9.199967,9.199967 0 0 0 -4.57598,-0.215 l -0.55401,0.15 a 9.091967,9.091967 0 0 0 -1.51599,17.22594 z m -6.43397,-6.17699 a 9.1699668,9.1699668 0 0 0 3.43896,4.75799 9.199967,9.199967 0 0 0 5.092,1.697 9.091967,9.091967 0 0 0 0.457,-18.17693 9.2299671,9.2299671 0 0 0 -4.59199,1.09599 9.1699668,9.1699668 0 0 0 -3.78199,3.83798 9.0199678,9.0199678 0 0 0 -0.61398,6.78797 M 81.427787,257.41112 c 0.03599,-0.47801 0.07799,-0.97101 0.209999,-1.43499 a 1.1659958,1.1659958 0 0 0 -2.209993,-0.732 c -0.161999,0.43 -0.434998,0.823 -0.699997,1.19399 a 1.4899945,1.4899945 0 1 0 2.699991,0.973 m 0.459997,0.56999 c -0.152999,-0.13199 -0.309999,-0.278 -0.411998,-0.455 -0.01601,-0.028 -0.04999,-0.0869 -0.04801,-0.11504 a 1.4899945,1.4899945 0 0 0 -2.69999,-0.973 c -0.666997,0.936 -0.981996,2.06799 -1.121996,3.198 a 2.6029907,2.6029907 0 1 0 4.281986,-1.65401 m -1.752995,8.19598 a 4.6229833,4.6229833 0 1 0 4.367983,-7.45798 c -0.670997,-0.11293 -1.347994,-0.243 -1.993991,-0.46 a 3.4999875,3.4999875 0 0 1 -0.494998,-0.202 c -0.042,-0.022 -0.088,-0.0449 -0.125999,-0.0761 a 2.6029907,2.6029907 0 0 0 -4.281986,1.65401 c -0.137999,1.12 0.103997,2.25398 0.529997,3.28998 0.484,1.18099 1.199998,2.25998 1.998994,3.25199 m 0,0 c 1.193997,1.48499 2.749991,2.648 4.423983,3.53998 1.852994,0.987 3.862991,1.658 5.906975,2.12501 a 6.6099763,6.6099763 0 0 0 7.921977,-4.97398 6.6149763,6.6149763 0 0 0 -6.930973,-8.07199 c -1.37,0.1 -2.745994,0.16601 -4.119987,0.14501 -0.945998,-0.014 -1.897995,-0.065 -2.833992,-0.22201 a 4.6229833,4.6229833 0 0 0 -4.367983,7.45798 m 10.32996,5.66499 c 2.389995,0.547 4.844979,0.79298 7.292975,0.88498 2.898014,0.10897 5.799994,0 8.691974,-0.22299 a 8.5699692,8.5699692 0 0 0 7.88698,-9.20698 8.5729693,8.5729693 0 0 0 -9.20698,-7.88795 8.5999692,8.5999692 0 0 0 -2.24298,0.48099 c -2.18699,0.787 -4.404996,1.50799 -6.661985,2.06998 -1.564001,0.391 -3.157986,0.71901 -4.767982,0.836 a 6.6149763,6.6149763 0 0 0 -0.991004,13.04597 m 15.983951,0.66199 c 6.58598,-0.50799 13.14995,-1.30301 19.68592,-2.26 5.64799,-0.82799 9.55498,-6.07798 8.72798,-11.72595 -0.82801,-5.64799 -6.07799,-9.55497 -11.72496,-8.72797 q -0.57701,0.085 -1.14,0.233 c -6.44397,1.70198 -12.83995,3.60998 -19.11192,5.86698 a 8.5699692,8.5699692 0 0 0 -5.164996,10.96796 8.5699692,8.5699692 0 0 0 8.727976,5.64598 m 19.68494,-2.26 a 758.99727,758.99727 0 0 1 20.7719,-2.74597 c 6.17899,-0.73202 10.59397,-6.33099 9.86397,-12.50896 -0.731,-6.17799 -6.33197,-10.59297 -12.50995,-9.86297 q -0.35,0.042 -0.69599,0.105 a 283.99899,283.99899 0 0 0 -21.56593,4.79198 c -5.51997,1.45698 -8.81297,7.11198 -7.35597,12.63195 a 10.335964,10.335964 0 0 0 11.49197,7.58798 m 20.7719,-2.74498 c 7.30399,-0.86401 14.61797,-1.64901 21.93794,-2.36701 6.49797,-0.63899 11.24696,-6.42397 10.60895,-12.91995 -0.638,-6.49797 -6.42297,-11.24797 -12.91994,-10.60997 q -0.223,0.022 -0.447,0.0531 a 513.99815,513.99815 0 0 0 -22.52293,3.57699 c -6.11998,1.116 -10.17696,6.98097 -9.06096,13.09996 a 11.262959,11.262959 0 0 0 12.40394,9.16695 m 21.93794,-2.36697 c 6.56998,-0.64701 13.15795,-1.155 19.75692,-1.36999 6.60599,-0.21301 11.78796,-5.74198 11.57396,-12.34796 -0.212,-6.52997 -5.62398,-11.68396 -12.15796,-11.57797 -7.33897,0.12001 -14.66294,0.825 -21.93091,1.819 -6.46897,0.88501 -10.99397,6.84697 -10.10896,13.31495 0.861,6.29497 6.54398,10.78196 12.86695,10.16197 m 19.75692,-1.36999 c 2.16998,-0.07 4.34698,-0.105 6.51199,0.031 0.54699,0.035 1.09397,0.0789 1.63598,0.159 0.82299,0.12299 0.082,0.1 1.71999,0.402 6.46599,1.19 12.67398,-3.08699 13.86296,-9.55396 a 11.904957,11.904957 0 0 0 -8.10397,-13.49997 c -2.422,-0.76999 -4.96999,-1.09698 -7.49796,-1.28099 -2.898,-0.212 -5.809,-0.22999 -8.71299,-0.183 -6.60796,0.10897 -11.87695,5.55399 -11.76995,12.16197 0.10897,6.60796 5.55498,11.87695 12.16095,11.76995 z m 8.34599,0.20699 c 0.76398,0.248 1.52797,0.497 2.28797,0.75999 q 0.22901,0.0779 0.45601,0.162 c -0.41801,-0.15698 -1.7,-0.54198 0.77298,0.30301 6.04998,2.06899 12.63196,-1.15999 14.69996,-7.21098 0.23499,-0.689 0.405,-1.39898 0.50799,-2.11998 l 0.11504,-1.57301 a 11.999956,11.999956 0 0 0 -0.077,-1.40798 l 0.002,-8.8e-4 a 11.999956,11.999956 0 0 0 -0.20999,-1.23798 c -0.59801,-2.654 -2.094,-5.01999 -4.16899,-6.76399 a 15.499944,15.499944 0 0 0 -2.87899,-1.89398 c -1.34999,-0.69601 -2.78,-1.22699 -4.22598,-1.685 -6.26498,-1.99099 -12.95997,1.475 -14.94996,7.73997 -1.98299,6.23897 1.44399,12.90694 7.66998,14.92895 m 10.53996,1.74399 c 0.90599,-0.39399 1.79499,-0.833 2.63,-1.36399 a 12.599954,12.599954 0 0 0 2.64199,-2.228 11.939957,11.939957 0 0 0 2.91097,-6.25696 c 0.9,-6.32999 -3.50596,-12.18997 -9.83695,-13.08797 a 11.579959,11.579959 0 0 0 -11.61497,5.60799 h 0.006 c -3.88,4.84799 -3.09499,11.92196 1.75098,15.79992 a 11.23996,11.23996 0 0 0 11.51297,1.52901 m -15.90694,-6.79797 a 10.699963,10.699963 0 0 0 1.43699,3.04198 c 1.41099,2.067 3.52198,3.576 5.89999,4.307 1.04199,0.31999 2.128,0.49198 3.21798,0.51599 1.834,0.042 3.66999,-0.33502 5.35198,-1.06601 5.68997,-2.47998 8.29597,-9.10296 5.81598,-14.79394 -2.47999,-5.68998 -9.10296,-8.29596 -14.79394,-5.81598 a 12.649954,12.649954 0 0 0 -4.61598,3.422 11.799958,11.799958 0 0 0 -2.102,3.65998 c -0.76,2.156 -0.853,4.52498 -0.21,6.72996 m 0.81698,-2.46998 a 8.4299697,8.4299697 0 1 0 16.85896,0 8.429971,8.429971 0 1 0 -16.85994,0"
     style="stroke-width:0.881621"
     id="path3" />
</svg>
