<svg xmlns="http://www.w3.org/2000/svg" width="836.168" height="500" viewBox="0 0 836.168 500"><path d="M30.792 31.825c-.048-.538-.072-1.112.07-1.639.034-.13.08-.293.187-.387a2.899 2.899 0 0 0-3.417-4.656c-2.3 1.377-3.367 3.96-3.719 6.515a3.463 3.463 0 1 0 6.88.165zm-7.12 4.462a4.062 4.062 0 1 0 7.738-2.15c-.352-.786-.517-1.66-.64-2.507a3.463 3.463 0 0 0-6.825-.164c-.31 1.581-.466 3.215-.272 4.821m0 0c.186 1.531.649 3.018 1.313 4.408a4.67 4.67 0 1 0 7.21-5.59c-.32-.267-.613-.586-.784-.969a4.062 4.062 0 0 0-7.74 2.151m1.314 4.408c.846 1.778 2.129 3.319 3.6 4.616a5.3 5.3 0 1 0 6.007-8.646c-.84-.448-1.664-.948-2.396-1.561a4.67 4.67 0 0 0-7.212 5.591m3.599 4.616c1.582 1.397 3.38 2.53 5.258 3.487a5.75 5.75 0 1 0 4.472-10.562c-1.274-.435-2.534-.935-3.723-1.57a5.3 5.3 0 0 0-6.007 8.645m5.258 3.487c2.15 1.095 4.43 1.922 6.752 2.564a6.186 6.186 0 1 0 2.413-12.099c-1.59-.197-3.175-.506-4.693-1.025a5.748 5.748 0 0 0-4.472 10.56m6.752 2.564c2.733.758 5.549 1.201 8.37 1.458a6.526 6.526 0 1 0 1.181-12.998q-.155-.013-.31-.02a85 85 0 0 1-6.828-.54 6.186 6.186 0 0 0-2.413 12.1m8.37 1.458c3.092.28 6.198.413 9.305.448a6.649 6.649 0 1 0 .15-13.297h-.075c-2.836 0-5.675-.048-8.51-.17a6.525 6.525 0 0 0-.87 13.017Zm9.305.448a141 141 0 0 0 9.775-.224 6.697 6.697 0 0 0-.777-13.37l-.062.004a131 131 0 0 1-8.86.293 6.649 6.649 0 0 0-.078 13.297zm9.775-.224a100 100 0 0 0 10.084-1.115 6.719 6.719 0 0 0-2.134-13.265 96 96 0 0 1-8.788 1.012 6.698 6.698 0 0 0 .838 13.37m10.084-1.115a184 184 0 0 0 10.154-1.932 6.703 6.703 0 0 0-2.828-13.105q-4.709 1.004-9.46 1.772a6.718 6.718 0 1 0 2.134 13.265m10.154-1.932c3.197-.698 6.38-1.457 9.542-2.302a6.69 6.69 0 0 0-3.457-12.925c-2.95.79-5.926 1.486-8.913 2.122a6.705 6.705 0 0 0 2.792 13.113c.016 0 .024-.005.036-.008m9.542-2.302a115 115 0 0 0 9.038-2.822 6.655 6.655 0 0 0-4.384-12.566 127 127 0 0 1-8.11 2.463 6.69 6.69 0 0 0 3.456 12.925m9.038-2.822a122 122 0 0 0 9.07-3.67 6.546 6.546 0 0 0-5.193-12.016 136 136 0 0 1-8.261 3.12 6.655 6.655 0 1 0 4.288 12.6zm9.07-3.67a104 104 0 0 0 8.213-4.101 6.426 6.426 0 0 0-6.153-11.282c-2.355 1.25-4.79 2.348-7.253 3.367a6.546 6.546 0 1 0 5.193 12.015m8.213-4.1a87 87 0 0 0 6.638-4.105 6.295 6.295 0 0 0-6.867-10.549 106 106 0 0 1-5.924 3.372 6.426 6.426 0 1 0 6.153 11.282m6.638-4.105a157 157 0 0 0 5.28-3.78 6.162 6.162 0 0 0-7.218-9.983 104 104 0 0 1-4.929 3.214A6.295 6.295 0 1 0 130.783 33m5.28-3.78c1.443-1.08 2.869-2.207 4.144-3.484a6 6 0 0 0-.016-8.493 6.006 6.006 0 0 0-7.922-.495c-1.116.866-2.274 1.682-3.432 2.489a6.162 6.162 0 1 0 7.22 9.985zm4.144-3.485c.935-.937 1.837-1.933 2.53-3.069a5.816 5.816 0 0 0-9.32-6.887c-.314.355-.759.673-1.14.97a6.006 6.006 0 1 0 7.93 8.986m2.53-3.069a9.6 9.6 0 0 0 1.367-4.113 5.663 5.663 0 0 0-10.903-2.61c-.333.834-.1.31 0 .127.06-.1.298-.413.016-.057a5.816 5.816 0 1 0 9.514 6.653zm-9.93-4.357a5.665 5.665 0 0 0 11.297.244 7.9 7.9 0 0 0-1.628-5.535 5.583 5.583 0 0 0-9.674 5.296v-.001zm2.154 2.763a5.582 5.582 0 0 0 7.515-8.054c-1.518-1.97-3.914-2.815-6.297-3.13a5.622 5.622 0 1 0-1.211 11.176v.008zm-.142.15c.967-.56.357-.219.1-.167-.103.02 0 .008.055.01a5.622 5.622 0 0 0 1.203-11.179c-2.692-.355-5.454.252-7.632 1.908a5.673 5.673 0 0 0 6.274 9.427m-2.074 2.277c.823-.934 1.672-1.914 2.668-2.672a5.673 5.673 0 0 0-6.866-9.033c-1.663 1.265-3.064 2.859-4.373 4.477a5.606 5.606 0 0 0 8.57 7.228m-5.198 6.13a276 276 0 0 1 5.199-6.13 5.606 5.606 0 1 0-8.57-7.228 556 556 0 0 0-5.147 6.488 5.471 5.471 0 0 0 8.518 6.87m-8.944 10.635a1286 1286 0 0 0 8.944-10.636 5.472 5.472 0 1 0-8.52-6.87c-2.819 3.598-5.716 7.132-8.62 10.66a5.34 5.34 0 0 0 8.196 6.847zm-10.17 12.107q5.054-6.079 10.17-12.106a5.34 5.34 0 0 0-8.146-6.906l-.05.059a714 714 0 0 0-10.034 12.437 5.181 5.181 0 0 0 8.058 6.516zM98.237 64.403a947 947 0 0 0 10.193-12.033 5.181 5.181 0 1 0-8.058-6.516 402 402 0 0 0-9.546 12.695 4.725 4.725 0 0 0 7.411 5.854M86.133 78.284a1437 1437 0 0 0 12.105-13.881 4.725 4.725 0 1 0-7.409-5.854 562 562 0 0 0-10.59 15.176 3.733 3.733 0 0 0 5.894 4.56M73.98 93.003a287 287 0 0 1 12.153-14.72 3.733 3.733 0 1 0-5.894-4.56 2801 2801 0 0 1-10.845 15.947 2.837 2.837 0 0 0 4.586 3.334M62.925 108.53A256 256 0 0 1 73.98 93.007a2.837 2.837 0 1 0-4.586-3.335 521 521 0 0 0-10.64 16.166 2.483 2.483 0 0 0 4.17 2.69m-10.547 16.444a854 854 0 0 1 10.547-16.444 2.483 2.483 0 1 0-4.145-2.728c-.016.013-.018.026-.024.039q-5.238 8.293-10.389 16.64a2.362 2.362 0 0 0 4.012 2.493zm-9.914 16.805a372 372 0 0 1 9.914-16.805 2.362 2.362 0 1 0-4.004-2.505c0 .005 0 .008-.016.013a497 497 0 0 0-10.027 16.99 2.362 2.362 0 1 0 4.117 2.32v-.013zm-9.165 17.067a689 689 0 0 1 9.165-17.067 2.363 2.363 0 0 0-4.125-2.307 565 565 0 0 0-9.29 17.17 2.394 2.394 0 0 0 4.25 2.204m-8.342 17.032a403 403 0 0 1 8.342-17.032 2.394 2.394 0 0 0-4.25-2.204 745 745 0 0 0-8.6 17.101 2.495 2.495 0 1 0 4.486 2.185c.016-.017.016-.032.022-.048zm-6.703 16.046c2.015-5.436 4.28-10.78 6.703-16.046a2.495 2.495 0 0 0-4.508-2.135 537 537 0 0 0-7.493 16.02 2.862 2.862 0 1 0 5.298 2.162zm-4.773 14.793c1.363-5 2.973-9.934 4.773-14.793a2.862 2.862 0 0 0-5.298-2.161 152 152 0 0 0-5.814 15.062 3.309 3.309 0 1 0 6.341 1.89m-2.553 13.259c.453-4.485 1.371-8.915 2.555-13.259a3.31 3.31 0 0 0-6.343-1.89 359 359 0 0 0-4.148 13.645 4.054 4.054 0 1 0 7.934 1.505zm-.412 11.546c-.15-3.852.024-7.714.412-11.546a4.054 4.054 0 0 0-7.936-1.504c-1.168 4.156-2.057 8.397-2.53 12.691a5.045 5.045 0 1 0 10.054.359M.104 242.721a5.656 5.656 0 0 0 11.292-.679c-.016-.138-.022-.276-.04-.412a107 107 0 0 1-.838-10.111 5.045 5.045 0 0 0-10.056-.359c-.425 3.835-.588 7.707-.356 11.561zm0 0c.215 3.55.806 7.089 1.935 10.465a6.131 6.131 0 1 0 11.306-4.673c-1.07-2.15-1.672-4.51-1.99-6.883a5.654 5.654 0 0 0-11.25 1.091m1.934 10.465c1.08 3.226 2.636 6.295 4.677 9.02a6.51 6.51 0 1 0 10.254-8.02 30 30 0 0 1-3.625-5.673 6.131 6.131 0 0 0-11.306 4.673m4.677 9.02a32.7 32.7 0 0 0 7.015 6.9 6.625 6.625 0 0 0 7.76-10.738l-.077-.055a22.3 22.3 0 0 1-4.444-4.127 6.51 6.51 0 0 0-10.256 8.02zm7.015 6.9a44 44 0 0 0 8.092 4.627 6.654 6.654 0 0 0 5.341-12.19 33.6 33.6 0 0 1-5.75-3.23 6.624 6.624 0 0 0-7.683 10.794m8.092 4.626a41.6 41.6 0 0 0 8.872 2.77 6.647 6.647 0 0 0 2.533-13.05 28.8 28.8 0 0 1-6.064-1.908 6.653 6.653 0 0 0-5.341 12.188m8.872 2.77c3.023.585 6.1.888 9.177.971a6.644 6.644 0 0 0 .359-13.283 42.4 42.4 0 0 1-7.003-.738 6.648 6.648 0 0 0-2.55 13.049s.017 0 .017.006zm9.177.971c3.535.096 7.071-.247 10.547-.878a6.528 6.528 0 0 0-2.036-12.895c-2.698.364-5.428.564-8.152.49a6.644 6.644 0 1 0-.357 13.283m10.547-.878c3.86-.701 7.624-1.878 11.227-3.418a6.27 6.27 0 0 0-4.608-11.657c-2.8 1.02-5.7 1.783-8.655 2.18a6.528 6.528 0 1 0 2.036 12.894m11.227-3.418c3.886-1.656 7.611-3.67 11.204-5.885a5.933 5.933 0 0 0-5.918-10.28c-3.195 1.715-6.487 3.263-9.894 4.508a6.27 6.27 0 1 0 4.61 11.657m11.204-5.885c4.135-2.553 8.093-5.386 11.924-8.373a5.378 5.378 0 0 0-6.198-8.777c-3.801 2.423-7.672 4.74-11.645 6.87a5.933 5.933 0 1 0 5.919 10.28m11.924-8.373a179 179 0 0 0 12.256-10.517 4.706 4.706 0 0 0-6.163-7.105 139 139 0 0 1-12.291 8.845 5.378 5.378 0 1 0 6.198 8.777m12.256-10.517c4.417-4.137 8.649-8.47 12.765-12.904a4.023 4.023 0 0 0-5.68-5.691c-4.293 3.969-8.688 7.83-13.247 11.489a4.707 4.707 0 1 0 6.162 7.106m12.765-12.904a244 244 0 0 0 12.544-14.622 3.261 3.261 0 0 0-4.94-4.248 260 260 0 0 1-13.285 13.18 4.022 4.022 0 1 0 5.681 5.69m12.544-14.622a513 513 0 0 0 11.72-15.455 2.705 2.705 0 0 0-4.315-3.262 215 215 0 0 1-12.344 14.47 3.261 3.261 0 1 0 4.938 4.247zm11.72-15.455a336 336 0 0 0 11.708-17.153 2.382 2.382 0 0 0-3.975-2.625 313 313 0 0 1-12.048 16.516 2.705 2.705 0 1 0 4.315 3.262m11.708-17.153c3.578-5.6 6.985-11.313 10.113-17.178a2.22 2.22 0 0 0-3.916-2.092c-3.067 5.739-6.508 11.27-10.17 16.645a2.382 2.382 0 1 0 3.933 2.684q.02-.029.038-.06zm10.113-17.178a372 372 0 0 0 7.975-15.815 2.283 2.283 0 0 0-4.126-1.954c0 .011-.016.022-.016.032a271 271 0 0 1-7.75 15.645 2.22 2.22 0 1 0 3.915 2.092zm7.975-15.815a428 428 0 0 0 6.557-14.495 2.512 2.512 0 1 0-4.66-1.879 240 240 0 0 1-6.04 14.454 2.282 2.282 0 0 0 4.141 1.922zm6.557-14.495c1.55-3.62 3.08-7.259 4.364-10.983a2.921 2.921 0 1 0-5.612-1.579c-.8 3.649-2.093 7.196-3.411 10.683a2.512 2.512 0 0 0 4.66 1.877zm4.364-10.983c.817-2.365 1.554-4.79 1.922-7.273a3.372 3.372 0 1 0-6.707-.487c0 2.078-.385 4.161-.828 6.183a2.921 2.921 0 0 0 5.613 1.577m-5.022-11.17c.24 1.107.235 2.284.237 3.412a3.373 3.373 0 0 0 6.707.487c.263-1.778.431-3.65.045-5.422a3.577 3.577 0 1 0-6.99 1.523m.106.38a3.577 3.577 0 0 0 6.884-1.903c-.203-.937-.581-1.842-1.183-2.595a4.9 4.9 0 0 0-2.944-1.77 3.522 3.522 0 0 0-2.755 6.271zm.593.689q.216-.055.434-.082c.195-.024.253.016.48.057a3.522 3.522 0 1 0 1.25-6.932c-1.27-.229-2.579-.081-3.822.225a3.466 3.466 0 0 0 1.656 6.731m-1.441 1.18c.331-.353.685-.696 1.084-.973.091-.064.288-.189.356-.207a3.466 3.466 0 1 0-1.656-6.731c-1.75.43-3.31 1.441-4.706 2.546a3.65 3.65 0 1 0 4.922 5.366zm-3.123 4.194c.927-1.473 1.928-2.925 3.123-4.195a3.65 3.65 0 0 0-4.922-5.364c-1.799 1.424-3.348 3.15-4.754 4.954a4.009 4.009 0 1 0 6.55 4.605m-3.912 6.802a111 111 0 0 1 3.911-6.802 4.009 4.009 0 0 0-6.55-4.605c-1.782 2.284-3.351 4.728-4.818 7.224a4.276 4.276 0 1 0 7.457 4.183m-4.682 9.47c1.484-3.193 3.02-6.364 4.682-9.47a4.276 4.276 0 0 0-7.457-4.185c-1.897 3.228-3.572 6.58-5.15 9.974a4.37 4.37 0 1 0 7.925 3.68m-4.678 11.186a159 159 0 0 1 4.678-11.186 4.37 4.37 0 1 0-7.925-3.68 167 167 0 0 0-4.936 11.804 4.369 4.369 0 0 0 8.183 3.062m-4.321 12.181a380 380 0 0 1 4.321-12.18 4.37 4.37 0 0 0-8.183-3.065 244 244 0 0 0-4.312 12.59 4.297 4.297 0 0 0 8.174 2.655m-4.165 13.994c1.25-4.703 2.611-9.38 4.165-13.994a4.297 4.297 0 0 0-8.145-2.74c-.016.029-.019.057-.029.086a271 271 0 0 0-4.076 14.553 4.176 4.176 0 0 0 8.085 2.095m-3.405 15.667a179 179 0 0 1 3.405-15.667 4.176 4.176 0 1 0-8.072-2.143c0 .015-.016.032-.016.048a157 157 0 0 0-3.24 16.524 4.009 4.009 0 0 0 7.92 1.238zm-1.943 16.155a164 164 0 0 1 1.943-16.155 4.009 4.009 0 1 0-7.902-1.351c0 .036-.016.075-.016.112a142 142 0 0 0-1.371 17.062 3.679 3.679 0 0 0 7.346.332zm-7.24 16.36a3.531 3.531 0 1 0 7.058-.292 135 135 0 0 1 .186-16.068 3.68 3.68 0 1 0-7.34-.518c0 .063 0 .124-.017.186-.11 5.563-.078 11.129.109 16.69zm0 0c.172 5.05.577 10.109 1.426 15.096a4.027 4.027 0 1 0 7.813-1.864c-1.353-4.374-1.962-8.963-2.184-13.524a3.53 3.53 0 0 0-7.054.291m1.426 15.096a83 83 0 0 0 3.308 13.09 4.717 4.717 0 1 0 8.78-3.425 109 109 0 0 1-4.275-11.529 4.025 4.025 0 0 0-7.814 1.864zm3.308 13.09a120 120 0 0 0 4.91 12.105 5.202 5.202 0 1 0 9.242-4.765 122 122 0 0 1-5.37-10.764 4.717 4.717 0 0 0-8.782 3.425m4.91 12.104c1.791 3.805 3.87 7.49 6.36 10.888a5.647 5.647 0 1 0 8.824-7.035c-2.289-2.643-4.23-5.574-5.942-8.617a5.202 5.202 0 0 0-9.242 4.764m6.36 10.888a52.4 52.4 0 0 0 8.126 8.77 5.931 5.931 0 1 0 7.613-9.092 56 56 0 0 1-6.915-6.714 5.647 5.647 0 0 0-8.825 7.036m8.126 8.77c3.1 2.662 6.463 5.007 9.988 7.07a6.04 6.04 0 1 0 6.102-10.423l-.077-.045a60 60 0 0 1-8.399-5.694 5.931 5.931 0 0 0-7.614 9.092m9.988 7.07c3.405 1.994 6.958 3.755 10.667 5.106a6.157 6.157 0 1 0 4.04-11.631c-3.025-1-5.914-2.377-8.682-3.943a6.04 6.04 0 0 0-6.025 10.468m10.667 5.106a43.7 43.7 0 0 0 11.377 2.46 6.279 6.279 0 1 0 .901-12.525 32.8 32.8 0 0 1-8.239-1.566 6.157 6.157 0 0 0-4.037 11.631zm11.377 2.46c4.246.346 8.529.015 12.714-.746a6.328 6.328 0 1 0-2.263-12.451c-3.143.572-6.356.873-9.548.672a6.279 6.279 0 0 0-.903 12.525m12.714-.746a42.9 42.9 0 0 0 13.285-4.8 6.23 6.23 0 0 0-5.926-10.962 34.1 34.1 0 0 1-9.622 3.31 6.328 6.328 0 1 0 2.263 12.452m13.285-4.8c4.189-2.35 8.137-5.114 11.89-8.104a5.95 5.95 0 0 0-7.174-9.49c-3.399 2.434-6.932 4.7-10.643 6.63a6.231 6.231 0 1 0 5.926 10.964zm11.89-8.104c4.198-3.345 8.152-6.99 11.902-10.828a5.326 5.326 0 0 0-7.195-7.832 224 224 0 0 1-11.88 9.17 5.95 5.95 0 1 0 7.173 9.49m11.902-10.828a170 170 0 0 0 11.21-12.717 4.578 4.578 0 0 0-6.94-5.963 117 117 0 0 1-11.467 10.85 5.324 5.324 0 1 0 7.197 7.829m11.21-12.718a380 380 0 0 0 10.587-13.95 4.025 4.025 0 0 0-6.386-4.896 264 264 0 0 1-11.141 12.883 4.578 4.578 0 1 0 6.94 5.962m10.587-13.95a175 175 0 0 0 10.129-15.74 3.4 3.4 0 0 0-5.76-3.607 219 219 0 0 1-10.755 14.45 4.023 4.023 0 1 0 6.384 4.896m10.129-15.74a298 298 0 0 0 8.793-16.55 2.99 2.99 0 0 0-5.359-2.656 133 133 0 0 1-9.194 15.6 3.4 3.4 0 1 0 5.76 3.607m8.793-16.55a226 226 0 0 0 7.658-17.45 2.95 2.95 0 0 0-5.494-2.154 208 208 0 0 1-7.523 16.948 2.99 2.99 0 0 0 5.35 2.674c0-.007 0-.013.016-.019zm7.658-17.45a244 244 0 0 0 6.406-18.577 2.78 2.78 0 0 0-5.296-1.688 392 392 0 0 1-6.604 18.111 2.952 2.952 0 1 0 5.494 2.16zm6.406-18.577a200 200 0 0 0 4.706-18.906 2.657 2.657 0 0 0-5.213-1.027v.021a136 136 0 0 1-4.786 18.224 2.78 2.78 0 1 0 5.27 1.778c.016-.03.019-.06.028-.09zm4.706-18.906a205 205 0 0 0 2.838-19.228 2.696 2.696 0 1 0-5.365-.537 219 219 0 0 1-2.691 18.759 2.657 2.657 0 0 0 5.218 1.006m2.838-19.228a257 257 0 0 0 1.208-19.475 2.66 2.66 0 0 0-5.318-.144 280 280 0 0 1-1.257 19.082 2.696 2.696 0 1 0 5.366.537m-4.14-38.408c.22 6.26.225 12.528.03 18.787a2.66 2.66 0 1 0 5.317.145q.228-9.54.027-19.084a2.69 2.69 0 1 0-5.375.152m-1.46-18.443a212 212 0 0 1 1.458 18.444 2.69 2.69 0 0 0 5.377-.152 187 187 0 0 0-1.367-18.967 2.755 2.755 0 0 0-5.468.675m-3.027-17.52c1.313 5.781 2.302 11.635 3.027 17.521a2.755 2.755 0 0 0 5.468-.676 280 280 0 0 0-2.8-18.034 2.91 2.91 0 0 0-5.717 1.087c0 .032.016.067.02.101zm-4.702-15.46c1.97 5.02 3.507 10.202 4.7 15.46a2.91 2.91 0 0 0 5.698-1.19 154 154 0 0 0-4.048-16.489 3.365 3.365 0 1 0-6.35 2.219m-6.17-13.32c2.35 4.296 4.382 8.761 6.17 13.32a3.365 3.365 0 0 0 6.35-2.219c-1.542-5.013-3.437-9.925-5.776-14.623a3.806 3.806 0 1 0-6.743 3.524zm-7.192-10.772c2.74 3.345 5.116 6.981 7.192 10.772a3.806 3.806 0 0 0 6.744-3.522 123 123 0 0 0-7.004-12.323 4.302 4.302 0 1 0-6.932 5.073m-7.976-8.393c2.886 2.569 5.53 5.404 7.976 8.393a4.3 4.3 0 0 0 6.932-5.073c-2.42-3.719-5.189-7.223-8.36-10.33a4.797 4.797 0 1 0-6.548 7.008zm-8.285-5.98a48.5 48.5 0 0 1 8.285 5.978 4.797 4.797 0 0 0 6.548-7.009 48.5 48.5 0 0 0-9.956-7.553 4.936 4.936 0 0 0-4.876 8.585zm-29.074-9.316c6.375 1.605 12.74 3.291 18.994 5.317 2.163.7 4.312 1.442 6.418 2.292 1.246.505 2.49 1.042 3.662 1.708a4.937 4.937 0 0 0 4.877-8.585c-1.804-1.025-3.767-1.75-5.742-2.364-2.275-.705-4.595-1.254-6.926-1.733-6.658-1.366-13.428-2.188-20.187-2.874a3.175 3.175 0 0 0-1.096 6.239m47.22 271.961a3.804 3.804 0 1 0 3.194-6.871 3.02 3.02 0 0 0-3.728.23c-.607.539-1.147 1.146-1.424 1.926a3.75 3.75 0 0 0 .376 3.224c.391.621.948 1.124 1.581 1.493zm-.6-.432c1.353 1.193 3.23 1.59 4.994 1.5a4.56 4.56 0 1 0-1.722-8.862c-1.006.348-2.01.761-2.892 1.362a3.804 3.804 0 0 0-.38 5.998m4.994 1.5c1.467-.073 2.913-.395 4.318-.808a5.004 5.004 0 1 0-4.006-9.081c-.645.39-1.318.78-2.034 1.028a4.56 4.56 0 0 0 1.722 8.862m4.318-.808c1.74-.512 3.423-1.21 5.061-1.983a5.465 5.465 0 1 0-5.381-9.475 91 91 0 0 1-3.686 2.377 5.005 5.005 0 0 0 4.006 9.081m5.061-1.983c2.044-.962 4.01-2.088 5.925-3.286a5.756 5.756 0 1 0-6.359-9.596 351 351 0 0 1-4.949 3.407 5.465 5.465 0 0 0 5.383 9.478zm5.925-3.286a138 138 0 0 0 6.754-4.55 5.92 5.92 0 1 0-7.031-9.521 176 176 0 0 1-6.08 4.473 5.758 5.758 0 0 0 6.357 9.598m6.754-4.55a372 372 0 0 0 7.888-5.79 6.022 6.022 0 0 0-7.24-9.62l-.049.036q-3.812 2.93-7.63 5.853a5.92 5.92 0 0 0 7.031 9.522m7.888-5.79a276 276 0 0 0 8.776-6.899 6.048 6.048 0 1 0-7.66-9.36 351 351 0 0 1-8.405 6.674 6.022 6.022 0 0 0 7.29 9.585m8.775-6.899a178 178 0 0 0 8.831-7.726 5.934 5.934 0 0 0-7.928-8.828 431 431 0 0 1-8.564 7.194 6.048 6.048 0 0 0 7.66 9.36m8.832-7.726c4.005-3.743 7.887-7.622 11.757-11.505a5.825 5.825 0 0 0-8.252-8.223v.001c-3.711 3.727-7.448 7.46-11.433 10.896a5.934 5.934 0 1 0 7.928 8.829zm11.757-11.505c3.676-3.688 7.355-7.375 10.971-11.123a5.827 5.827 0 0 0-8.386-8.089c-3.572 3.702-7.206 7.345-10.837 10.992a5.824 5.824 0 0 0 8.252 8.222zm10.971-11.123a111 111 0 0 0 6.96-7.953 5.772 5.772 0 0 0-8.96-7.276 128 128 0 0 1-6.386 7.139 5.827 5.827 0 0 0 8.385 8.09zm6.96-7.953a117 117 0 0 0 6.134-8.463 5.718 5.718 0 1 0-9.557-6.282 83 83 0 0 1-5.537 7.469 5.772 5.772 0 1 0 8.882 7.372zm6.134-8.463a304 304 0 0 0 5.23-8.232 5.692 5.692 0 0 0-9.676-6 452 452 0 0 1-5.11 7.95 5.718 5.718 0 0 0 9.556 6.282m5.23-8.232a157 157 0 0 0 4.729-8.27 5.638 5.638 0 0 0-9.92-5.356 151 151 0 0 1-4.485 7.626 5.692 5.692 0 1 0 9.642 6.052c.016-.016.022-.035.032-.054zm4.729-8.27a91 91 0 0 0 3.897-8.256 5.553 5.553 0 0 0-10.222-4.34 93 93 0 0 1-3.594 7.239 5.638 5.638 0 0 0 9.882 5.423q.022-.032.037-.064zm3.897-8.256a74 74 0 0 0 2.716-7.768 5.362 5.362 0 0 0-10.186-3.332 122 122 0 0 1-2.752 6.76 5.553 5.553 0 1 0 10.222 4.34m2.716-7.768c.618-2.174 1.153-4.395 1.366-6.65a5.07 5.07 0 0 0-9.986-1.621c-.39 1.681-.966 3.323-1.565 4.94a5.362 5.362 0 1 0 10.184 3.33zm1.366-6.65c.225-2.382-.024-4.979-1.745-6.801a4.755 4.755 0 0 0-8.089 4.339 6 6 0 0 1-.152.84 5.07 5.07 0 1 0 9.985 1.621zm-8.397-.013a4.755 4.755 0 0 0 6.65-6.788c-1.377-1.458-3.315-2.082-5.274-2.196a4.565 4.565 0 0 0-1.371 8.982v.001zm-1.978.23c.871-.117 1.768-.203 2.646-.117a4.565 4.565 0 1 0 .71-9.097c-1.526-.09-3.058.026-4.569.23a4.533 4.533 0 0 0 1.213 8.984m-3.131 1.073c.981-.496 2.034-.925 3.13-1.073a4.533 4.533 0 1 0-1.212-8.983c-2.053.277-4.037.948-5.911 1.817a4.578 4.578 0 1 0 3.993 8.238zm-4.532 2.662a45 45 0 0 1 4.532-2.663 4.578 4.578 0 0 0-3.995-8.238 43 43 0 0 0-5.654 3.202 4.622 4.622 0 1 0 5.117 7.7m-3.664 2.962c1.103-1.12 2.356-2.093 3.664-2.963a4.622 4.622 0 1 0-5.117-7.699 64 64 0 0 0-4.955 3.617 4.77 4.77 0 1 0 6.408 7.047m-2.504 2.944c.739-1.057 1.602-2.025 2.504-2.944a4.77 4.77 0 0 0-6.407-7.047 57 57 0 0 0-3.853 3.392 5.114 5.114 0 1 0 7.756 6.599m-1.45 2.415c.403-.849.912-1.646 1.45-2.415a5.114 5.114 0 0 0-7.756-6.599 25.6 25.6 0 0 0-3.066 3.516 5.452 5.452 0 1 0 9.371 5.498m-.133.437c.055-.679-.016-.123-.037-.032a3 3 0 0 1 .17-.405 5.454 5.454 0 0 0-9.371-5.498c-.902 1.273-1.682 2.668-2.031 4.2a5.715 5.715 0 1 0 11.27 1.735m-9.427 5.121a5.909 5.909 0 0 0 9.103-7.512 5.716 5.716 0 0 0-10.952.656c-.56 2.447.161 5.007 1.843 6.855zm0 0c1.144 1.257 2.62 2.159 4.171 2.83a5.977 5.977 0 0 0 4.75-10.97 6 6 0 0 1-.69-.336c-.035-.02-.182-.125-.078-.038a5.909 5.909 0 0 0-8.153 8.512zm4.171 2.83c1.983.86 4.09 1.46 6.157 2.076a5.986 5.986 0 1 0 3.418-11.473l-.022-.007a101 101 0 0 1-3.204-.988c-.538-.178-1.08-.352-1.6-.578a5.978 5.978 0 0 0-4.75 10.971zm6.157 2.076c1.97.586 3.948 1.19 5.862 1.944a6.028 6.028 0 1 0 4.42-11.216l-.156-.06c-2.214-.8-4.472-1.484-6.73-2.147a5.985 5.985 0 0 0-3.396 11.48m5.862 1.943q2.16.85 4.267 1.815a6.062 6.062 0 0 0 5.047-11.022 67 67 0 0 0-5.05-2.067 6.027 6.027 0 0 0-4.262 11.276m4.267 1.815a29 29 0 0 1 3.698 2.042 6.055 6.055 0 0 0 6.603-10.151 40 40 0 0 0-5.253-2.914 6.062 6.062 0 1 0-5.048 11.023m3.698 2.042c1.143.74 2.181 1.634 3.123 2.615a6.043 6.043 0 0 0 8.736-8.35 29.8 29.8 0 0 0-5.256-4.416 6.056 6.056 0 0 0-6.63 10.135c.016.006.019.011.027.017zm3.123 2.615a10 10 0 0 1 1.962 2.975 6.022 6.022 0 0 0 11.084-4.704 21.8 21.8 0 0 0-4.31-6.623 6.043 6.043 0 0 0-8.754 8.333c0 .007.017.013.02.02zm1.962 2.975c.585 1.356.894 2.819 1.041 4.286a5.95 5.95 0 0 0 11.859-1.012c-.19-2.733-.756-5.446-1.816-7.98a6.022 6.022 0 0 0-11.108 4.648c.017.02.017.038.024.058m12.666 11.729c.31-2.803.428-5.638.234-8.455a5.95 5.95 0 1 0-11.873.82c0 .064.016.128.016.192.209 2.042.129 4.11-.097 6.149a5.897 5.897 0 0 0 11.72 1.294zm-2.872 9.725a29.2 29.2 0 0 0 2.872-9.725 5.897 5.897 0 1 0-11.723-1.294 20.5 20.5 0 0 1-1.657 6.075 5.81 5.81 0 0 0 10.507 4.944m-4.858 8.28a74 74 0 0 0 4.858-8.28 5.81 5.81 0 1 0-10.507-4.944c-1.085 2.433-2.387 4.763-3.822 7.005a5.667 5.667 0 0 0 9.47 6.218zm-5.9 8.406a282 282 0 0 0 5.9-8.407 5.665 5.665 0 1 0-9.472-6.218 543 543 0 0 1-5.452 8.34 5.5 5.5 0 0 0 9.025 6.285m-6.267 8.308a287 287 0 0 0 6.267-8.308 5.5 5.5 0 1 0-9.027-6.285 237 237 0 0 1-5.699 8.194 5.303 5.303 0 0 0 8.457 6.399zm-5.853 7.435q2.931-3.714 5.853-7.435a5.303 5.303 0 1 0-8.459-6.397 155 155 0 0 1-5.59 7.223 5.265 5.265 0 1 0 8.196 6.609m-5.42 7.044a346 346 0 0 1 5.42-7.044 5.263 5.263 0 0 0-8.194-6.609l-5.737 6.973a5.412 5.412 0 1 0 8.513 6.68zm-6.291 8.676a412 412 0 0 1 6.291-8.676 5.412 5.412 0 0 0-8.511-6.68 530 530 0 0 0-6.867 8.56 5.675 5.675 0 1 0 9.087 6.796m-4.495 6.593c.47-.795.993-1.557 1.512-2.32a264 264 0 0 1 2.981-4.273 5.675 5.675 0 0 0-9.085-6.794 236 236 0 0 0-3.336 4.313c-.71.945-1.422 1.894-2.064 2.887a5.878 5.878 0 1 0 9.992 6.187m-.494.865c-.017.062-.023.125-.04.184q.024-.067.052-.133c.137-.317.308-.62.484-.916a5.878 5.878 0 0 0-9.993-6.186c-.95 1.469-1.789 3.056-2.165 4.778a5.942 5.942 0 1 0 11.663 2.274zm-4.432 6.134a5.9 5.9 0 0 0 3.02-11.074v-.006a5.942 5.942 0 0 0-10.258 2.67c-.567 2.6.424 5.338 2.575 6.922 1.35.995 3 1.432 4.656 1.485zm0 0a14.5 14.5 0 0 0 6.163-1.2 5.72 5.72 0 0 0-3.91-10.73c-.464.139-.951.219-1.436.166a5.9 5.9 0 1 0-.817 11.766zm6.163-1.2c1.691-.725 3.32-1.595 4.915-2.511a5.572 5.572 0 0 0-5.424-9.733c-1.086.587-2.216 1.153-3.402 1.512a5.72 5.72 0 1 0 3.91 10.732m4.915-2.511a75 75 0 0 0 5.784-3.71 5.511 5.511 0 0 0-6.264-9.068 58 58 0 0 1-4.944 3.043v.001a5.572 5.572 0 1 0 5.303 9.802zm5.784-3.71a178 178 0 0 0 6.452-4.763 5.484 5.484 0 0 0-6.686-8.694 131 131 0 0 1-6.03 4.389 5.512 5.512 0 1 0 6.202 9.113zm6.452-4.763a415 415 0 0 0 7.46-5.899 5.442 5.442 0 0 0-6.778-8.516 895 895 0 0 1-7.368 5.721 5.483 5.483 0 1 0 6.676 8.7s0-.005.017-.006zm7.46-5.899a1201 1201 0 0 1 8.159-6.528 5.382 5.382 0 0 0-6.652-8.462 2979 2979 0 0 0-8.285 6.474 5.443 5.443 0 0 0 6.717 8.566zm8.159-6.528a490 490 0 0 0 8.681-7.052 5.261 5.261 0 0 0-6.588-8.206 5596 5596 0 0 0-8.745 6.796 5.382 5.382 0 1 0 6.652 8.462m8.681-7.052c4.488-3.732 8.912-7.536 13.337-11.34a5.009 5.009 0 0 0-6.427-7.683c-4.47 3.64-8.942 7.284-13.498 10.817a5.261 5.261 0 1 0 6.588 8.206m13.337-11.34c4.232-3.637 8.457-7.288 12.785-10.813a4.802 4.802 0 0 0-5.994-7.504c-4.452 3.485-8.833 7.064-13.218 10.635a5.008 5.008 0 1 0 6.427 7.682m12.785-10.813a135 135 0 0 1 7.249-5.543 4.874 4.874 0 1 0-5.853-7.792 1097 1097 0 0 1-7.39 5.831 4.802 4.802 0 0 0 5.92 7.562zm7.249-5.543a892 892 0 0 0 6.193-4.416 4.998 4.998 0 0 0-5.84-8.11 160 160 0 0 0-6.206 4.734 4.874 4.874 0 0 0 5.853 7.792m6.193-4.416a104 104 0 0 0 4.8-3.645 4.928 4.928 0 0 0-5.991-7.82l-4.65 3.354a4.998 4.998 0 0 0 5.841 8.11m4.8-3.644a111 111 0 0 1 3.138-2.475 4.811 4.811 0 0 0-5.577-7.837 125 125 0 0 0-3.554 2.492 4.928 4.928 0 1 0 5.994 7.82m3.137-2.475c.673-.508 1.378-1.004 1.99-1.589a4.643 4.643 0 0 0-3.34-7.992c-1.582.041-2.953.889-4.228 1.746a4.811 4.811 0 1 0 5.577 7.835zm1.99-1.589.32-.306a4.473 4.473 0 0 0-3.216-7.699l-.442.013a4.643 4.643 0 1 0 3.34 7.992zm-.455.951c.79-1.105 1.81-2.27 2.075-3.638a4.5 4.5 0 0 0-.325-2.707 4.49 4.49 0 0 0-2.36-2.273l-1.833-.336a4.47 4.47 0 0 0-3.93 2.578q-.396.558-.81 1.099a4.457 4.457 0 1 0 7.183 5.277m-4.916 6.89 4.916-6.888a4.457 4.457 0 0 0-7.182-5.279l-5.106 6.748a4.576 4.576 0 1 0 7.374 5.418zm-5.084 7.479c1.586-2.563 3.333-5.028 5.084-7.48a4.576 4.576 0 0 0-7.372-5.418 1131 1131 0 0 0-5.646 7.507 4.802 4.802 0 1 0 7.934 5.391m-3.48 5.9a169 169 0 0 1 3.48-5.9 4.8 4.8 0 0 0-7.934-5.391 71 71 0 0 0-4.166 6.326 4.975 4.975 0 1 0 8.578 5.04q.023-.036.044-.074zm-3.363 6.64a88 88 0 0 1 3.363-6.64 4.975 4.975 0 0 0-8.62-4.965q-1.996 3.4-3.988 6.803a5.215 5.215 0 1 0 9.245 4.801m-3.012 7.056a146 146 0 0 1 3.012-7.056 5.215 5.215 0 0 0-9.245-4.801 99 99 0 0 0-3.948 7.425 5.556 5.556 0 1 0 10.18 4.432zm-2.33 6.439c.705-2.17 1.49-4.317 2.329-6.44a5.555 5.555 0 0 0-10.18-4.433 109 109 0 0 0-3.044 6.968 5.79 5.79 0 1 0 10.895 3.906m-1.413 5.348c.351-1.81.843-3.594 1.413-5.346a5.788 5.788 0 0 0-10.895-3.908c-.852 2.167-1.6 4.379-2.178 6.637a5.977 5.977 0 1 0 11.66 2.617m-12.54 3.621a6.064 6.064 0 0 0 12.125-.149c-.016-1.162.196-2.335.415-3.472a5.977 5.977 0 0 0-11.66-2.617c-.519 2.034-.905 4.132-.88 6.238m0 0c.033 2.626.955 5.191 2.767 7.115a6.043 6.043 0 0 0 9.371-7.574c-.576-.835-.253-.33-.154-.124q.064.132.106.273c.017.029.037.192.037.161a6.063 6.063 0 0 0-12.125.15zm2.767 7.115c1.376 1.46 3.09 2.566 4.954 3.295a5.997 5.997 0 0 0 4.528-11.103c-.205-.087-.428-.192-.58-.362a6.041 6.041 0 1 0-8.902 8.17m4.954 3.295c1.877.733 3.892 1.065 5.9 1.124a5.967 5.967 0 0 0 .362-11.93c-.576-.016-1.196-.068-1.734-.297a5.995 5.995 0 1 0-4.528 11.103m5.9 1.124c2.513.072 5.006-.492 7.36-1.334a5.98 5.98 0 1 0-4.087-11.24c-.91.337-1.926.677-2.91.646a5.967 5.967 0 1 0-.377 11.928Zm7.36-1.334c2.73-.977 5.33-2.311 7.847-3.748a5.995 5.995 0 0 0-5.943-10.414c-1.925 1.099-3.908 2.153-5.99 2.921a5.98 5.98 0 0 0 4.084 11.24m7.847-3.747a187 187 0 0 0 8.984-5.5 5.987 5.987 0 0 0-6.493-10.059 186 186 0 0 1-8.433 5.145 5.996 5.996 0 0 0 5.942 10.415m8.984-5.5a207 207 0 0 0 10.26-7.124 5.848 5.848 0 0 0-6.751-9.549 500 500 0 0 1-10.002 6.615 5.987 5.987 0 0 0 6.477 10.07c0-.006.016-.007.016-.012zm10.258-7.124a248 248 0 0 0 11.124-8.727 5.433 5.433 0 0 0-6.597-8.624 734 734 0 0 1-11.276 7.8 5.85 5.85 0 1 0 6.75 9.551m11.123-8.727a867 867 0 0 0 11.578-9.77 4.99 4.99 0 0 0-6.345-7.701 269 269 0 0 1-11.83 8.847 5.433 5.433 0 1 0 6.599 8.624m11.578-9.77a778 778 0 0 0 12.269-10.77 4.578 4.578 0 0 0-5.9-6.996q-6.351 5.035-12.715 10.065a4.99 4.99 0 1 0 6.346 7.7m12.269-10.77a577 577 0 0 0 12.245-11.285 4.087 4.087 0 0 0-5.446-6.087 540 540 0 0 1-12.698 10.376 4.578 4.578 0 1 0 5.897 6.996zm12.245-11.285q6.071-5.768 12.057-11.622a3.775 3.775 0 0 0-5.228-5.444 295 295 0 0 1-12.277 10.978 4.086 4.086 0 1 0 5.45 6.086zm12.057-11.622q6.342-6.203 12.621-12.472a3.466 3.466 0 0 0-4.773-5.028 769 769 0 0 0-13.08 12.056 3.775 3.775 0 1 0 5.182 5.49l.048-.048zm12.621-12.472q6.227-6.215 12.323-12.562a3.18 3.18 0 0 0-4.56-4.432 290 290 0 0 1-12.533 11.966 3.466 3.466 0 0 0 4.639 5.151q.065-.059.13-.123m12.323-12.562a983 983 0 0 0 11.58-12.272 3.12 3.12 0 0 0-4.575-4.246 588 588 0 0 1-11.564 12.086 3.18 3.18 0 0 0 4.53 4.46c.016-.01.019-.018.027-.028zm11.58-12.272A562 562 0 0 0 556.1 158.1a3.094 3.094 0 0 0-4.651-4.08 628 628 0 0 1-11.116 12.273 3.12 3.12 0 0 0 4.57 4.25v-.007zM556.1 158.1a332 332 0 0 0 10.017-11.988 3.123 3.123 0 1 0-4.892-3.882c-.016.01-.017.022-.025.032a234 234 0 0 1-9.75 11.756 3.095 3.095 0 1 0 4.64 4.094c0-.004 0-.006.017-.012zm10.017-11.988a610 610 0 0 0 8.19-10.533 3.186 3.186 0 0 0-5.076-3.85c0 .005 0 .006-.017.011a1044 1044 0 0 1-8.024 10.523 3.123 3.123 0 0 0 4.92 3.849zm8.19-10.533a386 386 0 0 0 6.949-9.443 3.303 3.303 0 1 0-5.452-3.727 179 179 0 0 1-6.583 9.331 3.186 3.186 0 0 0 5.084 3.84zm6.949-9.443c1.9-2.672 3.74-5.394 5.386-8.231a3.424 3.424 0 0 0-5.923-3.439c0 .008-.016.016-.016.026-1.536 2.699-3.199 5.322-4.902 7.917a3.303 3.303 0 0 0 5.453 3.727zm5.386-8.231a141 141 0 0 0 3.373-6.096 3.55 3.55 0 1 0-6.422-3.01c-.828 1.961-1.837 3.845-2.888 5.693a3.424 3.424 0 0 0 5.937 3.413m3.373-6.094c.73-1.415 1.447-2.845 2.031-4.325a3.657 3.657 0 0 0-6.802-2.687 189 189 0 0 1-1.65 4 3.55 3.55 0 0 0 6.423 3.012m2.03-4.325c.363-.918.752-1.869.882-2.854a3.663 3.663 0 0 0-7.262-.967c0 .032-.017.064-.017.094 0-.051.023-.163.03-.192a3 3 0 0 1-.062.2c-.112.35-.243.69-.38 1.032a3.657 3.657 0 1 0 6.803 2.687zm-3.774.178a3.663 3.663 0 0 0 4.657-3.032 3.91 3.91 0 0 0-1.403-3.536 4.2 4.2 0 0 0-2.079-.88c-.781-.107-1.574-.022-2.344.119a3.713 3.713 0 0 0 1.17 7.329zm-1.19.828c.443-.381.96-.756 1.537-.892a3.713 3.713 0 0 0-1.516-7.265c-1.775.32-3.412 1.158-4.831 2.252a3.81 3.81 0 1 0 4.81 5.905m-3.098 3.255c.961-1.144 1.964-2.278 3.098-3.255a3.81 3.81 0 0 0-4.81-5.905c-1.52 1.17-2.886 2.537-4.19 3.94a3.94 3.94 0 1 0 5.902 5.22m-7.848 10.138a649 649 0 0 1 4.957-6.503c.947-1.223 1.893-2.45 2.891-3.635a3.94 3.94 0 0 0-5.902-5.222c-1.144 1.23-2.215 2.53-3.283 3.823a459 459 0 0 0-5.215 6.461 4.144 4.144 0 1 0 6.55 5.076zm-10.313 12.993c3.599-4.196 6.983-8.58 10.313-12.993a4.145 4.145 0 0 0-6.55-5.077c-3.356 4.219-6.74 8.418-10.248 12.509a4.272 4.272 0 0 0 6.486 5.56m-9.046 10.671a1355 1355 0 0 1 9.046-10.67 4.272 4.272 0 1 0-6.483-5.56 304 304 0 0 0-8.985 11.034 4.132 4.132 0 0 0 6.422 5.196m-9.567 11.617a785 785 0 0 1 9.567-11.617 4.132 4.132 0 1 0-6.422-5.196 573 573 0 0 0-9.204 12.136 3.828 3.828 0 0 0 6.06 4.677M537.2 170.366c3.23-4.481 6.543-8.905 10.01-13.2a3.828 3.828 0 1 0-6.057-4.678 990 990 0 0 0-9.866 13.643 3.637 3.637 0 0 0 5.913 4.235m-11.512 16.265a1246 1246 0 0 1 11.512-16.265 3.636 3.636 0 1 0-5.899-4.252c0 .006-.016.012-.016.016-3.911 5.498-7.58 11.163-11.084 16.93a3.274 3.274 0 0 0 5.483 3.57zm-10.776 16.57c3.387-5.653 7.009-11.164 10.776-16.57a3.274 3.274 0 1 0-5.484-3.572 386 386 0 0 0-10.03 17.449 2.724 2.724 0 0 0 4.736 2.692zm-8.345 15.444a189 189 0 0 1 8.345-15.445 2.726 2.726 0 1 0-4.677-2.801l-.061.109-8.44 15.68a2.712 2.712 0 0 0 4.775 2.569zm-6.182 14.556c1.813-4.952 3.904-9.802 6.182-14.556a2.71 2.71 0 0 0-4.832-2.457q-3.822 7.102-7.605 14.223a3.432 3.432 0 1 0 6.255 2.79m-3.258 11.815c.624-4.04 1.854-7.984 3.258-11.815a3.432 3.432 0 0 0-6.255-2.79c-2.1 3.954-4.11 7.967-5.854 12.092a4.635 4.635 0 1 0 8.85 2.515m-.778 8.94c0-2.993.32-5.983.779-8.94a4.635 4.635 0 0 0-8.851-2.515c-1.4 3.316-2.595 6.734-3.344 10.257a5.772 5.772 0 1 0 11.416 1.199m.26 7.386a96 96 0 0 1-.26-7.386 5.77 5.77 0 0 0-11.416-1.199c-.614 2.877-1.06 5.795-1.22 8.733a6.464 6.464 0 0 0 12.907.708 5 5 0 0 0-.017-.856zm-11.2 9.585a6.7 6.7 0 1 0 12.102-5.755c-.567-1.192-.801-2.524-.902-3.828a6.463 6.463 0 0 0-12.897.146c-.176 3.224.303 6.504 1.698 9.437m0 0a20 20 0 0 0 5.026 6.63 6.67 6.67 0 0 0 8.796-10.024 7.45 7.45 0 0 1-1.72-2.36 6.7 6.7 0 0 0-12.102 5.754m5.026 6.63c2.226 1.91 4.908 3.217 7.74 3.954a6.637 6.637 0 1 0 3.344-12.846c-.827-.214-1.645-.555-2.288-1.132a6.67 6.67 0 0 0-8.91 9.924zm7.74 3.954c2.663.695 5.418.997 8.168.996a6.644 6.644 0 1 0-.007-13.288h-.023c-1.611.007-3.232-.147-4.795-.554a6.637 6.637 0 0 0-3.345 12.846zm8.168.996c3.267-.001 6.512-.626 9.626-1.587a6.65 6.65 0 1 0-3.92-12.708c-1.853.572-3.787 1.001-5.735 1.01a6.644 6.644 0 0 0 .029 13.285m9.626-1.587c3.472-1.072 6.828-2.497 10.086-4.096a6.538 6.538 0 0 0-5.52-11.852c-2.77 1.224-5.59 2.346-8.485 3.24a6.65 6.65 0 1 0 3.92 12.708m10.086-4.096c3.745-1.837 7.365-3.924 10.877-6.171a6.245 6.245 0 0 0-6.416-10.709 117 117 0 0 1-9.98 5.03 6.538 6.538 0 1 0 5.52 11.852m10.876-6.171a421 421 0 0 0 11.188-7.421 5.768 5.768 0 0 0-6.11-9.773q-5.738 3.26-11.494 6.486a6.245 6.245 0 1 0 6.416 10.708m11.188-7.421a412 412 0 0 0 11.991-8.553 5.068 5.068 0 0 0-5.569-8.449q-6.245 3.654-12.533 7.229a5.77 5.77 0 1 0 6.11 9.773m11.992-8.553a927 927 0 0 0 12.032-9.046 4.528 4.528 0 0 0-5.372-7.288 165 165 0 0 1-12.229 7.885 5.066 5.066 0 1 0 5.57 8.45m12.031-9.047a607 607 0 0 0 11.625-9.115 4.275 4.275 0 0 0-5.246-6.751 549 549 0 0 1-11.75 8.58 4.528 4.528 0 1 0 5.373 7.288zm11.625-9.115a561 561 0 0 1 11.088-8.697 4.152 4.152 0 0 0-5.037-6.6 1852 1852 0 0 1-11.297 8.546 4.275 4.275 0 1 0 5.246 6.75m11.088-8.696a484 484 0 0 1 9.674-7.224 4.4 4.4 0 1 0-5.493-6.863c-2.97 2.617-6.07 5.085-9.218 7.486a4.152 4.152 0 1 0 5.036 6.6zm9.674-7.224a854 854 0 0 0 7.32-5.354 4.746 4.746 0 1 0-5.841-7.478 272 272 0 0 0-6.97 5.97 4.4 4.4 0 0 0 5.49 6.864m7.32-5.354c1.431-1.064 2.871-2.13 4.372-3.095a4.84 4.84 0 1 0-5.231-8.144c-1.75 1.122-3.38 2.44-4.981 3.76a4.746 4.746 0 0 0 5.838 7.479m3.003-2.494a4.773 4.773 0 0 0 5.162-4.352c0-.06.017-.118.017-.176a5.33 5.33 0 0 0-1.229-3.705 5.2 5.2 0 0 0-4.015-1.81c-1.374.017-2.65.566-3.791 1.298a4.84 4.84 0 0 0 3.865 8.748v-.001zm2.93.81c1.12-1.577 2.147-3.362 2.243-5.34a4.774 4.774 0 1 0-9.536-.456 8 8 0 0 1-.445.903 4.586 4.586 0 0 0 7.739 4.893m-5.343 7.994c1.758-2.678 3.49-5.381 5.343-7.994a4.586 4.586 0 1 0-7.74-4.893c-.504.9-1.12 1.746-1.72 2.587a183 183 0 0 1-3.594 4.84 4.727 4.727 0 1 0 7.71 5.462m-6.374 10.052c2.039-3.404 4.198-6.735 6.375-10.052a4.727 4.727 0 0 0-7.71-5.46 524 524 0 0 1-7.357 9.472 5.303 5.303 0 1 0 8.69 6.038m-4.683 7.97q2.307-4.007 4.682-7.97a5.303 5.303 0 0 0-8.69-6.04 128 128 0 0 0-5.802 7.853 5.795 5.795 0 1 0 9.81 6.157m-4.532 8.04a506 506 0 0 1 4.532-8.04 5.795 5.795 0 0 0-9.81-6.157 178 178 0 0 0-5.226 8.125 6.069 6.069 0 1 0 10.505 6.072zm-3.545 7.243a77 77 0 0 1 3.546-7.243 6.069 6.069 0 0 0-10.505-6.072 437 437 0 0 0-4.507 7.608 6.416 6.416 0 1 0 11.468 5.707m-1.914 5.414c.46-1.858 1.172-3.655 1.914-5.414a6.416 6.416 0 0 0-11.467-5.707c-1.33 2.302-2.569 4.682-3.466 7.192a6.807 6.807 0 1 0 13.019 3.929m-.535 3.107c.045-1.048.282-2.093.535-3.107a6.807 6.807 0 0 0-13.019-3.931c-.741 2.072-1.297 4.24-1.39 6.448a6.943 6.943 0 0 0 13.874.59m-12.194 6.46a6.982 6.982 0 0 0 12.322-6.545c-.526-1.091-.2-.362-.146-.074.017.046.019.123.019.16a6.944 6.944 0 0 0-13.875-.591c-.104 2.457.439 4.92 1.682 7.05zm0 0c1.326 2.275 3.405 4.008 5.801 5.073a7.02 7.02 0 0 0 5.698-12.833c-.076-.033-.064-.035 0 .012.166.125.54.592.08-.012a6.983 6.983 0 0 0-11.576 7.76zm5.801 5.073c2.031.9 4.229 1.377 6.436 1.554a6.958 6.958 0 0 0 1.459-13.836c-.745-.097-1.506-.245-2.197-.55a7.02 7.02 0 0 0-5.698 12.832m6.436 1.554c1.98.157 3.967.187 5.953.14a6.89 6.89 0 0 0-.293-13.775c-1.401.025-2.81-.018-4.201-.2a6.958 6.958 0 1 0-1.458 13.835m5.954.14c2.913-.068 5.782-.768 8.48-1.846a6.797 6.797 0 0 0-4.729-12.74c-1.299.446-2.665.785-4.044.81a6.89 6.89 0 1 0 .26 13.777zm8.48-1.844a83 83 0 0 0 7.58-3.524 6.636 6.636 0 0 0-5.926-11.872 61 61 0 0 1-6.383 2.654 6.797 6.797 0 1 0 4.73 12.74zm7.58-3.524c4.212-2.2 8.39-4.474 12.57-6.738a6.485 6.485 0 0 0-6.095-11.447c-4.11 2.147-8.216 4.318-12.403 6.313a6.636 6.636 0 1 0 5.928 11.872m12.57-6.738a327 327 0 0 0 18.297-10.735 6.22 6.22 0 0 0-6.439-10.641 455 455 0 0 1-17.953 9.929 6.484 6.484 0 1 0 6.093 11.447zm18.297-10.735c4.571-2.876 9.146-5.75 13.65-8.729a5.926 5.926 0 0 0-6.34-10.013c-4.549 2.754-9.15 5.426-13.749 8.1a6.22 6.22 0 1 0 6.44 10.642m13.65-8.729 11.925-7.893a5.894 5.894 0 1 0-6.582-9.778c-3.841 2.63-7.701 5.247-11.683 7.656a5.926 5.926 0 1 0 6.34 10.015m11.925-7.893c3.42-2.263 6.84-4.523 10.251-6.797a5.966 5.966 0 0 0-6.616-9.93c-3.428 2.285-6.82 4.622-10.219 6.95a5.894 5.894 0 0 0 6.584 9.777m10.251-6.797a99 99 0 0 0 5.063-3.588 5.953 5.953 0 0 0-7.164-9.51 104 104 0 0 1-4.515 3.169 5.967 5.967 0 0 0 6.618 9.93m5.064-3.587c1.34-1.02 2.659-2.083 3.86-3.263a5.917 5.917 0 0 0-8.168-8.556c-.897.833-1.876 1.58-2.856 2.31a5.953 5.953 0 1 0 7.118 9.544zm3.86-3.263c.9-.884 1.762-1.818 2.488-2.853a5.854 5.854 0 0 0-9.346-7.04c-.39.483-.854.914-1.31 1.337a5.916 5.916 0 1 0 8.042 8.678l.128-.122zm2.488-2.853c1.009-1.441 1.654-3.144 1.662-4.917a5.788 5.788 0 0 0-11.34-1.675v-.001a5.854 5.854 0 0 0 9.674 6.594zM683.01 220a5.788 5.788 0 0 0 9.671-4.266 6.46 6.46 0 0 0-2.862-5.397c-1.16-.77-2.53-1.13-3.913-1.158a5.766 5.766 0 0 0-2.893 10.817v.001zm4.291.506a5.766 5.766 0 0 0-1.397-11.327c-2.493-.052-4.756 1.137-6.574 2.766a5.85 5.85 0 1 0 7.976 8.56zm-3.155 3.929c1.063-1.405 2.133-2.835 3.344-4.117a5.85 5.85 0 0 0-8.16-8.373c-1.687 1.512-3.168 3.258-4.615 4.997a6.024 6.024 0 1 0 9.43 7.493m-6.387 8.04a276 276 0 0 0 6.388-8.04 6.024 6.024 0 0 0-9.43-7.495 360 360 0 0 1-6.443 7.483 6.22 6.22 0 1 0 9.485 8.052m-8.602 10.938a404 404 0 0 1 8.602-10.94 6.22 6.22 0 0 0-9.485-8.05c-3.174 3.61-6.233 7.322-9.241 11.073a6.426 6.426 0 1 0 10.122 7.917zm-8.44 10.676c2.906-3.483 5.688-7.07 8.44-10.676a6.426 6.426 0 0 0-10.123-7.917 678 678 0 0 1-8.335 10.236 6.524 6.524 0 0 0 10.017 8.357m-7.024 8.044q3.604-3.94 7.023-8.044a6.524 6.524 0 0 0-10.017-8.357 292 292 0 0 1-6.639 7.688 6.495 6.495 0 0 0 9.633 8.713M643.25 273.04c3.524-3.592 7.044-7.193 10.443-10.907a6.495 6.495 0 0 0-9.585-8.768l-.048.053a979 979 0 0 1-9.964 10.914 6.319 6.319 0 0 0 9.154 8.708m-8.902 9.12c2.944-3.062 5.928-6.086 8.902-9.12a6.319 6.319 0 1 0-9.154-8.708 445 445 0 0 1-5.442 5.817c-1.006 1.053-2.012 2.115-3.075 3.108a6.251 6.251 0 1 0 8.77 8.903zm-5.489 5.023a63 63 0 0 0 5.489-5.023 6.251 6.251 0 0 0-8.77-8.905 77 77 0 0 1-4.708 4.02 6.363 6.363 0 1 0 7.987 9.908zm-12.435.061a6.4 6.4 0 0 0 3.13 2.934c2.186.953 4.554.569 6.428-.733q.388-.273.761-.564c.716-.553 1.416-1.126 2.114-1.698a6.363 6.363 0 0 0-7.986-9.908c-.608.482-1.22.966-1.841 1.432v-.009a6.4 6.4 0 0 0-2.622 2.72 6.4 6.4 0 0 0 .02 5.823zm11.397-.07.64-1.269a6.393 6.393 0 1 0-11.417-5.755l-.641 1.269a6.393 6.393 0 0 0 11.418 5.755m.64-1.269c-.16.316-.09.165.044-.029q.359-.51.735-1.006a154 154 0 0 1 3.002-3.821 6.285 6.285 0 0 0-9.658-8.04 144 144 0 0 0-3.399 4.057c-.778.972-1.58 1.966-2.141 3.084a6.393 6.393 0 1 0 11.416 5.755zm3.78-4.856q3.42-4.252 6.85-8.502a5.995 5.995 0 0 0-9.016-7.89c-2.573 2.714-5.05 5.518-7.491 8.352a6.285 6.285 0 1 0 9.658 8.04m6.85-8.502a135 135 0 0 1 6.155-7.063 5.681 5.681 0 0 0-8.118-7.944 242 242 0 0 0-7.053 7.117 5.995 5.995 0 1 0 9.015 7.89m6.156-7.063a272 272 0 0 1 7.994-8.197 5.375 5.375 0 0 0-7.344-7.849 264 264 0 0 0-8.768 8.1 5.683 5.683 0 1 0 8.118 7.946m7.994-8.197a384 384 0 0 1 10.01-9.511 4.943 4.943 0 0 0-6.432-7.5 282 282 0 0 0-10.922 9.164 5.375 5.375 0 1 0 7.344 7.847m10.01-9.511a356 356 0 0 1 11.511-10.12 4.324 4.324 0 0 0-5.265-6.851 247 247 0 0 0-12.678 9.47 4.943 4.943 0 1 0 6.432 7.5m11.511-10.118c3.745-3.156 7.648-6.125 11.742-8.813a3.79 3.79 0 0 0-4.003-6.434 199 199 0 0 0-13.004 8.395 4.324 4.324 0 1 0 5.265 6.852m11.742-8.813c3.235-2.124 6.615-4.106 10.219-5.545a4.02 4.02 0 1 0-3.54-7.191 4301 4301 0 0 1-10.682 6.302 3.79 3.79 0 1 0 4.005 6.434m10.218-5.545c2.702-1.078 5.444-2.082 8.244-2.881a4.696 4.696 0 1 0-3.176-8.816c-2.968 1.302-5.824 2.853-8.61 4.504a4.02 4.02 0 0 0 3.54 7.193m8.244-2.881c1.983-.566 4.006-1.041 6.06-1.27a5.061 5.061 0 1 0-1.434-10.015c-2.694.472-5.302 1.372-7.802 2.47a4.696 4.696 0 0 0 3.176 8.815m6.06-1.27c1.475-.164 2.97-.263 4.454-.16a5.233 5.233 0 1 0 .384-10.453c-2.103-.011-4.203.234-6.272.596a5.061 5.061 0 0 0 1.433 10.017m4.454-.16c.413.028.853.104 1.195.355a5.311 5.311 0 1 0 6.294-8.556c0-.006-.017-.009-.018-.013-2.054-1.499-4.558-2.226-7.089-2.239a5.233 5.233 0 0 0-.384 10.45zm1.195.355a2.4 2.4 0 0 1 .776.982 5.378 5.378 0 1 0 9.705-4.624 14.1 14.1 0 0 0-4.205-4.925 5.311 5.311 0 0 0-6.276 8.567m.776.982c.308.702.465 1.458.506 2.223a5.454 5.454 0 1 0 10.893-.59v-.065a15.9 15.9 0 0 0-1.691-6.192 5.378 5.378 0 0 0-9.704 4.624zm11.377 7.035c.118-1.82.14-3.647.02-5.467a5.454 5.454 0 0 0-10.89.654c.071 1.313.02 2.631-.103 3.94a5.505 5.505 0 1 0 10.96 1.031c0-.053.017-.106.017-.16zm-1.038 6.47c.519-2.124.897-4.287 1.038-6.47a5.505 5.505 0 0 0-10.973-.873c-.146 1.553-.461 3.09-.86 4.6a5.57 5.57 0 0 0 10.771 2.84c.017-.033.017-.065.024-.097m-2.449 9.29c.844-3.088 1.688-6.18 2.45-9.29a5.57 5.57 0 0 0-10.796-2.743c-.752 2.854-1.825 5.633-2.87 8.388a5.904 5.904 0 1 0 11.217 3.646m-2.406 9.12c.751-3.052 1.58-6.086 2.406-9.118a5.904 5.904 0 0 0-11.217-3.647c-1.166 3.075-2.332 6.158-3.354 9.285a6.33 6.33 0 1 0 12.165 3.48m-1.163 5.169a112 112 0 0 1 1.163-5.169 6.33 6.33 0 0 0-12.165-3.48 77 77 0 0 0-1.696 5.87 6.501 6.501 0 1 0 12.698 2.779m-.426 3.333c.045-1.121.211-2.234.427-3.333a6.501 6.501 0 0 0-12.7-2.78 38.4 38.4 0 0 0-.915 5.182 6.615 6.615 0 1 0 13.188.93m-13.29 3.88a6.674 6.674 0 0 0 13.319-.88 29 29 0 0 1-.03-3 6.615 6.615 0 0 0-13.187-.928 29 29 0 0 0-.103 4.808zm0 0c.166 2.505 1.091 4.92 2.722 6.84a6.69 6.69 0 0 0 10.625-8.1c-.635-.93-.24-.3-.137-.048.112.283.275 1.005 0-.404a6.674 6.674 0 0 0-13.213 1.712zm2.722 6.84a13.8 13.8 0 0 0 5.15 3.733 6.706 6.706 0 0 0 5.21-12.359c-.08-.032-.193-.072-.252-.138a6.69 6.69 0 0 0-10.11 8.763m5.151 3.734c1.842.776 3.82 1.198 5.81 1.374a6.663 6.663 0 0 0 1.452-13.24c-.695-.09-1.404-.22-2.053-.493a6.706 6.706 0 1 0-5.209 12.359m5.81 1.374c2.338.208 4.696-.048 6.973-.59a6.604 6.604 0 0 0-2.987-12.866c-.818.188-1.693.325-2.534.216a6.661 6.661 0 1 0-1.452 13.24m6.973-.59c2.662-.63 5.186-1.758 7.555-3.107a6.484 6.484 0 0 0-6.072-11.452c-1.425.705-2.915 1.34-4.468 1.693a6.604 6.604 0 1 0 2.926 12.88zm7.555-3.107a127 127 0 0 0 7.211-4.465 6.266 6.266 0 0 0-6.657-10.614 96 96 0 0 1-6.626 3.629 6.484 6.484 0 1 0 6.072 11.449m7.211-4.466a201 201 0 0 0 7.84-5.47 6.06 6.06 0 0 0-6.96-9.92 160 160 0 0 1-7.537 4.776 6.266 6.266 0 1 0 6.657 10.614m7.84-5.47a149 149 0 0 0 8.181-6.454 5.885 5.885 0 0 0-7.454-9.102 120 120 0 0 1-7.688 5.636 6.06 6.06 0 1 0 6.961 9.92m8.181-6.454a155 155 0 0 0 8.276-7.544 5.657 5.657 0 0 0-7.694-8.292 203 203 0 0 1-8.036 6.734 5.883 5.883 0 1 0 7.454 9.102m8.276-7.544a184 184 0 0 0 7.863-8.167 5.489 5.489 0 0 0-8.11-7.396 99 99 0 0 1-7.447 7.271 5.657 5.657 0 1 0 7.694 8.29m7.863-8.167a232 232 0 0 0 7.006-8.106 5.423 5.423 0 0 0-8.313-6.962 268 268 0 0 1-6.802 7.672 5.489 5.489 0 1 0 8.077 7.432c.016-.012.02-.023.032-.036m7.006-8.106a117 117 0 0 0 5.96-7.843 5.37 5.37 0 0 0-8.823-6.126 93 93 0 0 1-5.452 7.007 5.423 5.423 0 0 0 8.257 7.031zm5.96-7.843c1.63-2.358 3.123-4.85 4.164-7.528a5.36 5.36 0 1 0-9.99-3.889c-.735 1.89-1.842 3.636-2.995 5.29a5.37 5.37 0 1 0 8.806 6.148c0-.007.017-.013.017-.02zm4.164-7.528c.809-2.076 1.448-4.25 1.635-6.48a5.342 5.342 0 0 0-10.638-.982c-.123 1.227-.542 2.431-.987 3.573a5.36 5.36 0 0 0 9.991 3.89m-8.998-8.294c-.037-.08.001.041 0 .072.032.25.017.507-.016.759a5.343 5.343 0 0 0 10.631 1.071c0-.03 0-.059.017-.09.195-2.323-.192-4.715-1.422-6.726a5.23 5.23 0 0 0-9.213 4.914zm.405.725a5.23 5.23 0 0 0 8.808-5.638c-1.293-2.114-3.408-3.525-5.788-4.133a5.12 5.12 0 0 0-3.015 9.774v-.006zm-2.726-.072c1.03-.043 2.13-.07 3.135.202a5.12 5.12 0 1 0 2.683-9.882l-.07-.02c-2.014-.515-4.122-.592-6.188-.504a5.107 5.107 0 1 0 .44 10.204zm-4.859 1.266c1.536-.627 3.187-1.192 4.86-1.266a5.108 5.108 0 0 0-.441-10.202c-2.819.12-5.582.882-8.204 1.885a5.153 5.153 0 1 0 3.678 9.626q.054-.021.107-.044m-6.94 3.536c2.223-1.342 4.533-2.555 6.94-3.536a5.153 5.153 0 0 0-3.785-9.583c-2.966 1.134-5.809 2.578-8.525 4.22a5.197 5.197 0 1 0 5.37 8.899m-7.78 5.326a90 90 0 0 1 7.78-5.326 5.197 5.197 0 1 0-5.37-8.899 163 163 0 0 0-8.648 5.627 5.313 5.313 0 1 0 6.239 8.598m-7.956 6.377q3.89-3.3 7.956-6.377a5.313 5.313 0 0 0-6.239-8.598 131 131 0 0 0-8.729 6.589 5.466 5.466 0 1 0 7.012 8.386m-7.488 6.854a141 141 0 0 1 7.488-6.854 5.466 5.466 0 0 0-7.014-8.386 127 127 0 0 0-8.184 7.384 5.505 5.505 0 0 0 7.71 7.856m-7.314 7.883a120 120 0 0 1 7.314-7.883 5.505 5.505 0 1 0-7.712-7.858 143 143 0 0 0-7.998 8.543 5.53 5.53 0 1 0 8.365 7.234c.017-.012.02-.024.03-.036zm-5.382 7.567c1.502-2.712 3.376-5.21 5.382-7.567a5.53 5.53 0 0 0-8.396-7.198c-2.444 2.829-4.757 5.787-6.77 8.94a5.696 5.696 0 1 0 9.786 5.825zm-2.768 6.115c.673-2.135 1.687-4.163 2.77-6.115a5.697 5.697 0 0 0-9.787-5.824c-1.59 2.495-3.072 5.08-4.222 7.81a5.993 5.993 0 1 0 11.24 4.129m-.815 3.704c.058-1.255.439-2.514.815-3.704a5.993 5.993 0 0 0-11.239-4.128c-.929 2.206-1.702 4.522-1.946 6.915a6.205 6.205 0 0 0 12.344 1.26c.017-.114.02-.227.026-.343m-11.618 5.404a6.263 6.263 0 0 0 11.717-4.36c-.072-.24-.107-.339-.108-.571q-.006-.236.016-.473a6.205 6.205 0 0 0-12.371-.917c-.218 2.125-.13 4.342.753 6.321zm0 0c1.132 2.54 3.467 4.264 6.13 4.917a6.17 6.17 0 0 0 4.497-11.367v.006a6.263 6.263 0 0 0-10.624 6.446zm6.13 4.917c1.666.41 3.395.545 5.105.582a6.038 6.038 0 0 0 .452-12.067c-.6-.032-1.297-.043-1.87-.263a6.17 6.17 0 1 0-3.685 11.75m5.105.581c2.391.052 4.774-.363 7.07-1.012a5.926 5.926 0 0 0-2.936-11.477c-1.198.275-2.448.488-3.682.423a6.038 6.038 0 1 0-.452 12.065zm7.07-1.012c2.556-.72 5.045-1.67 7.487-2.713a5.801 5.801 0 0 0-4.425-10.723c-1.95.778-3.946 1.488-5.998 1.959a5.926 5.926 0 1 0 2.936 11.477m7.487-2.713a170 170 0 0 0 8.617-3.993 5.643 5.643 0 0 0-4.782-10.219 244 244 0 0 1-8.26 3.489 5.801 5.801 0 0 0 4.299 10.776zm8.617-3.993c4.59-2.268 9.077-4.742 13.558-7.214a5.448 5.448 0 0 0-5.18-9.586c-4.33 2.292-8.677 4.597-13.16 6.58a5.644 5.644 0 1 0 4.784 10.22m13.558-7.214a1609 1609 0 0 1 13.255-7.26 5.138 5.138 0 0 0-4.478-9.239c-4.765 2.059-9.374 4.488-13.957 6.913a5.449 5.449 0 0 0 5.097 9.631zm13.255-7.26c2.241-1.211 4.556-2.355 6.985-3.135a5.06 5.06 0 1 0-3.48-9.491 565 565 0 0 0-7.983 3.387 5.138 5.138 0 1 0 4.478 9.239m6.985-3.135c1.421-.456 2.903-.893 4.399-1.002a5.204 5.204 0 0 0-.752-10.38c-2.463.179-4.86.95-7.127 1.89a5.06 5.06 0 0 0 3.48 9.492m4.399-1.002.067-.006v.006a5.273 5.273 0 0 0 6.427-8.361c-2.056-1.611-4.669-2.204-7.243-2.018a5.203 5.203 0 0 0 .752 10.379zm-.79-.808c.679.805.255.289.205.151.055.149.07.314.087.47a5.375 5.375 0 1 0 10.697-1.058c0-.048-.017-.094-.017-.14-.34-2.693-1.521-5.277-3.691-6.976a5.273 5.273 0 0 0-7.282 7.553zm11.11 6.4c.12-2.32.151-4.668-.139-6.978a5.374 5.374 0 0 0-10.68 1.2c.159 1.598 0 3.237-.198 4.826a5.534 5.534 0 1 0 11.02.953zm-1.779 10.33c.865-3.38 1.599-6.838 1.78-10.33a5.532 5.532 0 0 0-11.02-.952c-.344 2.835-1.034 5.63-1.778 8.383a5.696 5.696 0 1 0 11 2.965c0-.021.017-.044.017-.066m-3.55 12.879c1.242-4.277 2.444-8.566 3.55-12.88a5.696 5.696 0 0 0-11.018-2.898 671 671 0 0 1-3.54 12.58 5.73 5.73 0 1 0 11.007 3.198m-5.43 16.262c1.984-5.361 3.835-10.773 5.43-16.262a5.73 5.73 0 0 0-11.006-3.197 1053 1053 0 0 0-4.552 16.209 5.324 5.324 0 0 0 10.13 3.25m-11.516 29.848c3.896-9.927 7.82-19.848 11.516-29.848a5.324 5.324 0 1 0-10.129-3.252c-1.095 4.01-2.292 7.992-3.5 11.966a1667 1667 0 0 1-5.71 18.365 4.152 4.152 0 0 0 7.822 2.77zm-12.626 32.38c4.162-10.812 8.393-21.597 12.626-32.38a4.152 4.152 0 1 0-7.822-2.77c-3.508 11.088-6.996 22.189-10.118 33.39a2.801 2.801 0 0 0 5.314 1.76m-8.708 23.571a959 959 0 0 1 8.708-23.572 2.803 2.803 0 1 0-5.314-1.758 375 375 0 0 1-7.545 23.861 2.201 2.201 0 0 0 4.15 1.47zm-9.036 22.82c3.321-7.48 6.297-15.11 9.036-22.82a2.202 2.202 0 1 0-4.148-1.467c-2.68 7.611-5.601 15.14-8.877 22.516a2.183 2.183 0 1 0 3.99 1.772zm-9.508 20.235a516 516 0 0 0 9.508-20.234 2.183 2.183 0 1 0-3.99-1.773 511 511 0 0 1-9.428 20.062 2.183 2.183 0 0 0 3.908 1.945m-9.683 19.061a1214 1214 0 0 0 9.683-19.061 2.183 2.183 0 0 0-3.908-1.945 662 662 0 0 1-9.768 18.895 2.258 2.258 0 0 0 3.977 2.14c0-.012.016-.02.016-.03zm-9.29 17.048a450 450 0 0 0 9.29-17.048 2.258 2.258 0 0 0-3.993-2.111c-3.02 5.614-6.208 11.14-9.663 16.497a2.558 2.558 0 0 0 4.3 2.773q.036-.053.068-.11m-8.981 14.686a309 309 0 0 0 8.982-14.687 2.558 2.558 0 0 0-4.368-2.66 405 405 0 0 1-9.464 14.056 2.931 2.931 0 1 0 4.79 3.38l.062-.089zm-8.665 12.689a335 335 0 0 0 8.665-12.689 2.931 2.931 0 0 0-4.85-3.291c-2.85 4.044-5.89 7.962-9.2 11.644a3.463 3.463 0 1 0 5.387 4.336m-8.66 10.094c3.233-3.044 6.07-6.494 8.661-10.094a3.463 3.463 0 0 0-5.386-4.336c-2.654 2.954-5.484 5.776-8.61 8.234a4.09 4.09 0 1 0 5.334 6.196m-9.42 6.598c3.48-1.654 6.62-3.964 9.42-6.598a4.09 4.09 0 0 0-5.333-6.196c-2.414 1.9-5 3.607-7.792 4.901a4.361 4.361 0 0 0 3.666 7.913l.038-.017zm-9.15 2.893c3.186-.432 6.255-1.517 9.15-2.891a4.361 4.361 0 0 0-3.705-7.896c-2.073.96-4.275 1.76-6.554 2.03a4.414 4.414 0 0 0 1.034 8.767zm-9.076-1.326c2.82 1.355 5.99 1.742 9.075 1.326a4.414 4.414 0 0 0-1.108-8.758c-1.4.165-2.835.035-4.117-.581a4.445 4.445 0 0 0-3.85 8.013m-6.88-5.438c1.913 2.24 4.218 4.158 6.88 5.438a4.445 4.445 0 1 0 3.85-8.013c-1.56-.75-2.889-1.906-4.016-3.205a4.43 4.43 0 0 0-6.711 5.782m-5.147-8.295c1.363 2.96 3.026 5.81 5.147 8.296a4.43 4.43 0 1 0 6.735-5.754c-.017-.01-.017-.017-.023-.028-1.601-1.843-2.824-3.999-3.84-6.208a4.414 4.414 0 0 0-8.019 3.694zm-3.587-11.017c.834 3.774 1.966 7.501 3.587 11.017a4.414 4.414 0 0 0 8.017-3.694c-1.338-2.902-2.2-6.01-2.803-9.142a4.494 4.494 0 1 0-8.825 1.698c.016.041.016.08.024.121m-1.623-13.819c.159 4.637.622 9.284 1.623 13.82a4.494 4.494 0 0 0 8.8-1.82c-.78-4.057-1.14-8.19-1.28-12.314a4.574 4.574 0 0 0-9.143.314m0 0a4.574 4.574 0 1 0 9.142-.314c-.174-5.069.173-10.15.805-15.18a4.304 4.304 0 0 0-8.5-1.331c-1.045 5.537-1.64 11.186-1.447 16.825m9.947-15.494c.741-5.928 1.98-11.788 3.554-17.551a3.754 3.754 0 0 0-7.182-2.183c-2.018 6.02-3.694 12.161-4.873 18.403a4.304 4.304 0 1 0 8.5 1.33m3.554-17.551c1.825-6.689 4.158-13.233 6.783-19.646a3.157 3.157 0 0 0-5.773-2.553c-3.099 6.51-5.899 13.177-8.192 20.016a3.754 3.754 0 1 0 7.182 2.183m6.783-19.646c3.084-7.538 6.725-14.843 10.686-21.954a2.494 2.494 0 0 0-4.293-2.539c-4.44 7.089-8.568 14.383-12.166 21.94a3.157 3.157 0 1 0 5.771 2.553zm10.686-21.954a227 227 0 0 1 14.38-22.544 2.12 2.12 0 0 0-3.431-2.49 384 384 0 0 0-15.242 22.495 2.494 2.494 0 1 0 4.293 2.539m14.38-22.544a295 295 0 0 1 17.144-21.507 2.09 2.09 0 0 0-3.144-2.753 316 316 0 0 0-17.431 21.77 2.12 2.12 0 0 0 3.424 2.498v-.009zm17.144-21.507a306 306 0 0 1 18.663-19.563 2.098 2.098 0 0 0-2.898-3.028 314 314 0 0 0-18.906 19.84 2.09 2.09 0 0 0 3.144 2.751zm18.663-19.563c5.852-5.602 11.914-10.995 18.273-16.016a2.106 2.106 0 0 0-2.61-3.305c-6.46 5.11-12.619 10.595-18.564 16.294a2.097 2.097 0 0 0 2.899 3.027m18.273-16.016c5.417-4.28 10.97-8.398 16.717-12.224a2.15 2.15 0 1 0-2.382-3.578c0 .006-.016.007-.016.011-5.805 3.937-11.428 8.138-16.93 12.488a2.105 2.105 0 0 0 2.61 3.303zm16.717-12.224c4.755-3.167 9.73-6.039 14.97-8.329a2.704 2.704 0 1 0-2.472-4.795c-5.062 3.032-10.014 6.245-14.896 9.555a2.15 2.15 0 0 0 2.398 3.569m14.97-8.329c4.256-1.858 8.589-3.572 13.027-4.952a3.708 3.708 0 1 0-2.739-6.868c-4.358 2.143-8.596 4.528-12.76 7.025a2.704 2.704 0 0 0 2.471 4.797m13.028-4.953c3.535-1.1 7.13-2.03 10.78-2.662a4.469 4.469 0 1 0-1.961-8.708c-3.988 1.112-7.844 2.677-11.558 4.5a3.708 3.708 0 0 0 2.739 6.87m10.78-2.662c3.017-.52 6.063-.906 9.124-1.036a4.755 4.755 0 0 0-.404-9.501h-.033c-3.606.18-7.176.862-10.648 1.83a4.469 4.469 0 0 0 1.96 8.707m9.124-1.036c2.095-.09 4.25-.026 6.29.503a4.771 4.771 0 0 0 2.39-9.237c-2.967-.769-6.068-.916-9.117-.765a4.755 4.755 0 0 0 .437 9.498m6.29.502c1.48.383 2.92.965 4.183 1.834a4.675 4.675 0 0 0 5.539-7.526c-2.154-1.696-4.683-2.859-7.333-3.544a4.77 4.77 0 1 0-2.39 9.236m4.184 1.834a15.7 15.7 0 0 1 3.308 3.047 4.473 4.473 0 0 0 7.15-5.372 24.4 24.4 0 0 0-4.92-5.2 4.674 4.674 0 1 0-5.538 7.525m3.277 3.008c.261.33.412.78.554 1.168.345.935.587 1.91.796 2.883.755 3.5 1.102 7.092 1.378 10.657a2.707 2.707 0 0 0 5.373.225c.632-3.876 1.157-7.82 1.122-11.757-.026-2.905-.334-6.112-2.07-8.548a4.475 4.475 0 1 0-7.153 5.372" style="fill:#1e1b1b;fill-opacity:1;fill-rule:nonzero;stroke:none;stroke-width:2.13554"/><path d="M532.075 125.827a12 12 0 0 1 .533.096q.789.16 1.572.349a2.804 2.804 0 1 0 1.295-5.455 5 5 0 0 1-.326-.088v-.002a3.36 3.36 0 1 0-3.079 5.1zm-3.09-2.082a3.6 3.6 0 0 0 1.793 1.822c.64.295 1.33.365 2.023.4.573.028 1.148.037 1.723.044a4.132 4.132 0 1 0-.581-8.217c-.803.122-1.607.297-2.363.603-1.537.623-2.798 1.92-2.899 3.656-.016.248 0 .497.034.743zm5.54 2.266c5.337.06 10.677.26 16.014.41a4.733 4.733 0 1 0 0-9.463c-3.613.103-7.227.217-10.835.393-1.916.094-3.862.15-5.761.442a4.132 4.132 0 0 0 .581 8.218m16.015.41c3.921.112 7.844.199 11.766.224 2.77.016 5.543.011 8.313-.102a5.117 5.117 0 0 0-.422-10.225c-6.55.269-13.104.453-19.658.64a4.733 4.733 0 0 0 0 9.463m20.08.122c4.407-.181 8.808-.545 13.187-1.07a5.007 5.007 0 0 0-1.023-9.96q-6.284.542-12.585.805a5.117 5.117 0 1 0 .42 10.225m13.188-1.07q6.68-.801 13.326-1.855a4.816 4.816 0 0 0-1.392-9.53q-6.463.867-12.957 1.426a5.007 5.007 0 0 0 .857 9.976zm13.326-1.855q5.99-.95 11.985-1.864a4.917 4.917 0 1 0-1.802-9.663c-3.824.846-7.694 1.477-11.575 1.997a4.816 4.816 0 0 0 1.278 9.546zm11.985-1.864q5.311-.806 10.597-1.746a5.242 5.242 0 1 0-2.12-10.264q-5.132 1.208-10.28 2.347a4.917 4.917 0 0 0 1.803 9.663m10.597-1.746q4.96-.884 9.93-1.704a5.497 5.497 0 1 0-2.03-10.802q-5.024 1.065-10.02 2.242a5.242 5.242 0 0 0 2.12 10.264m9.93-1.704a574 574 0 0 1 8.57-1.354 5.705 5.705 0 1 0-1.966-11.235q-4.325.873-8.635 1.787a5.497 5.497 0 0 0 2.031 10.802m8.57-1.354 9.367-1.398a5.8 5.8 0 1 0-1.713-11.471c-3.217.48-6.431.993-9.62 1.634a5.705 5.705 0 0 0 1.965 11.235m9.368-1.398c2.534-.38 5.068-.764 7.605-1.112a5.647 5.647 0 0 0-.711-11.243c-1.21-.013-2.419.1-3.62.227-1.666.176-3.328.409-4.986.657a5.8 5.8 0 0 0 1.712 11.471m7.605-1.112 2.15-.294a5.489 5.489 0 0 0-.693-10.927l-2.168-.022a5.65 5.65 0 1 0 .711 11.243m.432-.304q.566.075 1.133.058a5.489 5.489 0 1 0-1.028-10.907 7 7 0 0 0-1.1.269 5.452 5.452 0 0 0 .997 10.58m-13.356-1.062c3.326.28 6.651.56 9.978.827q1.365.112 2.734.211c.506.037 1.017.085 1.525.07a5.452 5.452 0 1 0-.92-10.85c-.554.078-1.098.227-1.64.361q-1.257.311-2.51.631c-3.236.822-6.465 1.658-9.696 2.494a3.184 3.184 0 0 0 .529 6.256m-197.41 16.719c-.117-.002-.14-.02-.017.014.196.051.385.125.572.2.777.317 1.515.73 2.236 1.156a3.083 3.083 0 0 0 3.54-5.026c-1.34-1.113-2.683-2.255-4.129-3.233a3.769 3.769 0 1 0-2.205 6.887zm-1.161.475c.528-.189 1.103-.435 1.665-.496a3.769 3.769 0 0 0 2.1-6.556c-1.057-.945-2.393-1.55-3.71-2.042a4.843 4.843 0 1 0-.055 9.094m-1.424.657c.423-.3.943-.484 1.425-.657a4.843 4.843 0 0 0 .055-9.094c-1.809-.674-3.76-1.03-5.686-.75a5.817 5.817 0 1 0 4.206 10.5m.104.18c.765-1.271.384-.672.192-.451a2 2 0 0 1-.136.14c-.047.044-.226.185-.021.03a5.817 5.817 0 0 0-4.344-10.399c-2.447.356-4.638 1.724-6.105 3.703a6.275 6.275 0 1 0 10.415 6.977zm.26.196c.017-.362.04-.727.175-1.065a6.275 6.275 0 0 0-10.85-6.108c-1.236 1.666-1.96 3.65-2.338 5.677a6.564 6.564 0 1 0 13.012 1.496m-13.403 2.947a6.724 6.724 0 1 0 13.412-.968c-.017-.131-.022-.262-.04-.394.024.188 0-.234 0-.277 0-.435.016-.873.032-1.308a6.564 6.564 0 0 0-13.01-1.496c-.273 1.457-.498 2.956-.391 4.443zm0 0c.172 2.386 1.363 4.58 3.17 6.128a6.77 6.77 0 0 0 9.643-9.433v.005a6.724 6.724 0 0 0-12.812 3.3zm3.17 6.128c1.53 1.308 3.433 2.088 5.405 2.428a6.793 6.793 0 0 0 2.535-13.345 6.77 6.77 0 0 0-7.944 10.915zm5.405 2.428c1.397.24 2.812.346 4.228.387a6.825 6.825 0 0 0 .397-13.644c-.077 0-.152-.005-.229 0-.695 0-1.403-.013-2.09-.131a6.794 6.794 0 0 0-2.306 13.39zm4.228.387c2.153.064 4.3-.3 6.359-.913a6.857 6.857 0 1 0-3.915-13.143c-.733.22-1.505.405-2.274.409a6.825 6.825 0 0 0-.17 13.646m6.359-.913c2.1-.625 4.118-1.506 6.038-2.556a6.807 6.807 0 0 0-6.32-12.058 22.4 22.4 0 0 1-3.633 1.47 6.857 6.857 0 0 0 3.916 13.144m6.039-2.556a66 66 0 0 0 5.439-3.345 6.745 6.745 0 0 0-7.544-11.184 40 40 0 0 1-4.215 2.471 6.807 6.807 0 1 0 6.32 12.058m5.439-3.345a63 63 0 0 0 5.579-4.308 6.607 6.607 0 0 0-8.247-10.312 125 125 0 0 1-4.876 3.436 6.746 6.746 0 0 0 7.493 11.22q.025-.02.053-.036zm5.579-4.308a88 88 0 0 0 5.109-4.78 6.418 6.418 0 0 0-8.963-9.185 50 50 0 0 1-4.393 3.653 6.607 6.607 0 1 0 8.245 10.312zm5.109-4.78a54.5 54.5 0 0 0 4.561-5.242 6.16 6.16 0 0 0-9.275-8.069 163 163 0 0 1-4.249 4.124 6.418 6.418 0 1 0 8.961 9.187m4.562-5.242a56 56 0 0 0 3.46-5.056 5.798 5.798 0 0 0-9.492-6.615 47 47 0 0 1-3.243 3.604 6.16 6.16 0 1 0 9.273 8.067zm3.46-5.056c.877-1.458 1.702-2.966 2.298-4.563a5.462 5.462 0 0 0-9.719-4.853c-.625.978-1.345 1.896-2.071 2.803a5.798 5.798 0 1 0 9.493 6.613m2.298-4.563c.476-1.274.841-2.6.958-3.956a5.217 5.217 0 0 0-10.278-1.634c.017-.056-.048.112-.056.131a5 5 0 0 1-.342.607 5.462 5.462 0 1 0 9.72 4.853zm-9.456-4.46a5.217 5.217 0 0 0 10.414.504c.1-1.157-.032-2.337-.52-3.4-1.019-2.23-3.453-3.547-5.878-3.105a5.03 5.03 0 0 0-4.048 5.848c.017.053.02.104.032.155zm6.772 3.62a5.03 5.03 0 0 0-2.755-9.62c-1.286.233-2.415.903-3.442 1.68a5.036 5.036 0 1 0 6.199 7.939v.002zm-1.02 1.562c.536-.745 1.073-1.498 1.675-2.193a5.036 5.036 0 0 0-6.852-7.306c-1.166.885-2.157 1.992-3.086 3.115a5.225 5.225 0 1 0 8.263 6.384m-4.526 7.026c.95-1.526 1.905-3.05 2.88-4.561.536-.83 1.07-1.664 1.646-2.465a5.225 5.225 0 0 0-8.265-6.384c-1.919 2.317-3.666 4.789-5.437 7.22a5.539 5.539 0 1 0 9.176 6.19m-5.632 9.042 5.632-9.042a5.539 5.539 0 0 0-9.178-6.19c-2.141 2.936-4.266 5.89-6.273 8.923a5.836 5.836 0 1 0 9.82 6.309zm-14.327 21.898a3207 3207 0 0 0 9.149-13.887c1.736-2.654 3.476-5.306 5.165-7.992a5.836 5.836 0 0 0-9.82-6.307c-.848 1.29-1.579 2.659-2.279 4.034a125 125 0 0 0-2.437 5.116c-2.315 5.106-4.442 10.296-6.526 15.498a3.828 3.828 0 0 0 6.748 3.538m202.07-5.837a59 59 0 0 1 4.329.213 2.878 2.878 0 0 0 .73-5.705c-.853-.142-1.617-.716-2.218-1.305a3.964 3.964 0 1 0-2.841 6.797m.957-.1a3.964 3.964 0 0 0 2.435-6.023c-.463-.712-.92-1.452-1.483-2.091a5.494 5.494 0 1 0-.947 8.118v-.004zm2.27-3.374c0-.088 0-.176-.017-.264a5.5 5.5 0 0 0-1.308-4.476 5.93 5.93 0 0 0-3.85-1.96 6.3 6.3 0 0 0-3.94.946c-1.511.951-2.55 2.48-3.076 4.169a6.235 6.235 0 1 0 12.184 1.585zm-7.443 8.057a6.46 6.46 0 0 0 6.76-10.646v.006a6.235 6.235 0 0 0-11.5.997c-.555 1.79-.509 3.74.236 5.468.844 1.958 2.512 3.455 4.506 4.176zm0 0a13.8 13.8 0 0 0 4.36.83 6.476 6.476 0 1 0 .128-12.95c.017 0-.077-.022-.093-.029a6.46 6.46 0 0 0-4.397 12.15m4.36.83c1.297.029 2.595-.1 3.871-.341a6.49 6.49 0 1 0-2.399-12.757 7.4 7.4 0 0 1-1.342.149 6.476 6.476 0 0 0-.132 12.95m3.871-.342a21.3 21.3 0 0 0 4.18-1.27 6.435 6.435 0 0 0-4.52-12.045c-.673.228-1.36.426-2.059.558a6.49 6.49 0 1 0 2.4 12.757m4.178-1.27c1.687-.697 3.31-1.554 4.914-2.422A6.336 6.336 0 0 0 662 135.426c-1.161.584-2.338 1.191-3.572 1.608a6.435 6.435 0 1 0 4.52 12.046m4.914-2.422c1.73-.935 3.474-1.922 4.99-3.18a6.054 6.054 0 0 0-6.167-10.26c-1.597.657-3.146 1.432-4.687 2.208a6.336 6.336 0 1 0 5.864 11.232m4.99-3.18a58 58 0 0 0 3.115-2.813 5.686 5.686 0 0 0-7.363-8.641c-.595.448-1.227.91-1.92 1.195a6.054 6.054 0 1 0 6.169 10.258m3.114-2.812c1.404-1.349 2.67-2.903 3.434-4.71a5.375 5.375 0 0 0-9.237-5.333c-.417.55-1.016.99-1.56 1.402a5.686 5.686 0 1 0 7.363 8.64m3.434-4.708a12.2 12.2 0 0 0 .972-4.696 5.077 5.077 0 0 0-5.065-5.095 5.08 5.08 0 0 0-5.02 4.207.64.64 0 0 1-.124.249 5.375 5.375 0 1 0 9.237 5.335m-8.694-2.528a5.079 5.079 0 0 0 9.666-2.168c0-1.722-.596-3.428-1.866-4.628-1.35-1.276-3.236-1.76-5.05-1.468a4.908 4.908 0 0 0-2.744 8.264zm4.108 2.04c.227-.255.464-.505.72-.731l.002.005a4.908 4.908 0 0 0-2.082-9.578c-2.206.356-4.083 1.759-5.717 3.203v-.002a5.023 5.023 0 1 0 7.076 7.104zm-2.888 3.422a71 71 0 0 1 2.888-3.421 5.023 5.023 0 0 0-7.076-7.104 79 79 0 0 0-3.764 3.513 5.31 5.31 0 1 0 7.95 7.012zm-4.222 5.385q2.113-2.691 4.22-5.385a5.31 5.31 0 0 0-7.949-7.012c-1.749 1.762-3.283 3.748-4.81 5.699a5.428 5.428 0 0 0 8.54 6.698m-11.299 11.979c4.07-3.687 7.906-7.655 11.298-11.98a5.427 5.427 0 1 0-8.542-6.697c-3.496 4.459-6.235 9.49-8.386 14.719a3.527 3.527 0 0 0 5.63 3.956" style="fill:#1e1b1b;fill-opacity:1;fill-rule:nonzero;stroke:none;stroke-width:2.13554"/></svg>