<svg xmlns="http://www.w3.org/2000/svg" viewBox="0 0 24 24" fill="none">
  <path d="M12 3c-5 0-9 4.1-9 9.2 0 4 2.5 7.4 6 8.6.4.1.5-.2.5-.4v-2c-2.4.6-3-1-3-1-.4-1.1-1-1.4-1-1.4-.9-.6.1-.6.1-.6 1 .1 1.6 1.1 1.6 1.1.9 1.6 2.4 1.1 3 .8.1-.7.4-1.1.7-1.4-1.9-.2-3.8-1-3.8-4.4 0-1 .3-1.8.8-2.4-.1-.2-.4-1.2.1-2.5 0 0 .8-.3 2.6.9a8.8 8.8 0 0 1 4.8 0c1.8-1.2 2.6-.9 2.6-.9.5 1.3.2 2.3.1 2.5.5.6.8 1.4.8 2.4 0 3.4-1.9 4.2-3.8 4.4.3.3.7.9.7 1.8v2.7c0 .2.2.5.5.4 3.5-1.2 6-4.6 6-8.6C21 7.1 17 3 12 3z" fill="#5a4632" />
</svg>
