<svg xmlns="http://www.w3.org/2000/svg" width="315.414" height="396.996" viewBox="0 0 315.414 396.996"><path fill="#1e1b1b" d="M104.035 46.953c.308.084.627.189.901.358a1.29 1.29 0 0 0 1.613-1.985h.002a2.01 2.01 0 1 0-3.972-.628 2.01 2.01 0 0 0 1.456 2.255m-2.847-2.672a2.92 2.92 0 1 0 5.84 0 2.92 2.92 0 0 0-5.84 0m6.26.52a19 19 0 0 0-.366-1.15c-.273-.754-.676-1.431-1.372-1.881a3 3 0 0 0-1.635-.484l-.836.117a3 3 0 0 0-.479.18 3 3 0 0 0-.328.182c-.665.424-1.112 1.065-1.418 1.778-.175.406-.312.828-.436 1.252a3.58 3.58 0 1 0 6.87.006m2.177 7.454-2.177-7.454a3.58 3.58 0 0 0-6.87-.006l-2.19 7.45a5.855 5.855 0 1 0 11.237.01m2.324 7.884c-.794-2.622-1.556-5.254-2.324-7.884a5.855 5.855 0 0 0-11.237-.01 148 148 0 0 0-1.445 5.205c-.327 1.29-.639 2.59-.825 3.909a8.13 8.13 0 1 0 15.831-1.22m1.217 3.9a225 225 0 0 1-1.217-3.9 8.13 8.13 0 0 0-15.83 1.22 51 51 0 0 0-.458 5.082 8.973 8.973 0 0 0 17.93.692 9 9 0 0 0-.425-3.094m-17.38 7.795c.446 5.313 5.114 9.26 10.427 8.815 5.314-.445 9.26-5.114 8.815-10.427a9.6 9.6 0 0 0-.62-2.688 64 64 0 0 1-1.242-3.495 8.972 8.972 0 0 0-17.505 2.402c-.069 1.798-.025 3.6.125 5.393m0 0c.143 1.699.362 3.394.684 5.069 1.07 5.56 6.441 9.2 12.001 8.13 5.56-1.068 9.2-6.44 8.131-12a10.2 10.2 0 0 0-1.004-2.855 25 25 0 0 1-1.19-2.644c-1.93-4.97-7.524-7.436-12.495-5.506a9.655 9.655 0 0 0-6.127 9.806m.684 5.069a46 46 0 0 0 1.198 4.814c1.742 5.692 7.768 8.893 13.46 7.15 5.69-1.741 8.892-7.767 7.15-13.458a10.7 10.7 0 0 0-1.097-2.445 54 54 0 0 1-1.583-2.786c-2.646-5.005-8.848-6.917-13.853-4.271a10.25 10.25 0 0 0-5.275 10.996m1.198 4.814c.5 1.634 1.09 3.239 1.757 4.81 2.422 5.706 9.01 8.369 14.715 5.947s8.367-9.01 5.946-14.714a11.2 11.2 0 0 0-1.062-1.943 64 64 0 0 1-1.843-2.853c-3.092-5.085-9.722-6.701-14.807-3.61a10.775 10.775 0 0 0-4.706 12.363m1.757 4.81c.852 2.007 1.832 3.958 2.83 5.894 2.95 5.73 9.986 7.986 15.718 5.036s7.986-9.988 5.036-15.72q-.362-.703-.816-1.35a516 516 0 0 1-3.17-4.57c-3.494-5.118-10.476-6.435-15.594-2.941a11.22 11.22 0 0 0-4.004 13.652m2.83 5.893c.915 1.78 1.837 3.56 2.815 5.309 3.237 5.785 10.552 7.85 16.337 4.614 5.785-3.237 7.851-10.552 4.614-16.337q-.255-.456-.548-.886a407 407 0 0 0-3.28-4.734c-3.696-5.282-10.973-6.566-16.254-2.87a11.67 11.67 0 0 0-3.685 14.904m2.816 5.309a51 51 0 0 0 2.412 3.915c3.778 5.504 11.303 6.902 16.807 3.124s6.902-11.304 3.124-16.807a890 890 0 0 1-1.94-2.841c-3.727-5.483-11.192-6.907-16.675-3.18a12.003 12.003 0 0 0-3.728 15.789m2.412 3.915a67 67 0 0 0 2.128 2.933c4.062 5.28 11.635 6.269 16.916 2.207 5.15-3.961 6.237-11.288 2.461-16.574a151 151 0 0 1-1.574-2.25c-3.779-5.503-11.304-6.902-16.807-3.123-5.504 3.778-6.903 11.303-3.124 16.807m2.128 2.933q1.074 1.397 2.232 2.727c4.364 5 11.957 5.518 16.958 1.154 4.906-4.28 5.512-11.687 1.368-16.708a28 28 0 0 1-1.18-1.54c-3.874-5.421-11.409-6.676-16.829-2.803s-6.676 11.407-2.803 16.828q.124.174.254.342m2.232 2.727c1.227 1.406 2.617 2.675 4.166 3.719a11.875 11.875 0 0 0 15.284-17.986 27 27 0 0 1-1.124-1.287c-4.225-5.12-11.8-5.843-16.92-1.618-5.12 4.226-5.844 11.802-1.619 16.92q.105.128.213.252m4.166 3.719c1.27.857 2.623 1.589 3.987 2.283 5.721 2.91 12.718.634 15.63-5.086a11.62 11.62 0 0 0-3.838-14.892 11 11 0 0 1-.714-.515c-.018-.015-.073-.062-.025-.018q.127.115.244.242c-4.496-4.775-12.01-5-16.786-.504-4.774 4.496-4.999 12.012-.503 16.786a12 12 0 0 0 2.005 1.704m3.987 2.283c2.173 1.106 4.502 1.972 6.94 2.224 6.163.638 11.675-3.84 12.313-10.003a11.22 11.22 0 0 0-4.873-10.446l-2.588-1.753c-5.313-3.601-12.539-2.213-16.14 3.1-3.603 5.313-2.214 12.539 3.1 16.14q.601.408 1.248.738m6.94 2.224c1.806.187 3.642.158 5.41-.288 5.741-1.451 9.22-7.28 7.77-13.021a10.72 10.72 0 0 0-4.807-6.524c-.318-.194-.625-.408-.933-.616-5.132-3.471-12.106-2.125-15.577 3.007s-2.125 12.105 3.007 15.576a11.2 11.2 0 0 0 5.13 1.866m5.41-.288a10.9 10.9 0 0 0 3.766-1.774q.575-.422 1.088-.916a10.9 10.9 0 0 0 3.12-9.89 11.8 11.8 0 0 0-.783-2.473 21 21 0 0 0-1.117-2.137 9.38 9.38 0 0 0-14.034-2.513l.005.004a10.723 10.723 0 0 0 7.954 19.699m6.075-17.19a13.5 13.5 0 0 0-1.885-2.528c-1.257-1.308-2.848-2.304-4.643-2.662a7.6 7.6 0 0 0-2.514-.08c-1.84.247-3.513 1.162-4.858 2.417a13.4 13.4 0 0 0-2.048 2.474 9.38 9.38 0 0 0 2.736 12.977 9.377 9.377 0 0 0 13.212-12.598m-3.396-2.831a4.774 4.774 0 0 0-8.395-.78v-.002a5.794 5.794 0 1 0 8.401.778zm.33 1.224a26 26 0 0 1-.19-2.526 4.148 4.148 0 0 0-8.077-1.191 97 97 0 0 1-.943 2.67 4.775 4.775 0 1 0 9.21 1.047m-.19-2.526a54 54 0 0 0-.263-3.742 3.274 3.274 0 0 0-6.119-1.248 23 23 0 0 0-1.695 3.799 4.15 4.15 0 1 0 8.077 1.19m-.263-3.741c-.125-1.197-.059-2.413.074-3.606a2.377 2.377 0 0 0-4.572-1.144c-.476 1.194-.997 2.376-1.62 3.502a3.273 3.273 0 1 0 6.118 1.248m.074-3.606c.187-1.676.55-3.33.99-4.956a2.024 2.024 0 0 0-3.895-1.1c-.488 1.659-1.026 3.305-1.667 4.912a2.378 2.378 0 1 0 4.572 1.144m.99-4.956a127 127 0 0 1 1.718-5.79 1.988 1.988 0 0 0-3.784-1.223 219 219 0 0 0-1.829 5.913 2.024 2.024 0 1 0 3.883 1.142zm1.718-5.79q.945-2.937 2.033-5.824a1.985 1.985 0 1 0-3.714-1.401 136 136 0 0 0-2.103 6.002 1.989 1.989 0 1 0 3.783 1.227zm2.033-5.824q1.09-2.89 2.232-5.758a1.985 1.985 0 0 0-3.687-1.47 340 340 0 0 0-2.259 5.827 1.985 1.985 0 0 0 3.714 1.402zm2.232-5.758a289 289 0 0 1 2.205-5.385 1.984 1.984 0 1 0-3.656-1.544 293 293 0 0 0-2.236 5.46 1.984 1.984 0 1 0 3.687 1.469m2.205-5.385c1.13-2.674 2.344-5.312 3.554-7.95a1.984 1.984 0 1 0-3.607-1.654c-1.227 2.674-2.459 5.35-3.603 8.06a1.984 1.984 0 0 0 3.656 1.544m3.554-7.95a516 516 0 0 1 3.832-8.223 1.985 1.985 0 0 0-3.579-1.717 523 523 0 0 0-3.86 8.286 1.984 1.984 0 0 0 3.607 1.655m3.832-8.224a34 34 0 0 1 3.156-5.247 2.2 2.2 0 1 0-3.71-2.348 124 124 0 0 0-3.025 5.878 1.986 1.986 0 0 0 .931 2.648 1.986 1.986 0 0 0 2.648-.931m3.156-5.247a55 55 0 0 1 4.27-5.174 2.805 2.805 0 1 0-4.472-3.336 212 212 0 0 0-3.509 6.162 2.2 2.2 0 0 0 3.711 2.348m4.27-5.174a125 125 0 0 1 4.831-4.934 3.535 3.535 0 1 0-5.358-4.56 100 100 0 0 0-3.945 6.159 2.805 2.805 0 0 0 4.471 3.335m4.832-4.934a381 381 0 0 1 4.968-4.707 4.106 4.106 0 1 0-5.967-5.614 88 88 0 0 0-4.359 5.76 3.533 3.533 0 0 0 .887 4.92 3.53 3.53 0 0 0 4.471-.36m4.968-4.706a123 123 0 0 1 5.023-4.427 4.335 4.335 0 0 0-5.554-6.655 41.3 41.3 0 0 0-5.436 5.468 4.105 4.105 0 0 0 5.967 5.614m5.023-4.427a117 117 0 0 1 4.962-3.93 4.227 4.227 0 0 0-4.817-6.943 58 58 0 0 0-5.699 4.218 4.335 4.335 0 0 0 5.554 6.655m4.962-3.93a335 335 0 0 1 4.7-3.446 3.82 3.82 0 0 0-3.75-6.604 40 40 0 0 0-5.767 3.107 4.227 4.227 0 1 0 4.817 6.943m4.7-3.446a31.5 31.5 0 0 1 4.356-2.624 3.283 3.283 0 0 0-2.434-6.078 55 55 0 0 0-5.673 2.098 3.819 3.819 0 1 0 3.751 6.604m4.356-2.624a54 54 0 0 1 4.605-2.051 2.82 2.82 0 0 0-1.528-5.404 48 48 0 0 0-5.51 1.377 3.284 3.284 0 1 0 2.433 6.078m4.605-2.051a29 29 0 0 1 4.097-1.27A2.417 2.417 0 0 0 195.81.11a44 44 0 0 0-4.929.632 2.82 2.82 0 1 0 1.528 5.404m4.097-1.27a28 28 0 0 1 4.058-.607 2.129 2.129 0 0 0-.1-4.248 48 48 0 0 0-4.654.089 2.416 2.416 0 1 0 .696 4.767m4.058-.608c1.18-.09 2.374.003 3.511.33a1.999 1.999 0 0 0 1.127-3.835 18.3 18.3 0 0 0-4.738-.743 2.127 2.127 0 1 0 .1 4.248m3.511.33a10.6 10.6 0 0 1 3.067 1.433 1.986 1.986 0 0 0 2.25-3.273 15 15 0 0 0-4.19-1.995 1.999 1.999 0 1 0-1.148 3.829zm3.067 1.433a17 17 0 0 1 2.771 2.397 1.985 1.985 0 1 0 2.897-2.713 21 21 0 0 0-3.419-2.957 1.986 1.986 0 1 0-2.249 3.273m2.771 2.397c.876.936 1.587 2.022 2.153 3.17a2.394 2.394 0 1 0 3.808-2.782 85 85 0 0 1-3.064-3.101 1.985 1.985 0 0 0-2.898 2.713zm2.153 3.17c.65 1.319 1.133 2.716 1.498 4.138a3.416 3.416 0 1 0 5.913-3.06 53 53 0 0 0-3.603-3.86 2.394 2.394 0 0 0-3.808 2.783m1.498 4.137c.372 1.452.546 2.952.56 4.45a4.95 4.95 0 1 0 8.931-2.98 84 84 0 0 0-3.578-4.53 3.415 3.415 0 0 0-5.913 3.06m13.02 7.882a28.3 28.3 0 0 0-3.529-6.412 4.949 4.949 0 0 0-8.932 2.98 87 87 0 0 1-.132 5.476 6.53 6.53 0 1 0 12.592-2.044m2.233 6.835a62 62 0 0 0-2.233-6.835 6.53 6.53 0 0 0-12.592 2.044 42 42 0 0 1-.667 5.392 7.947 7.947 0 1 0 15.492-.601m1.435 8.397a48.3 48.3 0 0 0-1.435-8.397 7.947 7.947 0 0 0-15.492.6c-.446 2.406-.84 4.82-1.194 7.24a9.125 9.125 0 1 0 18.121.557m-.13 9.202c.338-3.054.388-6.14.13-9.202a9.125 9.125 0 0 0-18.12-.556 34.5 34.5 0 0 1-1.316 5.612c-1.686 5.215 1.175 10.809 6.39 12.495s10.81-1.176 12.495-6.39a10 10 0 0 0 .42-1.96m-1.47 8.683a79 79 0 0 0 1.47-8.682c.604-5.448-3.322-10.353-8.77-10.957a9.92 9.92 0 0 0-10.535 6.81 35.6 35.6 0 0 1-2.298 5.456c-2.754 5.297-.692 11.823 4.605 14.576s11.823.692 14.576-4.605c.427-.821.747-1.694.952-2.598m-3.477 10.007c1.503-3.202 2.695-6.555 3.477-10.007a10.81 10.81 0 0 0-20.133-7.373 93 93 0 0 1-3.632 6.332c-3.386 5.42-1.737 12.559 3.683 15.945 5.421 3.385 12.56 1.736 15.945-3.684q.366-.587.66-1.213m-4.448 8.42a100 100 0 0 0 4.448-8.42c2.716-5.785.228-12.676-5.557-15.392a11.57 11.57 0 0 0-14.73 4.344 80 80 0 0 1-4.15 6.026c-4.029 5.306-2.993 12.874 2.313 16.904s12.874 2.993 16.903-2.313q.42-.552.773-1.15m-5.692 8.417c2.048-2.7 3.965-5.5 5.692-8.416 3.395-5.733 1.5-13.132-4.234-16.527a12.065 12.065 0 0 0-15.755 3.085 80 80 0 0 1-4.889 5.8c-4.688 5.085-4.367 13.009.718 17.697 5.086 4.689 13.01 4.367 17.698-.718q.407-.442.77-.921m-6.854 7.982a84 84 0 0 0 6.854-7.982c4.18-5.511 3.101-13.367-2.41-17.547a12.525 12.525 0 0 0-16.776 1.489 66 66 0 0 1-5.359 5.215c-5.405 4.666-6.004 12.829-1.338 18.234s12.83 6.003 18.235 1.337q.413-.356.794-.746m-6.727 6.443a141 141 0 0 0 6.727-6.443c4.993-5.105 4.901-13.291-.204-18.283a12.93 12.93 0 0 0-17.487-.542 140 140 0 0 1-5.977 4.883c-5.8 4.472-6.877 12.799-2.404 18.6 4.472 5.8 12.8 6.876 18.6 2.404q.383-.296.745-.62m-7.852 6.185a80 80 0 0 0 7.852-6.184c5.458-4.884 5.923-13.268 1.04-18.726-4.634-5.178-12.479-5.902-17.98-1.66a131 131 0 0 1-6.118 4.44c-6.122 4.184-7.696 12.537-3.513 18.659s12.535 7.696 18.658 3.514zm-7.039 4.522c2.411-1.404 4.745-2.936 7.04-4.522 6.098-4.216 7.624-12.578 3.408-18.677-4.199-6.075-12.517-7.617-18.615-3.452-1.752 1.197-3.529 2.364-5.363 3.432-6.41 3.736-8.58 11.963-4.844 18.375 3.736 6.41 11.963 8.58 18.374 4.844m-6.922 3.475a60 60 0 0 0 6.922-3.475c6.412-3.736 8.581-11.963 4.845-18.374-3.736-6.412-11.963-8.581-18.375-4.845q-2.546 1.486-5.108 2.946c-6.363 3.629-8.58 11.729-4.952 18.093a13.264 13.264 0 0 0 16.668 5.655m-6.287 2.345a79 79 0 0 0 6.287-2.345c6.752-2.842 9.922-10.62 7.08-17.37s-10.619-9.922-17.37-7.081q-.734.31-1.426.703a49 49 0 0 1-3.928 2.018c-6.5 2.964-9.368 10.636-6.404 17.137a12.937 12.937 0 0 0 15.761 6.938m-3.627 1.268a65 65 0 0 1 3.627-1.268c6.796-2.205 10.518-9.501 8.314-16.296-2.205-6.796-9.5-10.518-16.296-8.313q-.703.228-1.375.534c-1.038.474-2.086.938-3.164 1.315-6.678 2.338-10.197 9.648-7.858 16.327 2.338 6.678 9.648 10.197 16.327 7.858q.214-.075.425-.157m-3.64 1.35a107 107 0 0 0 3.64-1.35c6.591-2.573 9.85-10.003 7.276-16.595-2.509-6.427-9.658-9.713-16.17-7.433q-1.595.559-3.19 1.114c-6.7 2.33-10.242 9.653-7.91 16.354 2.33 6.7 9.653 10.24 16.353 7.91m-13.93-1.74c2.123 1.534 4.682 2.407 7.286 2.613a16.4 16.4 0 0 0 6.644-.873c6.7-2.332 10.242-9.654 7.91-16.354-2.33-6.7-9.653-10.242-16.353-7.91-3.81 1.326-7.239 3.977-9.089 7.609a11.795 11.795 0 0 0 3.602 14.915m-.047.014q.13.056.251.124a3 3 0 0 1-.204-.138c5.28 3.815 12.653 2.628 16.47-2.652 3.815-5.28 2.628-12.654-2.653-16.47-5.28-3.815-12.654-2.628-16.469 2.652l-.158.224-.01-.012c-3.972 3.824-4.093 10.144-.268 14.116a10 10 0 0 0 3.041 2.156m-5.86-6.76c.523 2.13 1.801 4 3.517 5.345a11.7 11.7 0 0 0 2.343 1.415c5.015 2.292 10.938.085 13.231-4.93 2.293-5.013.085-10.937-4.929-13.23a9.99 9.99 0 0 0-10.28 1.199 11.7 11.7 0 0 0-2.085 2.079c-1.226 1.593-1.978 3.532-2.058 5.55a9.3 9.3 0 0 0 .26 2.573m.283-2.145a7.9 7.9 0 0 0 7.9 7.9 7.9 7.9 0 1 0-7.9-7.9m1.004.006a6.51 6.51 0 1 0 13.02 0 6.51 6.51 0 0 0-13.02 0m11.745 3.7a6.44 6.44 0 0 0 .902-5.66 6.4 6.4 0 0 0-.337-.844 6.43 6.43 0 0 0-4.542-3.494 6.39 6.39 0 0 0-7.49 5.058 6.39 6.39 0 0 0 11.467 4.94"/><path fill="#1e1b1b" d="M42.856 132.952c.047-.05.125-.103.185-.147.156-.114.318-.218.482-.32a27 27 0 0 1 1.774-.984 1.383 1.383 0 0 0-1.182-2.5c-.683.294-1.365.596-2.027.935-.458.234-.926.483-1.32.819a1.518 1.518 0 1 0 2.088 2.197m.018.002c0-.007.001-.022.007-.028a1.518 1.518 0 0 0-2.086-2.194 14 14 0 0 0-.899.802 1.758 1.758 0 1 0 2.978 1.42m.051.183c-.02-.051-.056-.13-.05-.183a1.758 1.758 0 0 0-2.979-1.42 9 9 0 0 0-.97 1.119 2.32 2.32 0 1 0 4 .484m.59 1.65a18 18 0 0 0-.59-1.65 2.322 2.322 0 0 0-4-.484c-.465.624-.799 1.34-1.043 2.078a2.957 2.957 0 1 0 5.632.056m.536 1.584a33 33 0 0 1-.536-1.584 2.957 2.957 0 0 0-5.632-.056 17 17 0 0 0-.556 2.19 3.497 3.497 0 0 0 2.79 4.085 3.497 3.497 0 0 0 3.934-4.635m-6.874 3.468a3.99 3.99 0 1 0 7.356-2.468 5.3 5.3 0 0 1-.482-1 3.498 3.498 0 0 0-6.724.55c-.18.96-.237 1.944-.15 2.918m0 0q.09 1.028.244 2.049a4.492 4.492 0 1 0 7.674-3.79 4.5 4.5 0 0 1-.562-.727 3.99 3.99 0 0 0-7.356 2.468m.244 2.049q.157 1.045.401 2.073a5.11 5.11 0 1 0 7.713-5.497 2.3 2.3 0 0 1-.44-.366 4.491 4.491 0 0 0-7.674 3.79m.401 2.073c.207.869.494 1.72.868 2.53a5.78 5.78 0 1 0 7.105-7.893 1.2 1.2 0 0 1-.26-.134 5.111 5.111 0 0 0-7.713 5.497m.868 2.53q.492 1.064 1.112 2.06a6.535 6.535 0 1 0 5.961-9.968c-.12-.007-.225-.067-.345-.1a5.78 5.78 0 0 0-6.728 8.009m1.112 2.058c.801 1.292 1.89 2.389 3.104 3.296a7.283 7.283 0 1 0 5.034-13.088 72 72 0 0 0-2.177-.175 6.536 6.536 0 0 0-5.96 9.967m3.103 3.296a17.8 17.8 0 0 0 3.678 2.095 7.838 7.838 0 1 0 3.45-15.038 47 47 0 0 1-2.094-.145 7.283 7.283 0 0 0-5.034 13.088m3.678 2.095a21.7 21.7 0 0 0 4.314 1.303 8.215 8.215 0 0 0 9.646-6.476 8.214 8.214 0 0 0-7.995-9.8 66 66 0 0 1-2.515-.065 7.838 7.838 0 0 0-3.45 15.038m4.314 1.303c1.257.247 2.523.447 3.792.616a8.517 8.517 0 1 0 .745-16.951c-.96.042-1.924.067-2.886.059a8.214 8.214 0 0 0-1.65 16.276m3.791.616c1.523.203 3.056.32 4.591.366a8.81 8.81 0 1 0-.69-17.565 49 49 0 0 1-3.156.248 8.517 8.517 0 0 0-.745 16.95m4.591.367c1.712.053 3.426.01 5.137-.082a9.222 9.222 0 1 0-3.043-18.073c-.91.26-1.84.487-2.784.59a8.812 8.812 0 0 0 .69 17.565m5.137-.082a64 64 0 0 0 6.243-.671c5.312-.815 8.957-5.781 8.143-11.093-.816-5.312-5.782-8.957-11.094-8.142a9.6 9.6 0 0 0-1.507.356 156 156 0 0 1-4.828 1.477 9.222 9.222 0 0 0 3.043 18.073m6.243-.671a75 75 0 0 0 6.941-1.42c5.448-1.373 8.75-6.904 7.376-12.352-1.375-5.448-6.905-8.75-12.353-7.376q-.642.162-1.259.406a84 84 0 0 1-5.162 1.863 9.73 9.73 0 0 0 4.457 18.879m6.941-1.42a357 357 0 0 1 6.941-1.667c5.805-1.34 9.424-7.133 8.083-12.94-1.34-5.804-7.133-9.423-12.938-8.082-.686.158-1.355.383-1.997.672-2.09.94-4.194 1.85-6.325 2.695-5.223 2.07-7.78 7.982-5.71 13.205a10.17 10.17 0 0 0 11.946 6.118m6.941-1.668q4.013-.927 8.02-1.876c6.21-1.472 10.051-7.7 8.58-13.911-1.47-6.211-7.7-10.053-13.91-8.581q-1.016.24-1.97.658a825 825 0 0 0-7.572 3.36c-5.434 2.444-7.858 8.829-5.415 14.263a10.79 10.79 0 0 0 12.267 6.087m8.02-1.876q4.116-.974 8.244-1.896c6.6-1.476 10.752-8.022 9.276-14.621s-8.022-10.752-14.62-9.276q-.84.188-1.649.493a178 178 0 0 0-8.55 3.466c-5.849 2.56-8.514 9.375-5.955 15.222a11.56 11.56 0 0 0 13.253 6.612m8.245-1.896q4.705-1.05 9.418-2.067c6.892-1.487 11.273-8.28 9.785-15.171-1.487-6.892-8.279-11.273-15.17-9.786q-.486.105-.96.247a150 150 0 0 0-10.066 3.373c-6.326 2.386-9.52 9.449-7.135 15.776a12.24 12.24 0 0 0 14.128 7.628m9.418-2.067a315 315 0 0 1 9.52-1.906c7.1-1.305 11.795-8.118 10.49-15.217s-8.118-11.795-15.217-10.49q-.267.05-.53.109c-3.568.81-7.105 1.747-10.609 2.794-6.756 2.017-10.597 9.129-8.579 15.885 1.907 6.387 8.41 10.23 14.925 8.825m9.52-1.906a208 208 0 0 1 9.648-1.53c7.322-.994 12.451-7.737 11.456-15.06-.995-7.321-7.737-12.45-15.06-11.455q-.506.069-1.007.176a908 908 0 0 0-10.295 2.27c-7.039 1.6-11.449 8.6-9.85 15.64 1.552 6.833 8.216 11.226 15.108 9.959m9.648-1.53c3.703-.503 7.411-.968 11.122-1.406 7.524-.887 12.905-7.706 12.017-15.231s-7.706-12.904-15.23-12.017q-.295.035-.589.083a238 238 0 0 0-11.93 2.232c-7.225 1.55-11.825 8.665-10.274 15.89 1.468 6.838 7.954 11.39 14.884 10.45m11.122-1.407q5.626-.665 11.262-1.245c7.632-.784 13.184-7.606 12.4-15.238s-7.605-13.184-15.238-12.401l-.217.024a282 282 0 0 0-12.009 1.695c-7.479 1.212-12.559 8.258-11.346 15.736 1.176 7.25 7.853 12.289 15.148 11.429m11.262-1.245c5.902-.606 11.814-1.123 17.723-1.648 7.73-.685 13.441-7.507 12.756-15.237s-7.508-13.44-15.238-12.754q-.13.01-.259.025c-6.014.646-12.03 1.287-18.037 1.999-7.618.904-13.063 7.812-12.159 15.43.893 7.535 7.666 12.96 15.214 12.185m17.723-1.648c6.086-.54 12.173-1.081 18.265-1.543 7.816-.592 13.671-7.408 13.078-15.224-.592-7.815-7.408-13.671-15.224-13.08l-.12.01c-6.255.529-12.499 1.2-18.74 1.87-7.716.829-13.299 7.756-12.47 15.472.818 7.614 7.583 13.172 15.211 12.495m18.265-1.543q5.934-.45 11.88-.738c7.852-.384 13.907-7.061 13.523-14.914s-7.06-13.908-14.914-13.524l-.084.004q-6.34.346-12.67.879c-7.81.659-13.609 7.524-12.95 15.335.655 7.763 7.446 13.547 15.215 12.958m11.88-.738q5.937-.29 11.88-.407c7.882-.153 14.148-6.666 13.995-14.548-.152-7.882-6.666-14.148-14.547-13.995l-.092.002q-6.36.165-12.71.514c-7.85.43-13.867 7.143-13.437 14.994.43 7.817 7.09 13.822 14.91 13.44m11.881-.407c3.656-.071 7.311-.11 10.967-.096 7.901.028 14.33-6.353 14.358-14.254.03-7.901-6.353-14.328-14.253-14.357h-.065c-3.884.003-7.769.065-11.65.166-7.882.204-14.106 6.757-13.903 14.638.203 7.844 6.7 14.055 14.546 13.903m10.967-.096q4.76.015 9.512.29c7.894.459 14.666-5.568 15.125-13.462.46-7.894-5.568-14.665-13.462-15.124a189 189 0 0 0-11.135-.315c-7.9.006-14.3 6.416-14.293 14.317.006 7.876 6.377 14.265 14.253 14.294m9.512.29c2.908.169 5.811.419 8.702.779 7.842.98 14.994-4.582 15.975-12.425.977-7.826-4.56-14.97-12.385-15.97-3.53-.451-7.077-.763-10.629-.97-7.894-.46-14.665 5.568-15.124 13.462-.46 7.893 5.568 14.665 13.461 15.124m8.702.779c2.427.304 4.851.652 7.255 1.103 7.741 1.45 15.192-3.647 16.643-11.387 1.426-7.605-3.473-14.96-11.04-16.573-3.063-.654-6.162-1.14-9.268-1.537-7.84-1.003-15.008 4.539-16.01 12.378-1.004 7.839 4.54 15.009 12.378 16.01zm7.255 1.103c2.047.383 4.091.787 6.127 1.224 7.613 1.638 15.112-3.207 16.75-10.82 1.55-7.205-2.713-14.39-9.78-16.483a99 99 0 0 0-7.494-1.881c-7.7-1.643-15.277 3.268-16.92 10.97s3.27 15.277 10.97 16.92q.173.037.347.07m6.127 1.224c1.704.367 3.403.757 5.093 1.182 7.418 1.862 14.94-2.641 16.802-10.06a13.846 13.846 0 0 0-8.706-16.387 110 110 0 0 0-6.22-2.038c-7.466-2.211-15.31 2.048-17.523 9.514-2.212 7.467 2.048 15.312 9.514 17.524q.515.153 1.04.265m5.094 1.182c1.06.266 2.123.545 3.156.907 7.054 2.477 14.781-1.234 17.258-8.288a13.54 13.54 0 0 0-6.017-16.217c-2-1.152-4.135-2.062-6.302-2.85-7.189-2.608-15.132 1.105-17.74 8.294-2.609 7.189 1.104 15.13 8.293 17.74q.665.242 1.352.414m3.156.907c.268.095.536.193.798.304q.09.037.177.079c.028.013.015.007-.004-.004 6.41 3.442 14.396 1.036 17.838-5.375a13.17 13.17 0 0 0-2.215-15.468c-1.574-1.601-3.412-2.923-5.353-4.041-6.48-3.731-14.757-1.503-18.488 4.976s-1.503 14.756 4.976 18.487c.723.417 1.483.766 2.271 1.042m-.435-.493c1.747 1.243 1.527.985 1.05.636-.138-.1-.54-.411.003.035 5.48 4.506 13.576 3.716 18.083-1.765a12.85 12.85 0 0 0 1.315-14.382c-.916-1.655-2.098-3.15-3.422-4.495-5.1-5.187-13.442-5.257-18.629-.155s-5.257 13.442-.155 18.629q.812.825 1.755 1.497m.296-.002c.255.246.51.49.76.742 4.808 4.859 12.645 4.899 17.504.09a12.4 12.4 0 0 0 2.446-3.43c1.133-2.354 1.532-5.023 1.196-7.611a14.9 14.9 0 0 0-1.75-5.265c-3.438-6.208-11.256-8.454-17.464-5.017s-8.453 11.256-5.016 17.463a12.9 12.9 0 0 0 2.324 3.028m.55.638c4.133 4.975 11.517 5.657 16.492 1.523q.284-.235.552-.488a14.6 14.6 0 0 0 3.116-4.271c2.964-6.16.374-13.557-5.786-16.521s-13.557-.375-16.52 5.786a12.38 12.38 0 0 0 1.333 12.904zm-2.255-3.988a10.894 10.894 0 0 0 12.335 8.385c2.594-.411 5.046-1.553 6.964-3.362 4.705-4.438 4.922-11.851.484-16.557s-11.85-4.922-16.557-.484a11.71 11.71 0 0 0-3.407 11.017zm9.901 8.635a23 23 0 0 0 2.433-.25c5.943-.94 9.998-6.52 9.058-12.462s-6.52-9.998-12.462-9.058a10.89 10.89 0 0 0-8.973 8.589l-.192.688c-1.417 5.305 1.736 10.754 7.042 12.17a10 10 0 0 0 3.094.323m-9.506-2.136c1.447.566 2.911 1.103 4.408 1.52 2.227.62 4.55.902 6.83.369 5.347-1.248 8.67-6.596 7.421-11.943a9.944 9.944 0 0 0-17.926-3.3c-1.156 1.715-2.259 3.468-3.376 5.208a5.537 5.537 0 0 0 2.643 8.146m-143.862 17.64a1.347 1.347 0 0 0 2.63-.338c.008-.175.112-.356.185-.511.135-.286.286-.564.442-.84a1.592 1.592 0 1 0-2.907-1.25 12 12 0 0 0-.384 1.54c-.075.462-.109.948.034 1.4m3.051-1.403a1.912 1.912 0 1 0-2.68-1.68 4 4 0 0 1-.05.25 1.592 1.592 0 0 0 2.731 1.428zm2.93 3.61c-.108-1.414-.233-2.84-.515-4.23-.105-.521-.235-1.042-.439-1.533-.469-1.124-1.479-2.031-2.797-1.858-.358.047-.7.175-1 .375-.88.587-1.192 1.705-1.512 2.653a106 106 0 0 0-1.183 3.797 3.807 3.807 0 1 0 7.445.796m-.378 16.213c.232-3.097.42-6.198.493-9.302.056-2.302.06-4.613-.115-6.911a3.807 3.807 0 0 0-7.445-.796c-1.46 4.914-3.08 9.78-4.7 14.644a6.048 6.048 0 1 0 11.767 2.365m-2.565 19.854c1.262-6.557 2.065-13.198 2.565-19.854a6.048 6.048 0 0 0-11.768-2.365 1699 1699 0 0 1-6.139 18.113 7.961 7.961 0 1 0 15.342 4.106m-2.532 12.81c.891-4.261 1.71-8.536 2.532-12.81a7.961 7.961 0 0 0-15.342-4.106 215 215 0 0 1-2.515 6.945c-.547 1.42-1.107 2.843-1.76 4.219a9.08 9.08 0 0 0 4.304 12.095 9.077 9.077 0 0 0 12.781-6.343m-.745 3.69c-.015.156-.04.294 0 .062q.065-.378.138-.755c.192-1.001.4-2 .607-2.997a9.077 9.077 0 0 0-7.029-10.743 9.08 9.08 0 0 0-10.057 4.99q-.44.929-.898 1.849-.158.317-.323.633c-.077.147-.149.299-.243.436-3.064 4.455-1.937 10.549 2.517 13.613s10.55 1.938 13.613-2.517a9.8 9.8 0 0 0 1.675-4.571m-20.065-.725c.008 1.06.171 2.12.495 3.132a10.1 10.1 0 0 0 2.2 3.779 10.1 10.1 0 0 0 6.822 3.215c.9.049 1.801-.024 2.681-.217a10 10 0 0 0 2.555-.938 10.08 10.08 0 0 0 5.215-7.445q.06-.4.097-.801a9.79 9.79 0 0 0-7.927-10.597v.004q-.26-.055-.525-.1l-.002.012-.014-.002.002-.011c-5.464-.873-10.6 2.849-11.474 8.313a10 10 0 0 0-.125 1.656m20.037-.151.002-.224.012-.645q.026-1.167.058-2.333c.142-5.398-4.118-9.89-9.515-10.032a9.775 9.775 0 0 0-9.864 7.952 91 91 0 0 0-.47 2.639c-.146.924-.267 1.856-.26 2.794.042 5.533 4.56 9.984 10.094 9.943 5.532-.042 9.984-4.561 9.943-10.094m.072-3.202c.003-.15.03-.3.052-.445.058-.36.138-.717.226-1.072.314-1.261.74-2.495 1.196-3.711 1.851-4.93-.646-10.427-5.576-12.277a9.535 9.535 0 0 0-12.278 5.575 94 94 0 0 0-1.82 5.259c-.467 1.509-.885 3.038-1.18 4.59h.001c-1.006 5.307 2.48 10.423 7.785 11.428s10.42-2.48 11.426-7.786a10 10 0 0 0 .168-1.561m1.474-5.228c.72-1.92 1.518-3.811 2.342-5.69a261 261 0 0 1 3.5-7.603 8.553 8.553 0 0 0-14.539-8.846c-1.934 2.555-3.777 5.184-5.429 7.93-1.44 2.395-2.745 4.888-3.728 7.507-1.85 4.93.646 10.427 5.576 12.278 4.93 1.85 10.427-.646 12.278-5.576m5.842-13.293a60.7 60.7 0 0 1 9.376-14.15 7.572 7.572 0 0 0-11.325-10.052 254 254 0 0 0-12.59 15.356 8.554 8.554 0 1 0 14.54 8.846m9.375-14.15c1.698-1.913 3.48-3.763 5.413-5.443 1.368-1.19 2.82-2.31 4.404-3.198a6.933 6.933 0 0 0-5.482-12.656c-2.95.93-5.683 2.46-8.17 4.286-2.753 2.02-5.225 4.409-7.49 6.959a7.572 7.572 0 0 0 11.325 10.052m9.817-8.641c1.073-.603 2.21-1.148 3.408-1.445a5 5 0 0 1 1.035-.162c.126-.005.258-.008.382.017a6.63 6.63 0 1 0 1.458-13.13c-1.884-.043-3.768.159-5.619.497-2.082.38-4.13.93-6.146 1.567a6.933 6.933 0 1 0 5.482 12.656m3.75-1.914a7.358 7.358 0 1 0 14.203-3.74c-.832-2.525-2.275-4.861-4.378-6.52-2.078-1.64-4.658-2.485-7.292-2.546a6.631 6.631 0 0 0-2.537 12.817zm14.451 11.845c.501-2.711.837-5.465.831-8.225-.006-2.486-.297-4.992-1.079-7.36a7.357 7.357 0 0 0-14.27 3.346c.03.215.014.439-.008.654a8 8 0 0 1-.255 1.31c-.424 1.572-1.12 3.07-1.876 4.507a8.914 8.914 0 0 0 3.743 12.039 8.915 8.915 0 0 0 12.914-6.271m-3.366 14.523c1.386-4.775 2.463-9.636 3.366-14.523a8.915 8.915 0 0 0-16.657-5.768q-3.235 6.156-6.478 12.308c-2.759 5.234-.752 11.715 4.483 14.475s11.715.752 14.475-4.483c.337-.641.61-1.314.811-2.01m-1.814 6.866c.124-.726.321-1.444.506-2.156a167 167 0 0 1 1.308-4.71c1.65-5.683-1.62-11.627-7.304-13.276a10.714 10.714 0 0 0-12.465 5.294c-.947 1.796-1.86 3.615-2.659 5.483-.764 1.782-1.432 3.626-1.76 5.543-1.055 6.178 3.098 12.042 9.276 13.098 6.178 1.055 12.043-3.098 13.098-9.276m-18.017 8.642q.668.505 1.404.9v.002c.66.358 1.354.647 2.073.863l4.997.319q.32-.053.634-.125c3.346-.767 6.07-3.055 7.544-6.07.3-.612.547-1.248.751-1.9.27-.86.462-1.743.614-2.631 1.055-6.178-3.098-12.043-9.276-13.098s-12.042 3.097-13.098 9.276c-.226 1.325-.314 2.676-.197 4.017.102 1.168.36 2.323.782 3.418a11.5 11.5 0 0 0 3.772 5.029m17.078-6.988q.202-.45.423-.891c2.382-4.807.416-10.635-4.39-13.018-4.808-2.382-10.636-.416-13.018 4.39v.002l-.005-.005c-4.303 3.76-4.744 10.296-.985 14.599s10.296 4.745 14.6.986a10.35 10.35 0 0 0 3.393-6.06zm.423-.891c.786-1.587 1.53-3.195 2.266-4.806a553 553 0 0 0 3.11-6.951 8.137 8.137 0 0 0-13.274-8.96c-1.934 1.986-3.82 4.025-5.563 6.182-1.487 1.84-2.893 3.782-3.947 5.908-2.382 4.807-.416 10.635 4.391 13.017 4.806 2.382 10.635.416 13.017-4.39m5.376-11.757c1.097-2.49 2.572-4.808 4.177-6.998 2.158-2.944 4.596-5.677 7.163-8.268a6.562 6.562 0 0 0-9.322-9.235 2605 2605 0 0 0-15.292 15.54 8.137 8.137 0 1 0 13.274 8.96m11.34-15.265c2.702-2.73 5.46-5.405 8.308-7.98 2.27-2.052 4.6-4.045 7.033-5.901a5.5 5.5 0 0 0-5.512-9.425c-3.379 1.456-6.53 3.41-9.485 5.593-3.45 2.55-6.648 5.432-9.666 8.478a6.561 6.561 0 0 0 9.322 9.235m15.341-13.881a35 35 0 0 1 2.7-1.882 17 17 0 0 1 2.108-1.137c.413-.18.845-.35 1.291-.43.385-.07-.025-.043.49.053a4.64 4.64 0 0 0 1.694-9.122c-2.1-.39-4.274-.073-6.325.44-2.565.642-5.046 1.608-7.47 2.653a5.501 5.501 0 1 0 5.512 9.425m5.514-3.735c1.04.473.51.238.38.112a1 1 0 0 1 .087.14c.118.219.196.46.26.699.107.398.173.807.22 1.216a5.754 5.754 0 1 0 10.847-3.248c-.947-1.865-2.142-3.635-3.708-5.037-1.502-1.346-3.329-2.296-5.317-2.665a4.639 4.639 0 0 0-2.769 8.783m16.125 15.539c-.438-3.182-.985-6.358-1.78-9.471-.627-2.45-1.404-4.89-2.55-7.15a5.753 5.753 0 0 0-10.849 3.249c.072.64.064 1.288.028 1.93a25 25 0 0 1-.295 2.595c-.409 2.55-1.068 5.06-1.802 7.533a8.849 8.849 0 1 0 17.248 1.314m-2.787 29.13c1.34-5.088 2.38-10.27 2.897-15.511.447-4.522.511-9.11-.11-13.62a8.848 8.848 0 0 0-17.248-1.313c-1.019 3.429-2.186 6.812-3.42 10.168-1.554 4.227-3.222 8.412-4.95 12.57-2.559 6.16.36 13.228 6.518 15.787 6.16 2.559 13.227-.36 15.786-6.518a12 12 0 0 0 .527-1.562m-12.024 31.928c5.03-10.22 9.126-20.91 12.024-31.928 1.697-6.45-2.156-13.054-8.607-14.751a12.076 12.076 0 0 0-14.224 7.045c-3.94 9.483-8.21 18.827-12.745 28.04-3.202 6.504-.525 14.37 5.98 17.573 6.503 3.202 14.37.525 17.572-5.98m-31.007 20.185a8.635 8.635 0 0 0 14.984 4.92c3.042-3.35 5.687-7.054 8.113-10.868 2.914-4.583 5.512-9.365 7.91-14.236 3.201-6.504.524-14.371-5.98-17.573-6.503-3.202-14.37-.525-17.572 5.979-2.608 5.296-4.779 10.84-6.158 16.587-1.187 4.945-1.82 10.11-1.297 15.19m10.973 22.846a2.696 2.696 0 0 0 3.098-4.35c-.867-.818-1.566-1.821-1.933-2.963-.305-.95-.367-1.958-.259-2.946.152-1.38.607-2.712 1.173-3.972.727-1.62 1.654-3.148 2.658-4.61a8.637 8.637 0 1 0-15.75-5.173c-.097 2.915.035 5.85.551 8.725.41 2.278 1.065 4.52 2.066 6.612.951 1.986 2.218 3.818 3.79 5.363 1.357 1.332 2.923 2.435 4.606 3.314m-16.053 27.05a1.347 1.347 0 0 0 2.641-.01c.03-.144.101-.27.173-.398.117-.208.246-.41.377-.607a1.583 1.583 0 0 0-.443-2.196 1.583 1.583 0 0 0-2.383.829c-.13.402-.25.81-.33 1.227-.073.379-.113.774-.035 1.156m.318-2.202a1.584 1.584 0 0 0 2.721 1.38 1.978 1.978 0 1 0-2.725-1.38zm4.31-2.49a3 3 0 0 0-1.62-.915 2.93 2.93 0 0 0-2.619.796 2.95 2.95 0 1 0 4.238.119m.635.694-.635-.694a2.95 2.95 0 0 0-4.238-.12l-.673.659a3.86 3.86 0 1 0 5.546.155m2.17 7.109c-.156-1.266-.34-2.535-.639-3.777-.287-1.19-.69-2.413-1.53-3.333a3.86 3.86 0 0 0-5.547-.154c-.72.705-1.207 1.626-1.648 2.522-.532 1.085-1 2.2-1.452 3.32a5.634 5.634 0 1 0 10.815 1.422m.265 12.186c.088-2.252.131-4.505.084-6.758-.037-1.812-.127-3.628-.349-5.428a5.632 5.632 0 0 0-10.815-1.421 77 77 0 0 0-1.769 4.922 168 168 0 0 0-1.92 6.333 7.53 7.53 0 0 0 5.183 9.304 7.53 7.53 0 0 0 9.586-6.952m-1.264 16.257c.597-5.403 1.054-10.825 1.264-16.257a7.53 7.53 0 0 0-14.769-2.352 496 496 0 0 1-4.484 14.79 9.24 9.24 0 0 0 6 11.61 9.24 9.24 0 0 0 11.99-7.791m-2.337 15.592c1.052-5.15 1.76-10.37 2.336-15.592a9.24 9.24 0 0 0-8.17-10.198 9.24 9.24 0 0 0-9.819 6.38c-1.457 4.575-2.967 9.136-4.626 13.642-2.017 5.479.79 11.556 6.27 13.573 5.477 2.018 11.554-.79 13.572-6.268q.276-.751.437-1.537m-2.738 10.965c1.152-3.587 1.985-7.276 2.738-10.965 1.168-5.72-2.522-11.305-8.242-12.473a10.57 10.57 0 0 0-12.037 6.705c-1.115 3.028-2.246 6.052-3.477 9.035-2.36 5.718.362 12.267 6.08 14.627s12.267-.362 14.627-6.08q.173-.418.311-.85m-4.104 8.709c1.872-2.625 3.123-5.653 4.104-8.708a11.201 11.201 0 0 0-21.018-7.698q-1.182 2.863-2.366 5.725c-2.343 5.659.345 12.148 6.005 14.49a11.09 11.09 0 0 0 13.275-3.81m-3.325 4.036c1.276-1.19 2.316-2.62 3.325-4.035 3.556-4.988 2.395-11.914-2.593-15.47s-11.915-2.395-15.47 2.593c-.487.684-.896 1.42-1.217 2.196a14 14 0 0 1-.192.448c-.09.204-.198.268-.358.519-3.22 5.037-1.749 11.732 3.29 14.953a10.82 10.82 0 0 0 13.215-1.204m-18.122-5.765a10.72 10.72 0 0 0 3.613 6.193 10.85 10.85 0 0 0 9.687 2.21 11.1 11.1 0 0 0 4.822-2.637c4.373-4.078 4.612-10.93.534-15.302-4.078-4.373-10.929-4.611-15.302-.533a11.2 11.2 0 0 0-2.172 2.779 10.93 10.93 0 0 0-1.182 7.29m12.636-9.607c-.598-.592-1.117-1.266-1.613-1.944a3.78 3.78 0 0 0-6.827 2.144c-.018.783-.057 1.575-.199 2.347a6.953 6.953 0 1 0 11.646 7.599 6.952 6.952 0 0 0-3.003-10.155"/><path fill="#1e1b1b" d="M7.726 365.755c.697-.83 1.65-1.647 2.784-1.703a1.365 1.365 0 0 0-.034-2.728c-1.81-.045-3.574.51-5.19 1.286a2.036 2.036 0 1 0 2.44 3.145m.011.078a.8.8 0 0 1 .125-.26 2.036 2.036 0 0 0-2.367-3.05c-1.529.535-2.88 1.447-3.845 2.76a3.572 3.572 0 1 0 6.088.549zm-7.703 5.955a5.56 5.56 0 0 0 5.947 5.14 5.558 5.558 0 0 0 2.88-10.03 6.3 6.3 0 0 1-.863-.73 1.5 1.5 0 0 1-.266-.347 3.572 3.572 0 0 0-6.082-.538c-1.368 1.863-1.78 4.239-1.616 6.505m0 0c.243 3.342 2.001 6.372 4.346 8.694a7.342 7.342 0 1 0 7.492-12.181c-1.04-.347-2.119-.75-3.01-1.402a5.559 5.559 0 0 0-8.828 4.889m4.346 8.694a88 88 0 0 0 5.065 4.642 8.735 8.735 0 1 0 8.094-15.048 156 156 0 0 1-5.667-1.775 7.341 7.341 0 0 0-7.492 12.18m5.065 4.643a35.4 35.4 0 0 0 7.01 4.63 9.66 9.66 0 0 0 12.968-4.3c2.394-4.767.47-10.574-4.3-12.967a9.6 9.6 0 0 0-1.535-.613 600 600 0 0 0-6.049-1.798 8.734 8.734 0 0 0-8.094 15.048m7.01 4.63c3.37 1.693 7.12 2.537 10.834 3.06 5.62.79 10.816-3.124 11.607-8.744s-3.124-10.816-8.743-11.607a10 10 0 0 0-1.409-.1 31 31 0 0 1-3.397-.168c-.59-.067-1.19-.15-1.759-.321-5.107-1.546-10.5 1.34-12.046 6.447a9.66 9.66 0 0 0 4.912 11.434m10.835 3.059c2.288.32 4.597.474 6.905.539 2.672.075 5.348.029 8.02-.084 6.028-.255 10.71-5.35 10.455-11.38s-5.35-10.711-11.38-10.456q-.416.018-.83.067a146 146 0 0 1-6.733.662c-1.657.119-3.32.205-4.982.2-5.675-.012-10.285 4.578-10.298 10.253a10.275 10.275 0 0 0 8.843 10.199m14.924.455c6.583-.28 13.156-.798 19.716-1.4 6.388-.588 11.09-6.241 10.503-12.63-.587-6.386-6.24-11.088-12.628-10.501a12 12 0 0 0-.783.099c-6.17.993-12.355 1.924-18.562 2.663a10.928 10.928 0 0 0 1.754 21.769m19.716-1.4q12.977-1.192 25.956-2.37c6.816-.62 11.84-6.646 11.221-13.462-.619-6.817-6.647-11.841-13.463-11.222q-.33.03-.659.077c-8.663 1.257-17.32 2.554-25.963 3.945-6.333 1.019-10.64 6.979-9.62 13.312a11.614 11.614 0 0 0 12.528 9.72m25.956-2.37q15.868-1.44 31.738-2.864c7.121-.64 12.375-6.93 11.736-14.05s-6.929-12.375-14.05-11.736l-.232.023c-10.719 1.157-21.423 2.472-32.093 4.02-6.773.983-11.468 7.27-10.485 14.045.946 6.518 6.826 11.158 13.386 10.562m31.738-2.864a2504 2504 0 0 1 35.144-2.893c7.306-.551 12.782-6.921 12.23-14.227s-6.92-12.782-14.227-12.23l-.24.02a2553 2553 0 0 0-35.453 3.567c-7.108.767-12.248 7.152-11.48 14.259.757 7.018 6.996 12.135 14.026 11.504m35.144-2.893a1344 1344 0 0 1 35.603-2.223c7.344-.357 13.007-6.602 12.65-13.946-.356-7.272-6.487-12.911-13.764-12.657a629 629 0 0 0-36.727 2.389c-7.295.685-12.654 7.153-11.969 14.448.676 7.2 6.995 12.534 14.207 11.989m35.603-2.223c10.54-.513 21.091-.853 31.644-.887 7.286-.023 13.174-5.948 13.151-13.234s-5.949-13.174-13.234-13.151c-10.895.035-21.788.289-32.675.669-7.349.257-13.097 6.423-12.84 13.77.257 7.349 6.422 13.098 13.77 12.84zm31.644-.887c8.864-.028 17.728-.113 26.59-.313 6.918-.157 12.4-5.891 12.243-12.81a12.53 12.53 0 0 0-11.385-12.193c-9.149-.836-18.347-1.098-27.53-1.07-7.287.025-13.175 5.95-13.152 13.236s5.95 13.173 13.234 13.15m26.59-.313a193 193 0 0 1 10.144.015c2.726.083 5.451.235 8.163.52 6.517.688 12.357-4.037 13.045-10.554.687-6.517-4.039-12.357-10.556-13.044a1433 1433 0 0 0-19.938-1.94c-6.89-.63-12.988 4.446-13.618 11.336s4.445 12.988 11.336 13.618q.71.065 1.424.049m18.307.536c4.32.456 8.64.93 12.944 1.512 6.29.852 12.08-3.558 12.93-9.848a11.49 11.49 0 0 0-8.232-12.591c-2.295-.656-4.635-1.151-6.986-1.56a123 123 0 0 0-8.167-1.112c-6.517-.688-12.357 4.038-13.044 10.555s4.038 12.356 10.555 13.044m12.944 1.512c1.253.17 2.504.368 3.741.632.73.156 1.461.328 2.166.574 5.8 2.024 12.14-1.036 14.164-6.836 2.024-5.798-1.037-12.14-6.836-14.163-2.813-.982-5.673-1.828-8.537-2.646-6.103-1.744-12.464 1.789-14.208 7.893-1.744 6.103 1.79 12.464 7.893 14.208q.796.228 1.617.338m5.907 1.206a94 94 0 0 1 4.73 1.777c5.554 2.28 11.905-.374 14.185-5.928a10.87 10.87 0 0 0-4.029-13.175c-2.339-1.558-4.909-2.75-7.558-3.673-5.799-2.024-12.14 1.036-14.164 6.835s1.037 12.14 6.836 14.164m4.73 1.777c.245.1.49.209.72.344.017.01.061.038.07.045a2 2 0 0 1-.118-.098c4.374 3.909 11.088 3.533 14.997-.84s3.533-11.087-.84-14.997c-1.46-1.306-3.044-2.471-4.673-3.557-4.997-3.33-11.746-1.977-15.075 3.02s-1.976 11.745 3.02 15.074q.899.598 1.9 1.009m.671.29a35.4 35.4 0 0 0 4.131 3.186c4.746 3.128 11.13 1.815 14.258-2.931a10.3 10.3 0 0 0-.269-11.715 27.8 27.8 0 0 0-3.963-4.375c-4.374-3.91-11.088-3.534-14.997.839s-3.533 11.088.84 14.997m4.131 3.185c.218.144.453.3.63.495 3.695 4.08 9.997 4.39 14.075.697 4.08-3.694 4.391-9.996.697-14.075a21 21 0 0 1-1.413-1.763c-3.342-4.6-9.779-5.617-14.378-2.275-4.598 3.342-5.616 9.78-2.274 14.378.727 1 1.63 1.862 2.663 2.543m.63.495c.472.52.943 1.043 1.398 1.577 3.46 4.069 9.563 4.564 13.632 1.104a9.67 9.67 0 0 0 3.385-8.006c-.2-3.032-1.626-5.826-3.643-8.053-3.695-4.08-9.996-4.391-14.075-.697s-4.39 9.996-.697 14.075m-.443-1.735c.943 5.279 5.987 8.793 11.266 7.849 5.278-.943 8.792-5.987 7.85-11.265a9.7 9.7 0 0 0-.495-1.772l-.003.003c-1.233-5.196-6.445-8.41-11.642-7.177s-8.41 6.446-7.177 11.643q.086.364.201.72zm-.689-1.281c0 5.61 4.548 10.16 10.16 10.16 5.611 0 10.16-4.55 10.16-10.16s-4.549-10.16-10.16-10.16c-5.612 0-10.16 4.549-10.16 10.16m-.485.05c0 5.81 4.71 10.519 10.517 10.519 5.81 0 10.518-4.71 10.518-10.518 0-5.81-4.709-10.517-10.518-10.517-5.808 0-10.517 4.708-10.517 10.517m.454 3.689a10.7 10.7 0 0 0 4.514 5.435 10.7 10.7 0 0 0 4.212 1.44c1.64.198 3.317.009 4.871-.548a10.7 10.7 0 0 0 5.69-4.803 10.63 10.63 0 0 0-.013-10.446 10.72 10.72 0 0 0-6.982-5.158 10.7 10.7 0 0 0-4.69.023c-1.469.338-2.86.99-4.06 1.902a10.63 10.63 0 0 0-3.542 12.155m6.763 6.296c5.514 1.696 11.36-1.4 13.056-6.914 1.696-5.515-1.399-11.361-6.914-13.057a10.45 10.45 0 0 0-5.19-.244l-.628.17a10.313 10.313 0 0 0-1.72 19.54zm-7.297-7.007a10.4 10.4 0 0 0 3.9 5.397 10.46 10.46 0 0 0 5.776 1.925c5.693.143 10.425-4.357 10.568-10.05s-4.357-10.425-10.05-10.568a10.47 10.47 0 0 0-5.208 1.243 10.4 10.4 0 0 0-4.29 4.353 10.23 10.23 0 0 0-.696 7.7M92.362 291.977c.04-.543.088-1.102.238-1.628a1.322 1.322 0 0 0-2.506-.83c-.185.487-.494.933-.794 1.354a1.69 1.69 0 1 0 3.062 1.104m.522.647c-.174-.15-.352-.316-.468-.517-.018-.032-.057-.098-.054-.13a1.69 1.69 0 0 0-3.062-1.104c-.757 1.062-1.115 2.346-1.273 3.627a2.953 2.953 0 1 0 4.857-1.876m-1.989 9.297a5.244 5.244 0 1 0 4.955-8.46c-.762-.128-1.529-.275-2.262-.522a4 4 0 0 1-.562-.228c-.047-.025-.1-.051-.142-.087a2.952 2.952 0 0 0-4.857 1.876c-.157 1.27.118 2.557.6 3.732.55 1.34 1.362 2.564 2.268 3.689m0 0c1.354 1.684 3.12 3.003 5.018 4.016 2.102 1.119 4.382 1.88 6.7 2.41a7.5 7.5 0 0 0 8.986-5.642 7.503 7.503 0 0 0-7.862-9.156c-1.554.114-3.114.188-4.672.164-1.074-.016-2.154-.074-3.215-.251a5.244 5.244 0 0 0-4.955 8.459m11.718 6.426c2.711.62 5.495.899 8.271 1.003 3.287.124 6.58 0 9.86-.253 5.353-.413 9.36-5.09 8.945-10.443-.413-5.355-5.089-9.36-10.443-8.947a9.7 9.7 0 0 0-2.544.546c-2.48.892-4.996 1.71-7.556 2.348-1.774.443-3.583.815-5.409.948a7.503 7.503 0 0 0-1.124 14.798m18.13.75c7.471-.576 14.916-1.477 22.33-2.564 6.406-.938 10.838-6.893 9.9-13.3-.939-6.406-6.894-10.838-13.3-9.9q-.654.097-1.293.265c-7.309 1.93-14.563 4.095-21.678 6.655-5.053 1.818-7.676 7.388-5.858 12.44a9.72 9.72 0 0 0 9.9 6.404m22.328-2.564a861 861 0 0 1 23.561-3.114c7.008-.83 12.016-7.181 11.188-14.188-.829-7.008-7.182-12.016-14.189-11.188q-.398.048-.79.119a322 322 0 0 0-24.462 5.436c-6.26 1.653-9.996 8.067-8.343 14.328a11.724 11.724 0 0 0 13.035 8.607m23.561-3.114c8.285-.98 16.581-1.87 24.884-2.685 7.37-.724 12.757-7.286 12.033-14.655-.724-7.37-7.285-12.758-14.655-12.033q-.253.024-.507.059a583 583 0 0 0-25.547 4.057c-6.942 1.266-11.543 7.919-10.278 14.86 1.21 6.638 7.371 11.19 14.07 10.397m24.884-2.685c7.452-.733 14.924-1.31 22.41-1.553 7.492-.242 13.37-6.514 13.127-14.007-.24-7.407-6.379-13.253-13.79-13.132-8.324.136-16.632.935-24.876 2.063-7.337 1.004-12.47 7.766-11.466 15.103.977 7.14 7.423 12.23 14.595 11.526m22.41-1.553c2.46-.08 4.93-.12 7.386.035.62.039 1.241.089 1.856.18.933.14.092.114 1.951.456 7.334 1.35 14.375-3.502 15.724-10.837a13.504 13.504 0 0 0-9.192-15.313c-2.748-.873-5.638-1.244-8.505-1.453-3.287-.24-6.589-.26-9.883-.207-7.495.123-13.472 6.299-13.35 13.795.123 7.495 6.3 13.472 13.794 13.35zm9.466.234c.867.282 1.733.564 2.595.862q.26.089.518.184c-.475-.178-1.929-.615.876.344 6.863 2.346 14.328-1.316 16.674-8.18.267-.781.46-1.586.576-2.404l.131-1.785a13 13 0 0 0-.088-1.597l.002-.001a13 13 0 0 0-.238-1.404c-.678-3.01-2.375-5.694-4.728-7.672-1-.841-2.106-1.55-3.266-2.148-1.532-.79-3.153-1.392-4.793-1.912-7.107-2.258-14.7 1.673-16.958 8.78-2.249 7.076 1.638 14.64 8.7 16.933m11.955 1.978c1.028-.447 2.036-.944 2.983-1.547a14.3 14.3 0 0 0 2.997-2.527 13.54 13.54 0 0 0 3.302-7.097c1.02-7.181-3.977-13.828-11.158-14.846a13.13 13.13 0 0 0-13.175 6.362h.006c-4.4 5.499-3.51 13.522 1.987 17.92a12.75 12.75 0 0 0 13.058 1.735m-18.042-7.71a12.1 12.1 0 0 0 1.63 3.45c1.6 2.344 3.994 4.056 6.692 4.885 1.182.363 2.413.558 3.65.586 2.08.047 4.162-.38 6.07-1.21 6.455-2.813 9.41-10.325 6.597-16.78s-10.325-9.41-16.78-6.597a14.35 14.35 0 0 0-5.236 3.882 13.4 13.4 0 0 0-2.384 4.152c-.862 2.445-.967 5.132-.239 7.632m.927-2.8a9.562 9.562 0 1 0 19.123 0 9.562 9.562 0 1 0-19.123 0"/></svg>